<svg xmlns="http://www.w3.org/2000/svg" viewBox="0, 0, 336.05, 839.45" font-family="SauceCodePro Nerd Font, Source Code Pro, Courier" font-size="14"><g fill="currentColor"><text x="109.22" y="14.55" font-weight="bold" fill="#DAA520">             ##############</text><text x="75.61" y="33.55" font-weight="bold" fill="#DAA520">         ######################</text><text x="58.81" y="52.55" font-weight="bold" fill="#DAA520">       ##########################</text><text x="42.01" y="71.55" font-weight="bold" fill="#DAA520">     ##+</text><text x="67.21" y="71.55" font-weight="bold" fill="#000000">####</text><text x="100.82" y="71.55" font-weight="bold" fill="#DAA520">#######################</text><text x="25.2" y="90.55" font-weight="bold" fill="#DAA520">   #####</text><text x="67.21" y="90.55" font-weight="bold" fill="#000000">#</text><text x="75.61" y="90.55" font-weight="bold" fill="#DAA520">*</text><text x="84.01" y="90.55" font-weight="bold" fill="#000000">###%+</text><text x="126.02" y="90.55" font-weight="bold" fill="#DAA520">######################</text><text x="16.8" y="109.55" font-weight="bold" fill="#DAA520">  ########</text><text x="84.01" y="109.55" font-weight="bold" fill="#000000">%</text><text x="92.42" y="109.55" font-weight="bold" fill="#DAA520">*#</text><text x="109.22" y="109.55" font-weight="bold" fill="#000000">%#####</text><text x="159.63" y="109.55" font-weight="bold" fill="#DAA520">###################</text><text x="8.4" y="128.55" font-weight="bold" fill="#DAA520"> ##########</text><text x="92.42" y="128.55" font-weight="bold" fill="#000000">##</text><text x="109.22" y="128.55" font-weight="bold" fill="#DAA520">*#*</text><text x="134.42" y="128.55" font-weight="bold" fill="#000000">#######%+</text><text x="210.03" y="128.55" font-weight="bold" fill="#DAA520">##############</text><text x="0" y="147.55" font-weight="bold" fill="#DAA520">#############</text><text x="109.22" y="147.55" font-weight="bold" fill="#000000">%#############%</text><text x="235.24" y="147.55" font-weight="bold" fill="#DAA520">############</text><text x="0" y="166.55" font-weight="bold" fill="#DAA520">#############</text><text x="109.22" y="166.55" font-weight="bold" fill="#000000">+################</text><text x="252.04" y="166.55" font-weight="bold" fill="#DAA520">##########</text><text x="0" y="185.55" font-weight="bold" fill="#DAA520">##############</text><text x="117.62" y="185.55" font-weight="bold" fill="#000000">################*</text><text x="260.44" y="185.55" font-weight="bold" fill="#DAA520">#########</text><text x="0" y="204.55" font-weight="bold" fill="#DAA520">##############</text><text x="117.62" y="204.55" font-weight="bold" fill="#000000">+################+</text><text x="268.84" y="204.55" font-weight="bold" fill="#DAA520">########</text><text x="0" y="223.55" font-weight="bold" fill="#DAA520">###############</text><text x="126.02" y="223.55" font-weight="bold" fill="#000000">##########</text><text x="210.03" y="223.55" font-weight="bold" fill="#DAA520">###</text><text x="235.24" y="223.55" font-weight="bold" fill="#000000">+##%</text><text x="268.84" y="223.55" font-weight="bold" fill="#DAA520">########</text><text x="0" y="242.55" font-weight="bold" fill="#DAA520">###############</text><text x="126.02" y="242.55" font-weight="bold" fill="#000000">+########</text><text x="201.63" y="242.55" font-weight="bold" fill="#DAA520">######</text><text x="252.04" y="242.55" font-weight="bold" fill="#000000">###</text><text x="277.25" y="242.55" font-weight="bold" fill="#DAA520">#######</text><text x="0" y="261.55" font-weight="bold" fill="#DAA520">#############</text><text x="109.22" y="261.55" font-weight="bold" fill="#000000">*####</text><text x="151.22" y="261.55" font-weight="bold" fill="#DAA520">############</text><text x="252.04" y="261.55" font-weight="bold" fill="#000000">%#+</text><text x="277.25" y="261.55" font-weight="bold" fill="#DAA520">#######</text><text x="0" y="280.55" font-weight="bold" fill="#DAA520">############</text><text x="100.82" y="280.55" font-weight="bold" fill="#000000">+###</text><text x="134.42" y="280.55" font-weight="bold" fill="#D3D3D3">####</text><text x="168.03" y="280.55" font-weight="bold" fill="#DAA520">##########</text><text x="252.04" y="280.55" font-weight="bold" fill="#000000">%#*</text><text x="277.25" y="280.55" font-weight="bold" fill="#DAA520">#######</text><text x="8.4" y="299.55" font-weight="bold" fill="#DAA520"> ##########</text><text x="92.42" y="299.55" font-weight="bold" fill="#000000">###*</text><text x="126.02" y="299.55" font-weight="bold" fill="#D3D3D3">######</text><text x="176.43" y="299.55" font-weight="bold" fill="#000000">+#+</text><text x="201.63" y="299.55" font-weight="bold" fill="#DAA520">#####</text><text x="243.64" y="299.55" font-weight="bold" fill="#000000">+##*</text><text x="277.25" y="299.55" font-weight="bold" fill="#DAA520">######</text><text x="16.8" y="318.55" font-weight="bold" fill="#DAA520">  #########</text><text x="92.42" y="318.55" font-weight="bold" fill="#000000">##%</text><text x="117.62" y="318.55" font-weight="bold" fill="#D3D3D3">#####</text><text x="159.63" y="318.55" font-weight="bold" fill="#000000">:%#####</text><text x="218.44" y="318.55" font-weight="bold" fill="#DAA520">###</text><text x="243.64" y="318.55" font-weight="bold" fill="#000000">###*</text><text x="277.25" y="318.55" font-weight="bold" fill="#DAA520">#####</text><text x="25.2" y="337.55" font-weight="bold" fill="#DAA520">   ########</text><text x="92.42" y="337.55" font-weight="bold" fill="#000000">%#+</text><text x="117.62" y="337.55" font-weight="bold" fill="#D3D3D3">######</text><text x="168.03" y="337.55" font-weight="bold" fill="#000000">#############</text><text x="277.25" y="337.55" font-weight="bold" fill="#DAA520">####</text><text x="42.01" y="356.55" font-weight="bold" fill="#DAA520">     #####</text><text x="84.01" y="356.55" font-weight="bold" fill="#000000">##%:</text><text x="117.62" y="356.55" font-weight="bold" fill="#D3D3D3">######</text><text x="168.03" y="356.55" font-weight="bold" fill="#000000">:############</text><text x="277.25" y="356.55" font-weight="bold" fill="#DAA520">##</text><text x="58.81" y="375.55" font-weight="bold" fill="#DAA520">       ##</text><text x="75.61" y="375.55" font-weight="bold" fill="#000000">+##*</text><text x="109.22" y="375.55" font-weight="bold" fill="#D3D3D3">########</text><text x="176.43" y="375.55" font-weight="bold" fill="#000000">############</text><text x="75.61" y="394.55" font-weight="bold" fill="#DAA520">         </text><text x="75.61" y="394.55" font-weight="bold" fill="#000000">###</text><text x="100.82" y="394.55" font-weight="bold" fill="#D3D3D3">#########</text><text x="176.43" y="394.55" font-weight="bold" fill="#000000">##########</text><text x="109.22" y="413.55" font-weight="bold" fill="#DAA520">             </text><text x="109.22" y="413.55" font-weight="bold" fill="#D3D3D3">########</text><text x="176.43" y="413.55" font-weight="bold" fill="#000000">######</text></g></svg>