<svg xmlns="http://www.w3.org/2000/svg" viewBox="0, 0, 201.63, 763.45" font-family="SauceCodePro Nerd Font, Source Code Pro, Courier" font-size="14"><g fill="currentColor"><text x="8.4" y="14.55" font-weight="bold" fill="#D3D3D3"> </text><text x="8.4" y="14.55" font-weight="bold" fill="#008B8B">#######################</text><text x="8.4" y="33.55" font-weight="bold" fill="#008B8B"> </text><text x="8.4" y="33.55" font-weight="bold" fill="#008B8B">#        </text><text x="84.01" y="33.55" font-weight="bold" fill="#000000">#####        </text><text x="193.23" y="33.55" font-weight="bold" fill="#008B8B">#</text><text x="8.4" y="52.55" font-weight="bold" fill="#008B8B"> </text><text x="8.4" y="52.55" font-weight="bold" fill="#008B8B">#       </text><text x="75.61" y="52.55" font-weight="bold" fill="#000000">#######       </text><text x="193.23" y="52.55" font-weight="bold" fill="#008B8B">#</text><text x="8.4" y="71.55" font-weight="bold" fill="#008B8B"> </text><text x="8.4" y="71.55" font-weight="bold" fill="#008B8B">#       </text><text x="75.61" y="71.55" font-weight="bold" fill="#000000">##</text><text x="92.42" y="71.55" font-weight="bold" fill="#B22222">O</text><text x="100.82" y="71.55" font-weight="bold" fill="#000000">#</text><text x="109.22" y="71.55" font-weight="bold" fill="#B22222">O</text><text x="117.62" y="71.55" font-weight="bold" fill="#000000">##       </text><text x="193.23" y="71.55" font-weight="bold" fill="#008B8B">#</text><text x="8.4" y="90.55" font-weight="bold" fill="#008B8B"> </text><text x="8.4" y="90.55" font-weight="bold" fill="#008B8B">#       </text><text x="75.61" y="90.55" font-weight="bold" fill="#000000">#</text><text x="84.01" y="90.55" font-weight="bold" fill="#DAA520">#####</text><text x="126.02" y="90.55" font-weight="bold" fill="#000000">#       </text><text x="193.23" y="90.55" font-weight="bold" fill="#008B8B">#</text><text x="8.4" y="109.55" font-weight="bold" fill="#008B8B"> </text><text x="8.4" y="109.55" font-weight="bold" fill="#008B8B">#     </text><text x="58.81" y="109.55" font-weight="bold" fill="#000000">##</text><text x="75.61" y="109.55" font-weight="bold" fill="#D3D3D3">##</text><text x="92.42" y="109.55" font-weight="bold" fill="#DAA520">###</text><text x="117.62" y="109.55" font-weight="bold" fill="#D3D3D3">##</text><text x="134.42" y="109.55" font-weight="bold" fill="#000000">##     </text><text x="193.23" y="109.55" font-weight="bold" fill="#008B8B">#</text><text x="8.4" y="128.55" font-weight="bold" fill="#008B8B"> </text><text x="8.4" y="128.55" font-weight="bold" fill="#008B8B">#    </text><text x="50.41" y="128.55" font-weight="bold" fill="#000000">#</text><text x="58.81" y="128.55" font-weight="bold" fill="#D3D3D3">##########</text><text x="142.82" y="128.55" font-weight="bold" fill="#000000">##    </text><text x="193.23" y="128.55" font-weight="bold" fill="#008B8B">#</text><text x="8.4" y="147.55" font-weight="bold" fill="#008B8B"> </text><text x="8.4" y="147.55" font-weight="bold" fill="#008B8B">#   </text><text x="42.01" y="147.55" font-weight="bold" fill="#000000">#</text><text x="50.41" y="147.55" font-weight="bold" fill="#D3D3D3">############</text><text x="151.22" y="147.55" font-weight="bold" fill="#000000">##   </text><text x="193.23" y="147.55" font-weight="bold" fill="#008B8B">#</text><text x="8.4" y="166.55" font-weight="bold" fill="#008B8B"> </text><text x="8.4" y="166.55" font-weight="bold" fill="#008B8B">#  </text><text x="33.61" y="166.55" font-weight="bold" fill="#000000">#</text><text x="42.01" y="166.55" font-weight="bold" fill="#D3D3D3">######</text><text x="92.42" y="166.55" font-weight="bold" fill="#B22222">A_O</text><text x="117.62" y="166.55" font-weight="bold" fill="#D3D3D3">####</text><text x="151.22" y="166.55" font-weight="bold" fill="#000000">###  </text><text x="193.23" y="166.55" font-weight="bold" fill="#008B8B">#</text><text x="8.4" y="185.55" font-weight="bold" fill="#008B8B"> </text><text x="8.4" y="185.55" font-weight="bold" fill="#008B8B"># </text><text x="25.2" y="185.55" font-weight="bold" fill="#DAA520">##</text><text x="42.01" y="185.55" font-weight="bold" fill="#000000">#</text><text x="50.41" y="185.55" font-weight="bold" fill="#D3D3D3">############</text><text x="151.22" y="185.55" font-weight="bold" fill="#000000">##</text><text x="168.03" y="185.55" font-weight="bold" fill="#DAA520">## </text><text x="193.23" y="185.55" font-weight="bold" fill="#008B8B">#</text><text x="8.4" y="204.55" font-weight="bold" fill="#008B8B"> </text><text x="8.4" y="204.55" font-weight="bold" fill="#008B8B">#</text><text x="16.8" y="204.55" font-weight="bold" fill="#DAA520">######</text><text x="67.21" y="204.55" font-weight="bold" fill="#000000">#</text><text x="75.61" y="204.55" font-weight="bold" fill="#D3D3D3">#######</text><text x="134.42" y="204.55" font-weight="bold" fill="#000000">#</text><text x="142.82" y="204.55" font-weight="bold" fill="#DAA520">######</text><text x="193.23" y="204.55" font-weight="bold" fill="#008B8B">#</text><text x="8.4" y="223.55" font-weight="bold" fill="#008B8B"> </text><text x="8.4" y="223.55" font-weight="bold" fill="#008B8B">#</text><text x="16.8" y="223.55" font-weight="bold" fill="#DAA520">#######</text><text x="75.61" y="223.55" font-weight="bold" fill="#000000">#</text><text x="84.01" y="223.55" font-weight="bold" fill="#D3D3D3">#####</text><text x="126.02" y="223.55" font-weight="bold" fill="#000000">#</text><text x="134.42" y="223.55" font-weight="bold" fill="#DAA520">#######</text><text x="193.23" y="223.55" font-weight="bold" fill="#008B8B">#</text><text x="8.4" y="242.55" font-weight="bold" fill="#008B8B"> </text><text x="8.4" y="242.55" font-weight="bold" fill="#008B8B">#  </text><text x="33.61" y="242.55" font-weight="bold" fill="#DAA520">#####</text><text x="75.61" y="242.55" font-weight="bold" fill="#000000">#######</text><text x="134.42" y="242.55" font-weight="bold" fill="#DAA520">#####  </text><text x="193.23" y="242.55" font-weight="bold" fill="#008B8B">#</text><text x="8.4" y="261.55" font-weight="bold" fill="#008B8B"> </text><text x="8.4" y="261.55" font-weight="bold" fill="#008B8B">#######################</text><text x="8.4" y="280.55" font-weight="bold" fill="#008B8B"> </text><text x="8.4" y="280.55" font-weight="bold" fill="#008B8B">#</text><text x="16.8" y="280.55" font-weight="bold" fill="#B22222">&#x2554;&#x2550;&#x2557;&#x2554;&#x2557;&#x2554;&#x2566; &#x2566;&#x2554;&#x2550;&#x2557;&#x2566; &#x2566;&#x2554;&#x2550;&#x2557;&#x2554;&#x2550;&#x2557;</text><text x="193.23" y="280.55" font-weight="bold" fill="#008B8B">#</text><text x="8.4" y="299.55" font-weight="bold" fill="#008B8B"> </text><text x="8.4" y="299.55" font-weight="bold" fill="#008B8B">#</text><text x="16.8" y="299.55" font-weight="bold" fill="#B22222">&#x2560;&#x2550;&#x2563;&#x2551;&#x2551;&#x2551;&#x2551; &#x2551;&#x255A;&#x2550;&#x2557;&#x2560;&#x2550;&#x2563;&#x2551; &#x2551;&#x255A;&#x2550;&#x2557;</text><text x="193.23" y="299.55" font-weight="bold" fill="#008B8B">#</text><text x="8.4" y="318.55" font-weight="bold" fill="#008B8B"> </text><text x="8.4" y="318.55" font-weight="bold" fill="#008B8B">#</text><text x="16.8" y="318.55" font-weight="bold" fill="#B22222">&#x2569; &#x2569;&#x255D;&#x255A;&#x255D;&#x255A;&#x2550;&#x255D;&#x255A;&#x2550;&#x255D;&#x2569; &#x2569;&#x255A;&#x2550;&#x255D;&#x255A;&#x2550;&#x255D;</text><text x="193.23" y="318.55" font-weight="bold" fill="#008B8B">#</text><text x="8.4" y="337.55" font-weight="bold" fill="#008B8B"> </text><text x="8.4" y="337.55" font-weight="bold" fill="#008B8B">#######################</text><text x="8.4" y="356.55" font-weight="bold" fill="#008B8B"> </text><text x="8.4" y="356.55" font-weight="bold" fill="#008B8B">#   </text><text x="42.01" y="356.55" font-weight="bold" fill="#DAA520">WWW.ANUSHOS.ORG   </text><text x="193.23" y="356.55" font-weight="bold" fill="#008B8B">#</text><text x="8.4" y="375.55" font-weight="bold" fill="#008B8B"> </text><text x="8.4" y="375.55" font-weight="bold" fill="#008B8B">#######################</text></g></svg>