<svg xmlns="http://www.w3.org/2000/svg" viewBox="0, 0, 302.45, 649.45" font-family="SauceCodePro Nerd Font, Source Code Pro, Courier" font-size="14"><g fill="currentColor"><text x="159.63" y="14.55" font-weight="bold" fill="#008B8B">                   *</text><text x="151.22" y="33.55" font-weight="bold" fill="#008B8B">                  **.</text><text x="142.82" y="52.55" font-weight="bold" fill="#008B8B">                 ****</text><text x="134.42" y="71.55" font-weight="bold" fill="#008B8B">                ******</text><text x="134.42" y="90.55" font-weight="bold" fill="#008B8B">                *******</text><text x="117.62" y="109.55" font-weight="bold" fill="#008B8B">              ** *******</text><text x="109.22" y="128.55" font-weight="bold" fill="#008B8B">             **** *******</text><text x="100.82" y="147.55" font-weight="bold" fill="#008B8B">            </text><text x="100.82" y="147.55" font-weight="bold" fill="#008B8B">****</text><text x="134.42" y="147.55" font-weight="bold" fill="#000000">_____</text><text x="176.43" y="147.55" font-weight="bold" fill="#008B8B">***</text><text x="201.63" y="147.55" font-weight="bold" fill="#000000">/</text><text x="210.03" y="147.55" font-weight="bold" fill="#008B8B">*</text><text x="92.42" y="166.55" font-weight="bold" fill="#008B8B">           ***</text><text x="117.62" y="166.55" font-weight="bold" fill="#000000">/</text><text x="126.02" y="166.55" font-weight="bold" fill="#008B8B">*******</text><text x="184.83" y="166.55" font-weight="bold" fill="#000000">//</text><text x="201.63" y="166.55" font-weight="bold" fill="#008B8B">***</text><text x="84.01" y="185.55" font-weight="bold" fill="#008B8B">          **</text><text x="100.82" y="185.55" font-weight="bold" fill="#000000">/</text><text x="109.22" y="185.55" font-weight="bold" fill="#008B8B">********</text><text x="176.43" y="185.55" font-weight="bold" fill="#000000">///</text><text x="201.63" y="185.55" font-weight="bold" fill="#008B8B">*</text><text x="210.03" y="185.55" font-weight="bold" fill="#000000">/</text><text x="218.44" y="185.55" font-weight="bold" fill="#008B8B">**</text><text x="75.61" y="204.55" font-weight="bold" fill="#008B8B">         **</text><text x="92.42" y="204.55" font-weight="bold" fill="#000000">/</text><text x="100.82" y="204.55" font-weight="bold" fill="#008B8B">*******</text><text x="159.63" y="204.55" font-weight="bold" fill="#000000">////</text><text x="193.23" y="204.55" font-weight="bold" fill="#008B8B">***</text><text x="218.44" y="204.55" font-weight="bold" fill="#000000">/</text><text x="226.84" y="204.55" font-weight="bold" fill="#008B8B">**</text><text x="67.21" y="223.55" font-weight="bold" fill="#008B8B">        **</text><text x="84.01" y="223.55" font-weight="bold" fill="#000000">/</text><text x="92.42" y="223.55" font-weight="bold" fill="#008B8B">****</text><text x="126.02" y="223.55" font-weight="bold" fill="#000000">//////.,</text><text x="193.23" y="223.55" font-weight="bold" fill="#008B8B">****</text><text x="226.84" y="223.55" font-weight="bold" fill="#000000">/</text><text x="235.24" y="223.55" font-weight="bold" fill="#008B8B">**</text><text x="58.81" y="242.55" font-weight="bold" fill="#008B8B">       ***</text><text x="84.01" y="242.55" font-weight="bold" fill="#000000">/</text><text x="92.42" y="242.55" font-weight="bold" fill="#008B8B">*****</text><text x="134.42" y="242.55" font-weight="bold" fill="#000000">/////////</text><text x="210.03" y="242.55" font-weight="bold" fill="#008B8B">**</text><text x="226.84" y="242.55" font-weight="bold" fill="#000000">/</text><text x="235.24" y="242.55" font-weight="bold" fill="#008B8B">***</text><text x="50.41" y="261.55" font-weight="bold" fill="#008B8B">      ****</text><text x="84.01" y="261.55" font-weight="bold" fill="#000000">/</text><text x="92.42" y="261.55" font-weight="bold" fill="#008B8B">****    </text><text x="159.63" y="261.55" font-weight="bold" fill="#000000">/////</text><text x="201.63" y="261.55" font-weight="bold" fill="#008B8B">***</text><text x="226.84" y="261.55" font-weight="bold" fill="#000000">/</text><text x="235.24" y="261.55" font-weight="bold" fill="#008B8B">****</text><text x="42.01" y="280.55" font-weight="bold" fill="#008B8B">     ******</text><text x="92.42" y="280.55" font-weight="bold" fill="#000000">/</text><text x="100.82" y="280.55" font-weight="bold" fill="#008B8B">***  </text><text x="142.82" y="280.55" font-weight="bold" fill="#000000">////   </text><text x="201.63" y="280.55" font-weight="bold" fill="#008B8B">**</text><text x="218.44" y="280.55" font-weight="bold" fill="#000000">/</text><text x="226.84" y="280.55" font-weight="bold" fill="#008B8B">******</text><text x="33.61" y="299.55" font-weight="bold" fill="#008B8B">    ********</text><text x="100.82" y="299.55" font-weight="bold" fill="#000000">/</text><text x="109.22" y="299.55" font-weight="bold" fill="#008B8B">* </text><text x="126.02" y="299.55" font-weight="bold" fill="#000000">///      </text><text x="201.63" y="299.55" font-weight="bold" fill="#008B8B">*</text><text x="210.03" y="299.55" font-weight="bold" fill="#000000">/</text><text x="218.44" y="299.55" font-weight="bold" fill="#008B8B">********</text><text x="16.8" y="318.55" font-weight="bold" fill="#008B8B">  ,******     </text><text x="117.62" y="318.55" font-weight="bold" fill="#000000">// ______ /    </text><text x="243.64" y="318.55" font-weight="bold" fill="#008B8B">******,</text></g></svg>