<svg xmlns="http://www.w3.org/2000/svg" viewBox="0, 0, 352.86, 687.45" font-family="SauceCodePro Nerd Font, Source Code Pro, Courier" font-size="14"><g fill="currentColor"><text x="142.82" y="14.55" font-weight="bold" fill="#FFFF00">                 </text><text x="142.82" y="14.55" font-weight="bold" fill="#FFFF00">_wwM </text><text x="184.83" y="14.55" font-weight="bold" fill="#008B8B">_ww</text><text x="151.22" y="33.55" font-weight="bold" fill="#008B8B">                  </text><text x="151.22" y="33.55" font-weight="bold" fill="#FFFF00">MMM</text><text x="176.43" y="33.55" font-weight="bold" fill="#008B8B">MMMM</text><text x="159.63" y="52.55" font-weight="bold" fill="#008B8B">                   </text><text x="159.63" y="52.55" font-weight="bold" fill="#FFFF00">MM</text><text x="92.42" y="71.55" font-weight="bold" fill="#FFFF00">           </text><text x="92.42" y="71.55" font-weight="bold" fill="#B22222">_ww##############yy_</text><text x="84.01" y="90.55" font-weight="bold" fill="#B22222">          </text><text x="84.01" y="90.55" font-weight="bold" fill="#FF4500">wMMMMM</text><text x="134.42" y="90.55" font-weight="bold" fill="#B22222">###########</text><text x="226.84" y="90.55" font-weight="bold" fill="#FF4500">MMMMm</text><text x="67.21" y="109.55" font-weight="bold" fill="#FF4500">        </text><text x="67.21" y="109.55" font-weight="bold" fill="#FF4500">,MMMMMMMMM</text><text x="151.22" y="109.55" font-weight="bold" fill="#B22222">######</text><text x="201.63" y="109.55" font-weight="bold" fill="#FF4500">MMMMMMMM0_</text><text x="58.81" y="128.55" font-weight="bold" fill="#FF4500">       </text><text x="58.81" y="128.55" font-weight="bold" fill="#FF4500">wMMMMMMMMMMMMM</text><text x="176.43" y="128.55" font-weight="bold" fill="#D3D3D3">MM</text><text x="193.23" y="128.55" font-weight="bold" fill="#000000">0MMMMMMMMMMm</text><text x="42.01" y="147.55" font-weight="bold" fill="#000000">     </text><text x="42.01" y="147.55" font-weight="bold" fill="#FF4500">,MMMMMMMMMMMMMMM</text><text x="176.43" y="147.55" font-weight="bold" fill="#D3D3D3">MMMM</text><text x="210.03" y="147.55" font-weight="bold" fill="#000000">0MMMMMMMMM0,</text><text x="33.61" y="166.55" font-weight="bold" fill="#000000">    </text><text x="33.61" y="166.55" font-weight="bold" fill="#FF4500">wMMMMMMMMMMMMMMMM</text><text x="176.43" y="166.55" font-weight="bold" fill="#D3D3D3">MMMMM0</text><text x="226.84" y="166.55" font-weight="bold" fill="#000000">MMMMMMMMMMb</text><text x="16.8" y="185.55" font-weight="bold" fill="#000000">  </text><text x="16.8" y="185.55" font-weight="bold" fill="#FF4500">_MMMMMMMMMMMMMMMMMM</text><text x="176.43" y="185.55" font-weight="bold" fill="#D3D3D3">MMMMMMM0</text><text x="243.64" y="185.55" font-weight="bold" fill="#000000">MMMMMMMMM0,</text><text x="8.4" y="204.55" font-weight="bold" fill="#000000"> </text><text x="8.4" y="204.55" font-weight="bold" fill="#FF4500">_MMMMMMMMMMMMMMMMMMM</text><text x="176.43" y="204.55" font-weight="bold" fill="#D3D3D3">MMMM</text><text x="210.03" y="204.55" font-weight="bold" fill="#00FFFF">M</text><text x="218.44" y="204.55" font-weight="bold" fill="#D3D3D3">MMMW</text><text x="252.04" y="204.55" font-weight="bold" fill="#000000">MMMMMMMMMM_</text><text x="0" y="223.55" font-weight="bold" fill="#FF4500">_MMMMMMMMMMMMMMMMMMMM</text><text x="176.43" y="223.55" font-weight="bold" fill="#D3D3D3">MMMM</text><text x="210.03" y="223.55" font-weight="bold" fill="#00FFFF">M0</text><text x="226.84" y="223.55" font-weight="bold" fill="#D3D3D3">MMMW</text><text x="260.44" y="223.55" font-weight="bold" fill="#000000">MMMMMMMMMM_</text><text x="25.2" y="242.55" font-weight="bold" fill="#000000">   </text><text x="25.2" y="242.55" font-weight="bold" fill="#FF4500">~MMMMMMMMMMMMMMMMM</text><text x="176.43" y="242.55" font-weight="bold" fill="#D3D3D3">MMMM</text><text x="210.03" y="242.55" font-weight="bold" fill="#00FFFF">M</text><text x="218.44" y="242.55" font-weight="bold" fill="#D3D3D3">MMMW</text><text x="252.04" y="242.55" font-weight="bold" fill="#000000">MMMMM00~</text><text x="58.81" y="261.55" font-weight="bold" fill="#000000">       </text><text x="58.81" y="261.55" font-weight="bold" fill="#FF4500">~MMMMMMMMMMMMM</text><text x="176.43" y="261.55" font-weight="bold" fill="#D3D3D3">MMMWMMM</text><text x="235.24" y="261.55" font-weight="bold" fill="#000000">0MM</text><text x="260.44" y="261.55" font-weight="bold" fill="#D3D3D3">MMM</text><text x="285.65" y="261.55" font-weight="bold" fill="#000000">~</text><text x="84.01" y="280.55" font-weight="bold" fill="#000000">          </text><text x="84.01" y="280.55" font-weight="bold" fill="#FF4500">~MMMMMMMMMM</text><text x="176.43" y="280.55" font-weight="bold" fill="#D3D3D3">MMMMM</text><text x="218.44" y="280.55" font-weight="bold" fill="#000000">0MMM~~</text><text x="117.62" y="299.55" font-weight="bold" fill="#000000">              </text><text x="117.62" y="299.55" font-weight="bold" fill="#FF4500">~MMMMMM</text><text x="176.43" y="299.55" font-weight="bold" fill="#D3D3D3">MMM</text><text x="201.63" y="299.55" font-weight="bold" fill="#000000">0MM~</text><text x="151.22" y="318.55" font-weight="bold" fill="#000000">                  </text><text x="151.22" y="318.55" font-weight="bold" fill="#FF4500">~MM</text><text x="176.43" y="318.55" font-weight="bold" fill="#D3D3D3">M</text><text x="184.83" y="318.55" font-weight="bold" fill="#000000">@~</text><text x="168.03" y="337.55" font-weight="bold" fill="#000000">                    </text><text x="168.03" y="337.55" font-weight="bold" fill="#FF4500">M</text></g></svg>