<svg xmlns="http://www.w3.org/2000/svg" viewBox="0, 0, 319.25, 839.45" font-family="SauceCodePro Nerd Font, Source Code Pro, Courier" font-size="14"><g fill="currentColor"><text x="151.22" y="14.55" font-weight="bold" fill="#FF4500">                  AA</text><text x="142.82" y="33.55" font-weight="bold" fill="#FF4500">                 AaaA</text><text x="134.42" y="52.55" font-weight="bold" fill="#FF4500">                Aa</text><text x="151.22" y="52.55" font-weight="bold" fill="#D3D3D3">/\</text><text x="168.03" y="52.55" font-weight="bold" fill="#FF4500">aA</text><text x="126.02" y="71.55" font-weight="bold" fill="#FF4500">               Aa</text><text x="142.82" y="71.55" font-weight="bold" fill="#D3D3D3">/</text><text x="151.22" y="71.55" font-weight="bold" fill="#FF4500">aa</text><text x="168.03" y="71.55" font-weight="bold" fill="#D3D3D3">\</text><text x="176.43" y="71.55" font-weight="bold" fill="#FF4500">aA</text><text x="117.62" y="90.55" font-weight="bold" fill="#FF4500">              Aa</text><text x="134.42" y="90.55" font-weight="bold" fill="#D3D3D3">/</text><text x="142.82" y="90.55" font-weight="bold" fill="#FF4500">aAAa</text><text x="176.43" y="90.55" font-weight="bold" fill="#D3D3D3">\</text><text x="184.83" y="90.55" font-weight="bold" fill="#FF4500">aA</text><text x="109.22" y="109.55" font-weight="bold" fill="#FF4500">             aA</text><text x="126.02" y="109.55" font-weight="bold" fill="#D3D3D3">/</text><text x="134.42" y="109.55" font-weight="bold" fill="#FF4500">aaAAaa</text><text x="184.83" y="109.55" font-weight="bold" fill="#D3D3D3">\</text><text x="193.23" y="109.55" font-weight="bold" fill="#FF4500">Aa</text><text x="100.82" y="128.55" font-weight="bold" fill="#FF4500">            aA</text><text x="117.62" y="128.55" font-weight="bold" fill="#D3D3D3">/</text><text x="126.02" y="128.55" font-weight="bold" fill="#FF4500">aaAAAAaa</text><text x="193.23" y="128.55" font-weight="bold" fill="#D3D3D3">\</text><text x="201.63" y="128.55" font-weight="bold" fill="#FF4500">Aa</text><text x="16.8" y="147.55" font-weight="bold" fill="#FF4500">  aaaaaaAAAAa</text><text x="109.22" y="147.55" font-weight="bold" fill="#D3D3D3">/</text><text x="117.62" y="147.55" font-weight="bold" fill="#FF4500">aaAAAAAAaa</text><text x="201.63" y="147.55" font-weight="bold" fill="#D3D3D3">\</text><text x="210.03" y="147.55" font-weight="bold" fill="#FF4500">aAAAAaaaaa</text><text x="0" y="166.55" font-weight="bold" fill="#FF4500">aAAa</text><text x="33.61" y="166.55" font-weight="bold" fill="#D3D3D3">-----</text><text x="75.61" y="166.55" font-weight="bold" fill="#FF4500">aaaaaAAAAAAAAAAaaaaa</text><text x="243.64" y="166.55" font-weight="bold" fill="#D3D3D3">-----</text><text x="285.65" y="166.55" font-weight="bold" fill="#FF4500">aAAa</text><text x="16.8" y="185.55" font-weight="bold" fill="#FF4500">  aAA</text><text x="42.01" y="185.55" font-weight="bold" fill="#D3D3D3">\ </text><text x="58.81" y="185.55" font-weight="bold" fill="#FF4500">aAAAAAAAAAAAAAAAAAAAAAAa</text><text x="268.84" y="185.55" font-weight="bold" fill="#D3D3D3"> /</text><text x="277.25" y="185.55" font-weight="bold" fill="#FF4500">AAa</text><text x="33.61" y="204.55" font-weight="bold" fill="#FF4500">    aAa</text><text x="58.81" y="204.55" font-weight="bold" fill="#D3D3D3">\</text><text x="67.21" y="204.55" font-weight="bold" fill="#FF4500">aAAA</text><text x="100.82" y="204.55" font-weight="bold" fill="#D3D3D3">\</text><text x="109.22" y="204.55" font-weight="bold" fill="#FF4500">AAAA</text><text x="142.82" y="204.55" font-weight="bold" fill="#D3D3D3">\</text><text x="151.22" y="204.55" font-weight="bold" fill="#FF4500">AAAA</text><text x="184.83" y="204.55" font-weight="bold" fill="#D3D3D3">\</text><text x="193.23" y="204.55" font-weight="bold" fill="#FF4500">AAA</text><text x="218.44" y="204.55" font-weight="bold" fill="#D3D3D3">\</text><text x="226.84" y="204.55" font-weight="bold" fill="#FF4500">AAa</text><text x="252.04" y="204.55" font-weight="bold" fill="#D3D3D3">/</text><text x="260.44" y="204.55" font-weight="bold" fill="#FF4500">aAa</text><text x="50.41" y="223.55" font-weight="bold" fill="#FF4500">      aAa</text><text x="75.61" y="223.55" font-weight="bold" fill="#D3D3D3">\</text><text x="84.01" y="223.55" font-weight="bold" fill="#FF4500">aA</text><text x="100.82" y="223.55" font-weight="bold" fill="#D3D3D3">\\</text><text x="117.62" y="223.55" font-weight="bold" fill="#FF4500">AAA</text><text x="142.82" y="223.55" font-weight="bold" fill="#D3D3D3">\\</text><text x="159.63" y="223.55" font-weight="bold" fill="#FF4500">AAA</text><text x="184.83" y="223.55" font-weight="bold" fill="#D3D3D3">\\</text><text x="201.63" y="223.55" font-weight="bold" fill="#FF4500">AA</text><text x="218.44" y="223.55" font-weight="bold" fill="#D3D3D3">\\/</text><text x="243.64" y="223.55" font-weight="bold" fill="#FF4500">aAa</text><text x="58.81" y="242.55" font-weight="bold" fill="#FF4500">       aAA</text><text x="84.01" y="242.55" font-weight="bold" fill="#D3D3D3">\</text><text x="92.42" y="242.55" font-weight="bold" fill="#FF4500">aA</text><text x="109.22" y="242.55" font-weight="bold" fill="#D3D3D3">\\</text><text x="126.02" y="242.55" font-weight="bold" fill="#FF4500">AAA</text><text x="151.22" y="242.55" font-weight="bold" fill="#D3D3D3">\\</text><text x="168.03" y="242.55" font-weight="bold" fill="#FF4500">AAA</text><text x="193.23" y="242.55" font-weight="bold" fill="#D3D3D3">\\</text><text x="210.03" y="242.55" font-weight="bold" fill="#FF4500">Aa</text><text x="226.84" y="242.55" font-weight="bold" fill="#D3D3D3">/</text><text x="235.24" y="242.55" font-weight="bold" fill="#FF4500">AAa</text><text x="75.61" y="261.55" font-weight="bold" fill="#FF4500">         aA</text><text x="92.42" y="261.55" font-weight="bold" fill="#D3D3D3">\</text><text x="100.82" y="261.55" font-weight="bold" fill="#FF4500">aA</text><text x="117.62" y="261.55" font-weight="bold" fill="#D3D3D3">\\</text><text x="134.42" y="261.55" font-weight="bold" fill="#FF4500">AAA</text><text x="159.63" y="261.55" font-weight="bold" fill="#D3D3D3">\\</text><text x="176.43" y="261.55" font-weight="bold" fill="#FF4500">AAA</text><text x="201.63" y="261.55" font-weight="bold" fill="#D3D3D3">\\/</text><text x="226.84" y="261.55" font-weight="bold" fill="#FF4500">Aa</text><text x="75.61" y="280.55" font-weight="bold" fill="#FF4500">         aA</text><text x="92.42" y="280.55" font-weight="bold" fill="#D3D3D3">/</text><text x="100.82" y="280.55" font-weight="bold" fill="#FF4500">AA</text><text x="117.62" y="280.55" font-weight="bold" fill="#D3D3D3">\\\</text><text x="142.82" y="280.55" font-weight="bold" fill="#FF4500">AA</text><text x="159.63" y="280.55" font-weight="bold" fill="#D3D3D3">\\\</text><text x="184.83" y="280.55" font-weight="bold" fill="#FF4500">AA</text><text x="201.63" y="280.55" font-weight="bold" fill="#D3D3D3">\\\</text><text x="226.84" y="280.55" font-weight="bold" fill="#FF4500">Aa</text><text x="67.21" y="299.55" font-weight="bold" fill="#FF4500">        aA</text><text x="84.01" y="299.55" font-weight="bold" fill="#D3D3D3">/\</text><text x="100.82" y="299.55" font-weight="bold" fill="#FF4500">AAa</text><text x="126.02" y="299.55" font-weight="bold" fill="#D3D3D3">\\\</text><text x="151.22" y="299.55" font-weight="bold" fill="#FF4500">Aa</text><text x="168.03" y="299.55" font-weight="bold" fill="#D3D3D3">\\\</text><text x="193.23" y="299.55" font-weight="bold" fill="#FF4500">Aa</text><text x="210.03" y="299.55" font-weight="bold" fill="#D3D3D3">\\\</text><text x="235.24" y="299.55" font-weight="bold" fill="#FF4500">Aa</text><text x="67.21" y="318.55" font-weight="bold" fill="#FF4500">        aA</text><text x="84.01" y="318.55" font-weight="bold" fill="#D3D3D3">/\\</text><text x="109.22" y="318.55" font-weight="bold" fill="#FF4500">AAa</text><text x="134.42" y="318.55" font-weight="bold" fill="#D3D3D3">\\/\</text><text x="168.03" y="318.55" font-weight="bold" fill="#FF4500">a</text><text x="176.43" y="318.55" font-weight="bold" fill="#D3D3D3">\\\</text><text x="201.63" y="318.55" font-weight="bold" fill="#FF4500">Aa</text><text x="218.44" y="318.55" font-weight="bold" fill="#D3D3D3">\\</text><text x="235.24" y="318.55" font-weight="bold" fill="#FF4500">Aa</text><text x="58.81" y="337.55" font-weight="bold" fill="#FF4500">       aA</text><text x="75.61" y="337.55" font-weight="bold" fill="#D3D3D3">/</text><text x="84.01" y="337.55" font-weight="bold" fill="#FF4500">a</text><text x="92.42" y="337.55" font-weight="bold" fill="#D3D3D3">\\\</text><text x="117.62" y="337.55" font-weight="bold" fill="#FF4500">Aa</text><text x="134.42" y="337.55" font-weight="bold" fill="#D3D3D3">\/</text><text x="151.22" y="337.55" font-weight="bold" fill="#FF4500">AA</text><text x="168.03" y="337.55" font-weight="bold" fill="#D3D3D3">\\\\\</text><text x="210.03" y="337.55" font-weight="bold" fill="#FF4500">Aa</text><text x="226.84" y="337.55" font-weight="bold" fill="#D3D3D3">\\</text><text x="243.64" y="337.55" font-weight="bold" fill="#FF4500">Aa</text><text x="58.81" y="356.55" font-weight="bold" fill="#FF4500">       aA</text><text x="75.61" y="356.55" font-weight="bold" fill="#D3D3D3">/</text><text x="84.01" y="356.55" font-weight="bold" fill="#FF4500">aA</text><text x="100.82" y="356.55" font-weight="bold" fill="#D3D3D3">\\/</text><text x="126.02" y="356.55" font-weight="bold" fill="#FF4500">aAa  aAa</text><text x="193.23" y="356.55" font-weight="bold" fill="#D3D3D3">\\\</text><text x="218.44" y="356.55" font-weight="bold" fill="#FF4500">Aa</text><text x="235.24" y="356.55" font-weight="bold" fill="#D3D3D3">\</text><text x="243.64" y="356.55" font-weight="bold" fill="#FF4500">Aa</text><text x="50.41" y="375.55" font-weight="bold" fill="#FF4500">      aA</text><text x="67.21" y="375.55" font-weight="bold" fill="#D3D3D3">/\</text><text x="84.01" y="375.55" font-weight="bold" fill="#FF4500">A</text><text x="92.42" y="375.55" font-weight="bold" fill="#D3D3D3">\/</text><text x="109.22" y="375.55" font-weight="bold" fill="#FF4500">Aa        aA</text><text x="210.03" y="375.55" font-weight="bold" fill="#D3D3D3">\\</text><text x="226.84" y="375.55" font-weight="bold" fill="#FF4500">A</text><text x="235.24" y="375.55" font-weight="bold" fill="#D3D3D3">\\</text><text x="252.04" y="375.55" font-weight="bold" fill="#FF4500">Aa</text><text x="50.41" y="394.55" font-weight="bold" fill="#FF4500">      A</text><text x="58.81" y="394.55" font-weight="bold" fill="#D3D3D3">|/</text><text x="75.61" y="394.55" font-weight="bold" fill="#FF4500">aaAa            aAaa</text><text x="243.64" y="394.55" font-weight="bold" fill="#D3D3D3">\|</text><text x="260.44" y="394.55" font-weight="bold" fill="#FF4500">A</text><text x="42.01" y="413.55" font-weight="bold" fill="#FF4500">     aAaa                    aaAa</text></g></svg>