<svg xmlns="http://www.w3.org/2000/svg" viewBox="0, 0, 378.06, 1067.45" font-family="SauceCodePro Nerd Font, Source Code Pro, Courier" font-size="14"><g fill="currentColor"><text x="151.22" y="14.55" font-weight="bold" fill="#4169E1">                  +++++++++</text><text x="126.02" y="33.55" font-weight="bold" fill="#4169E1">               +++++</text><text x="168.03" y="33.55" font-weight="bold" fill="#D3D3D3">+</text><text x="176.43" y="33.55" font-weight="bold" fill="#4169E1">++++++</text><text x="226.84" y="33.55" font-weight="bold" fill="#D3D3D3">+</text><text x="235.24" y="33.55" font-weight="bold" fill="#4169E1">++</text><text x="92.42" y="52.55" font-weight="bold" fill="#4169E1">           ++++++</text><text x="142.82" y="52.55" font-weight="bold" fill="#D3D3D3">+</text><text x="151.22" y="52.55" font-weight="bold" fill="#4169E1">+++  +++++++++++</text><text x="58.81" y="71.55" font-weight="bold" fill="#4169E1">       +++++++++++     </text><text x="193.23" y="71.55" font-weight="bold" fill="#9932CC">+</text><text x="226.84" y="71.55" font-weight="bold" fill="#4169E1">   +++++</text><text x="268.84" y="71.55" font-weight="bold" fill="#D3D3D3">+</text><text x="277.25" y="71.55" font-weight="bold" fill="#4169E1">+++++</text><text x="33.61" y="90.55" font-weight="bold" fill="#4169E1">    ++++++</text><text x="84.01" y="90.55" font-weight="bold" fill="#D3D3D3">+</text><text x="92.42" y="90.55" font-weight="bold" fill="#4169E1">++++      </text><text x="176.43" y="90.55" font-weight="bold" fill="#D3D3D3">+++</text><text x="252.04" y="90.55" font-weight="bold" fill="#4169E1">      +++++++++++</text><text x="16.8" y="109.55" font-weight="bold" fill="#4169E1">  ++++++++++</text><text x="126.02" y="109.55" font-weight="bold" fill="#D3D3D3">   +    +++++  ++    </text><text x="277.25" y="109.55" font-weight="bold" fill="#9932CC">+++++</text><text x="319.25" y="109.55" font-weight="bold" fill="#D3D3D3">+</text><text x="327.65" y="109.55" font-weight="bold" fill="#9932CC">++++</text><text x="8.4" y="128.55" font-weight="bold" fill="#9932CC"> +++</text><text x="33.61" y="128.55" font-weight="bold" fill="#D3D3D3">+</text><text x="42.01" y="128.55" font-weight="bold" fill="#4169E1">++++</text><text x="84.01" y="128.55" font-weight="bold" fill="#D3D3D3"> + +  +   +++++++    +  +  </text><text x="302.45" y="128.55" font-weight="bold" fill="#9932CC">+++++</text><text x="344.46" y="128.55" font-weight="bold" fill="#D3D3D3">+</text><text x="352.86" y="128.55" font-weight="bold" fill="#9932CC">++</text><text x="0" y="147.55" font-weight="bold" fill="#9932CC">++++++</text><text x="67.21" y="147.55" font-weight="bold" fill="#D3D3D3">  </text><text x="67.21" y="147.55" font-weight="bold" fill="#9932CC">+</text><text x="92.42" y="147.55" font-weight="bold" fill="#D3D3D3">  +++    +++++++++     +++ </text><text x="302.45" y="147.55" font-weight="bold" fill="#9932CC">++++++++</text><text x="0" y="166.55" font-weight="bold" fill="#9932CC">+++</text><text x="25.2" y="166.55" font-weight="bold" fill="#D3D3D3">+</text><text x="33.61" y="166.55" font-weight="bold" fill="#4169E1">++</text><text x="100.82" y="166.55" font-weight="bold" fill="#D3D3D3">      +    +++++ +++++     +</text><text x="0" y="185.55" font-weight="bold" fill="#D3D3D3">++++++</text><text x="58.81" y="185.55" font-weight="bold" fill="#D3D3D3"> </text><text x="58.81" y="185.55" font-weight="bold" fill="#9932CC">+</text><text x="134.42" y="185.55" font-weight="bold" fill="#D3D3D3">        +++++   +++++           +++++</text><text x="0" y="204.55" font-weight="bold" fill="#D3D3D3">++</text><text x="16.8" y="204.55" font-weight="bold" fill="#D3D3D3">+</text><text x="25.2" y="204.55" font-weight="bold" fill="#9932CC">+++</text><text x="75.61" y="204.55" font-weight="bold" fill="#D3D3D3">   +     +++++     ++++++    ++++++++++</text><text x="0" y="223.55" font-weight="bold" fill="#D3D3D3">++++++</text><text x="58.81" y="223.55" font-weight="bold" fill="#D3D3D3"> +++++  +++++   +   +++++++++++++++++++</text><text x="0" y="242.55" font-weight="bold" fill="#D3D3D3">++++++</text><text x="75.61" y="242.55" font-weight="bold" fill="#D3D3D3">   +   +++++   +   +++++++++++++++</text><text x="0" y="261.55" font-weight="bold" fill="#D3D3D3">+++</text><text x="25.2" y="261.55" font-weight="bold" fill="#D3D3D3">++</text><text x="42.01" y="261.55" font-weight="bold" fill="#9932CC">+</text><text x="100.82" y="261.55" font-weight="bold" fill="#D3D3D3">      ++++++    +++++++++++++</text><text x="0" y="280.55" font-weight="bold" fill="#D3D3D3">++++++</text><text x="67.21" y="280.55" font-weight="bold" fill="#D3D3D3">  +  ++++++ +++++++++++++ </text><text x="268.84" y="280.55" font-weight="bold" fill="#9932CC">+++  </text><text x="310.85" y="280.55" font-weight="bold" fill="#D3D3D3">++</text><text x="0" y="299.55" font-weight="bold" fill="#D3D3D3">++++++</text><text x="84.01" y="299.55" font-weight="bold" fill="#D3D3D3">    ++++++++++++++++      </text><text x="268.84" y="299.55" font-weight="bold" fill="#9932CC">++</text><text x="285.65" y="299.55" font-weight="bold" fill="#D3D3D3">+</text><text x="294.05" y="299.55" font-weight="bold" fill="#9932CC">+  </text><text x="319.25" y="299.55" font-weight="bold" fill="#D3D3D3">++  </text><text x="352.86" y="299.55" font-weight="bold" fill="#4169E1">+</text><text x="0" y="318.55" font-weight="bold" fill="#4169E1">++++++</text><text x="75.61" y="318.55" font-weight="bold" fill="#D3D3D3">   ++++++++++++++     </text><text x="235.24" y="318.55" font-weight="bold" fill="#B22222">+    </text><text x="277.25" y="318.55" font-weight="bold" fill="#9932CC">++++</text><text x="0" y="337.55" font-weight="bold" fill="#9932CC">++++++</text><text x="67.21" y="337.55" font-weight="bold" fill="#D3D3D3">  +++++++++++    +      </text><text x="252.04" y="337.55" font-weight="bold" fill="#D3D3D3">+        </text><text x="327.65" y="337.55" font-weight="bold" fill="#B22222">++++++</text><text x="0" y="356.55" font-weight="bold" fill="#B22222">++</text><text x="16.8" y="356.55" font-weight="bold" fill="#D3D3D3">+</text><text x="25.2" y="356.55" font-weight="bold" fill="#B22222">+++</text><text x="58.81" y="356.55" font-weight="bold" fill="#D3D3D3"> ++++++++++     +++       </text><text x="268.84" y="356.55" font-weight="bold" fill="#B22222">+++++++++++++</text><text x="0" y="375.55" font-weight="bold" fill="#B22222">+++++ </text><text x="50.41" y="375.55" font-weight="bold" fill="#D3D3D3">+++++++++        +   </text><text x="226.84" y="375.55" font-weight="bold" fill="#B22222">+++++++++++++</text><text x="8.4" y="394.55" font-weight="bold" fill="#B22222"> +++ </text><text x="42.01" y="394.55" font-weight="bold" fill="#D3D3D3">++++++++ </text><text x="117.62" y="394.55" font-weight="bold" fill="#9932CC">++</text><text x="159.63" y="394.55" font-weight="bold" fill="#D3D3D3">   +   </text><text x="193.23" y="394.55" font-weight="bold" fill="#B22222">++++++++++++++   ++++</text><text x="8.4" y="413.55" font-weight="bold" fill="#B22222"> ++ </text><text x="33.61" y="413.55" font-weight="bold" fill="#D3D3D3">++++++++    </text><text x="134.42" y="413.55" font-weight="bold" fill="#B22222">+  ++++++++++++++   +++++++</text><text x="33.61" y="432.55" font-weight="bold" fill="#B22222">    </text><text x="33.61" y="432.55" font-weight="bold" fill="#D3D3D3">++++++   </text><text x="109.22" y="432.55" font-weight="bold" fill="#9932CC">+   </text><text x="142.82" y="432.55" font-weight="bold" fill="#B22222">+++++++++++++   +++++++</text><text x="336.05" y="432.55" font-weight="bold" fill="#9932CC">++</text><text x="50.41" y="451.55" font-weight="bold" fill="#9932CC">      </text><text x="50.41" y="451.55" font-weight="bold" fill="#D3D3D3">++++    </text><text x="117.62" y="451.55" font-weight="bold" fill="#B22222">+++++++++++++   ++++++</text><text x="302.45" y="451.55" font-weight="bold" fill="#9932CC">+++</text><text x="100.82" y="470.55" font-weight="bold" fill="#9932CC">            +++++++++++   ++++++</text><text x="268.84" y="470.55" font-weight="bold" fill="#9932CC">+++</text><text x="117.62" y="489.55" font-weight="bold" fill="#9932CC">              +++++    ++++++</text><text x="243.64" y="489.55" font-weight="bold" fill="#9932CC">+++</text><text x="168.03" y="508.55" font-weight="bold" fill="#9932CC">                    ++++++</text><text x="218.44" y="508.55" font-weight="bold" fill="#9932CC">++</text><text x="168.03" y="527.55" font-weight="bold" fill="#9932CC">                    +++++</text></g></svg>