<svg xmlns="http://www.w3.org/2000/svg" viewBox="0, 0, 436.87, 1029.45" font-family="SauceCodePro Nerd Font, Source Code Pro, Courier" font-size="14"><g fill="currentColor"><text x="210.03" y="14.55" font-weight="bold">                         ..</text><text x="201.63" y="33.55" font-weight="bold">                        &#x27;::,.....</text><text x="201.63" y="52.55" font-weight="bold">                        .,;:llll;. </text><text x="336.05" y="52.55" font-weight="bold">     ...</text><text x="176.43" y="71.55" font-weight="bold">                     </text><text x="176.43" y="71.55" font-weight="bold">...... </text><text x="235.24" y="71.55" font-weight="bold">&#x27;&#x27;&#x27;&#x27;.</text><text x="336.05" y="71.55" font-weight="bold">       &#x27;:::;.</text><text x="134.42" y="90.55" font-weight="bold">                </text><text x="142.82" y="90.55" font-weight="bold"> ..,::lll::;,..</text><text x="361.26" y="90.55" font-weight="bold">            ::::;.</text><text x="126.02" y="109.55" font-weight="bold">               </text><text x="134.42" y="109.55" font-weight="bold"> &#x27;:llllllllllll:&#x27; </text><text x="369.66" y="109.55" font-weight="bold">           ;:::;</text><text x="109.22" y="128.55" font-weight="bold">             </text><text x="117.62" y="128.55" font-weight="bold"> .;llllllllllllllll&#x27;  </text><text x="378.06" y="128.55" font-weight="bold">          ;::;.</text><text x="33.61" y="147.55" font-weight="bold">    .... </text><text x="109.22" y="147.55" font-weight="bold">    .;lllllllllllllllll:. </text><text x="394.86" y="147.55" font-weight="bold">            ;::;.</text><text x="16.8" y="166.55" font-weight="bold">  .;::::,  </text><text x="109.22" y="166.55" font-weight="bold">  ,lllllllllllllllllll.  </text><text x="411.67" y="166.55" font-weight="bold">             .</text><text x="16.8" y="185.55" font-weight="bold">  .::::::.</text><text x="100.82" y="185.55" font-weight="bold">  .lllllllllllllllllll:.</text><text x="16.8" y="204.55" font-weight="bold">  .::::::. </text><text x="100.82" y="204.55" font-weight="bold"> ,lllllllllllllllllll:.</text><text x="352.86" y="204.55" font-weight="bold">        ......</text><text x="16.8" y="223.55" font-weight="bold">  .;:::::&#x27;</text><text x="92.42" y="223.55" font-weight="bold"> .;lllllllllllllllllll,</text><text x="336.05" y="223.55" font-weight="bold">       .,::::::,.</text><text x="25.2" y="242.55" font-weight="bold">   .;::::;.</text><text x="92.42" y="242.55" font-weight="bold">.:lllllllllllllllllll.</text><text x="327.65" y="242.55" font-weight="bold">      .,::::::::;.</text><text x="42.01" y="261.55" font-weight="bold">     .,;::;</text><text x="92.42" y="261.55" font-weight="bold">;lllllllllllllllllll;</text><text x="327.65" y="261.55" font-weight="bold">       .:::::::::;.</text><text x="67.21" y="280.55" font-weight="bold">        ...</text><text x="92.42" y="280.55" font-weight="bold">,lllllllllllllllllll.</text><text x="327.65" y="280.55" font-weight="bold">       &#x27;:::::::::,.</text><text x="92.42" y="299.55" font-weight="bold">           .:lllllllllllllllll, </text><text x="319.25" y="299.55" font-weight="bold">      .;::::::::;.</text><text x="92.42" y="318.55" font-weight="bold">           .:llllllllllllllll:.</text><text x="310.85" y="318.55" font-weight="bold">      .;::::::::,.</text><text x="100.82" y="337.55" font-weight="bold">            ,llllllllllllllll&#x27;</text><text x="294.05" y="337.55" font-weight="bold">     .&#x27;;:::::::;.</text><text x="8.4" y="356.55" font-weight="bold"> ...      </text><text x="100.82" y="356.55" font-weight="bold">  .llllllllllllllll;</text><text x="252.04" y="356.55" font-weight="bold">,,,,;:::::::;,.</text><text x="0" y="375.55" font-weight="bold">.:l:.    </text><text x="109.22" y="375.55" font-weight="bold">    ,llllllllllllll;</text><text x="243.64" y="375.55" font-weight="bold">,,:::::::;,&#x27;..</text><text x="0" y="394.55" font-weight="bold">.;::,    </text><text x="109.22" y="394.55" font-weight="bold">    .;lllllllllllll,</text><text x="252.04" y="394.55" font-weight="bold"> &#x27;&#x27;&#x27;&#x27;&#x27;&#x27;&#x27;&#x27;&#x27;&#x27;&#x27;</text><text x="8.4" y="413.55" font-weight="bold"> .:::.     </text><text x="126.02" y="413.55" font-weight="bold">    &#x27;:lllllllllll:.</text><text x="16.8" y="432.55" font-weight="bold">  .;::&#x27;        </text><text x="134.42" y="432.55" font-weight="bold"> .,:llllllllll,</text><text x="25.2" y="451.55" font-weight="bold">   .,::;.      </text><text x="151.22" y="451.55" font-weight="bold">   .&#x27;;lllllllll&#x27;</text><text x="42.01" y="470.55" font-weight="bold">     .,::;&#x27;..   </text><text x="176.43" y="470.55" font-weight="bold">     .&#x27;;lllllll,.</text><text x="58.81" y="489.55" font-weight="bold">       ..,;::;,.  </text><text x="201.63" y="489.55" font-weight="bold">      ...,;lll:.</text><text x="84.01" y="508.55" font-weight="bold">          ...&#x27;&#x27;.  </text><text x="243.64" y="508.55" font-weight="bold">           ..&#x27;,;&#x27;.</text></g></svg>