<svg xmlns="http://www.w3.org/2000/svg" viewBox="0, 0, 201.63, 687.45" font-family="SauceCodePro Nerd Font, Source Code Pro, Courier" font-size="14"><g fill="currentColor"><text x="75.61" y="14.55" font-weight="bold" fill="#4169E1">         </text><text x="75.61" y="14.55" font-weight="bold" fill="#4169E1">odddd</text><text x="50.41" y="33.55" font-weight="bold" fill="#4169E1">      oddxkkkxxdoo</text><text x="42.01" y="52.55" font-weight="bold" fill="#4169E1">     ddcoddxxxdoool</text><text x="42.01" y="71.55" font-weight="bold" fill="#4169E1">     xdclodod  olol</text><text x="42.01" y="90.55" font-weight="bold" fill="#4169E1">     xoc  xdd  olol</text><text x="42.01" y="109.55" font-weight="bold" fill="#4169E1">     xdc  </text><text x="84.01" y="109.55" font-weight="bold" fill="#9932CC">k00</text><text x="109.22" y="109.55" font-weight="bold" fill="#4169E1">Okdlol</text><text x="42.01" y="128.55" font-weight="bold" fill="#4169E1">     xxd</text><text x="67.21" y="128.55" font-weight="bold" fill="#9932CC">kOKKKOkd</text><text x="134.42" y="128.55" font-weight="bold" fill="#4169E1">ldd</text><text x="42.01" y="147.55" font-weight="bold" fill="#4169E1">     xdco</text><text x="75.61" y="147.55" font-weight="bold" fill="#9932CC">xOkdlo</text><text x="126.02" y="147.55" font-weight="bold" fill="#4169E1">dldd</text><text x="42.01" y="166.55" font-weight="bold" fill="#4169E1">     ddc:cl</text><text x="92.42" y="166.55" font-weight="bold" fill="#9932CC">lll</text><text x="117.62" y="166.55" font-weight="bold" fill="#4169E1">oooodo</text><text x="25.2" y="185.55" font-weight="bold" fill="#4169E1">   odxxdd</text><text x="75.61" y="185.55" font-weight="bold" fill="#D3D3D3">xkO000kx</text><text x="142.82" y="185.55" font-weight="bold" fill="#4169E1">ooxdo</text><text x="16.8" y="204.55" font-weight="bold" fill="#4169E1">  oxddx</text><text x="58.81" y="204.55" font-weight="bold" fill="#D3D3D3">0NMMMMMMWW0o</text><text x="159.63" y="204.55" font-weight="bold" fill="#4169E1">dkkxo</text><text x="8.4" y="223.55" font-weight="bold" fill="#4169E1"> oooxd</text><text x="50.41" y="223.55" font-weight="bold" fill="#D3D3D3">0WMMMMMMMMMW0o</text><text x="168.03" y="223.55" font-weight="bold" fill="#4169E1">dxkx</text><text x="0" y="242.55" font-weight="bold" fill="#4169E1">docldkXW</text><text x="67.21" y="242.55" font-weight="bold" fill="#D3D3D3">MMMMMMMWWN</text><text x="151.22" y="242.55" font-weight="bold" fill="#4169E1">Odolco</text><text x="0" y="261.55" font-weight="bold" fill="#4169E1">xx</text><text x="16.8" y="261.55" font-weight="bold" fill="#9932CC">dx</text><text x="33.61" y="261.55" font-weight="bold" fill="#4169E1">kxxOKN</text><text x="84.01" y="261.55" font-weight="bold" fill="#D3D3D3">WMMWN</text><text x="126.02" y="261.55" font-weight="bold" fill="#4169E1">0xdoxo::c</text><text x="0" y="280.55" font-weight="bold" fill="#9932CC">xOkkO</text><text x="42.01" y="280.55" font-weight="bold" fill="#4169E1">0oo</text><text x="67.21" y="280.55" font-weight="bold" fill="#D3D3D3">odOW</text><text x="100.82" y="280.55" font-weight="bold" fill="#9932CC">WW</text><text x="117.62" y="280.55" font-weight="bold" fill="#4169E1">XkdodOxc:l</text><text x="0" y="299.55" font-weight="bold" fill="#9932CC">dkkkxkkk</text><text x="67.21" y="299.55" font-weight="bold" fill="#D3D3D3">OKX</text><text x="92.42" y="299.55" font-weight="bold" fill="#9932CC">NNNX0Oxx</text><text x="159.63" y="299.55" font-weight="bold" fill="#4169E1">xc:cd</text><text x="8.4" y="318.55" font-weight="bold" fill="#4169E1"> </text><text x="8.4" y="318.55" font-weight="bold" fill="#9932CC">odxxdx</text><text x="58.81" y="318.55" font-weight="bold" fill="#D3D3D3">xllo</text><text x="92.42" y="318.55" font-weight="bold" fill="#9932CC">dddooxx</text><text x="151.22" y="318.55" font-weight="bold" fill="#4169E1">dc:ldo</text><text x="25.2" y="337.55" font-weight="bold" fill="#4169E1">   </text><text x="25.2" y="337.55" font-weight="bold" fill="#9932CC">lodd</text><text x="58.81" y="337.55" font-weight="bold" fill="#4169E1">dolccc</text><text x="109.22" y="337.55" font-weight="bold" fill="#9932CC">ccox</text><text x="142.82" y="337.55" font-weight="bold" fill="#4169E1">xoloo</text></g></svg>