<svg xmlns="http://www.w3.org/2000/svg" viewBox="0, 0, 344.46, 649.45" font-family="SauceCodePro Nerd Font, Source Code Pro, Courier" font-size="14"><g fill="currentColor"><text x="109.22" y="14.55" font-weight="bold" fill="#D3D3D3">             *@</text><text x="126.02" y="14.55" font-weight="bold" fill="#00FFFF">,,&#x26;(%%%..%*.</text><text x="75.61" y="33.55" font-weight="bold" fill="#00FFFF">         </text><text x="75.61" y="33.55" font-weight="bold" fill="#D3D3D3">(@</text><text x="92.42" y="33.55" font-weight="bold" fill="#00FFFF">&#x26;%/##############((/</text><text x="260.44" y="33.55" font-weight="bold" fill="#D3D3D3">*,</text><text x="50.41" y="52.55" font-weight="bold" fill="#D3D3D3">      </text><text x="50.41" y="52.55" font-weight="bold" fill="#00FFFF">@</text><text x="58.81" y="52.55" font-weight="bold" fill="#D3D3D3">@&#x26;</text><text x="75.61" y="52.55" font-weight="bold" fill="#00FFFF">#########</text><text x="151.22" y="52.55" font-weight="bold" fill="#D3D3D3">*..../</text><text x="201.63" y="52.55" font-weight="bold" fill="#00FFFF">########%</text><text x="277.25" y="52.55" font-weight="bold" fill="#D3D3D3">*..</text><text x="33.61" y="71.55" font-weight="bold" fill="#D3D3D3">    </text><text x="33.61" y="71.55" font-weight="bold" fill="#00FFFF">@</text><text x="42.01" y="71.55" font-weight="bold" fill="#D3D3D3">&#x26;</text><text x="50.41" y="71.55" font-weight="bold" fill="#00FFFF">#%%%%%.              </text><text x="226.84" y="71.55" font-weight="bold" fill="#008B8B">,.</text><text x="243.64" y="71.55" font-weight="bold" fill="#D3D3D3">,</text><text x="252.04" y="71.55" font-weight="bold" fill="#00FFFF">%%%%%%.</text><text x="16.8" y="90.55" font-weight="bold" fill="#00FFFF">  /%</text><text x="33.61" y="90.55" font-weight="bold" fill="#00FFFF">(%%%%.                      </text><text x="268.84" y="90.55" font-weight="bold" fill="#D3D3D3">(</text><text x="277.25" y="90.55" font-weight="bold" fill="#00FFFF">%%%%#.</text><text x="8.4" y="109.55" font-weight="bold" fill="#00FFFF"> /</text><text x="16.8" y="109.55" font-weight="bold" fill="#D3D3D3">*</text><text x="25.2" y="109.55" font-weight="bold" fill="#00FFFF">%%##,.                       .,%%###,</text><text x="8.4" y="128.55" font-weight="bold" fill="#00FFFF"> ,####.   ,</text><text x="92.42" y="128.55" font-weight="bold" fill="#D3D3D3">*</text><text x="100.82" y="128.55" font-weight="bold" fill="#00FFFF">#%</text><text x="117.62" y="128.55" font-weight="bold" fill="#D3D3D3">#</text><text x="126.02" y="128.55" font-weight="bold" fill="#008B8B">/,(/               </text><text x="285.65" y="128.55" font-weight="bold" fill="#00FFFF">/</text><text x="294.05" y="128.55" font-weight="bold" fill="#D3D3D3">#</text><text x="302.45" y="128.55" font-weight="bold" fill="#00FFFF">###,</text><text x="0" y="147.55" font-weight="bold" fill="#00FFFF">((###/   ,,##########</text><text x="176.43" y="147.55" font-weight="bold" fill="#D3D3D3">(</text><text x="184.83" y="147.55" font-weight="bold" fill="#008B8B">/(#          </text><text x="294.05" y="147.55" font-weight="bold" fill="#00FFFF">%####,</text><text x="0" y="166.55" font-weight="bold" fill="#00FFFF">%#(((</text><text x="42.01" y="166.55" font-weight="bold" fill="#D3D3D3">.   .</text><text x="84.01" y="166.55" font-weight="bold" fill="#D3D3D3">./</text><text x="100.82" y="166.55" font-weight="bold" fill="#00FFFF">((((((((((((((</text><text x="218.44" y="166.55" font-weight="bold" fill="#D3D3D3">(</text><text x="226.84" y="166.55" font-weight="bold" fill="#00FFFF">#/</text><text x="243.64" y="166.55" font-weight="bold" fill="#008B8B">*..   </text><text x="294.05" y="166.55" font-weight="bold" fill="#008B8B">*.</text><text x="310.85" y="166.55" font-weight="bold" fill="#00FFFF">(((</text><text x="336.05" y="166.55" font-weight="bold" fill="#D3D3D3">/</text><text x="0" y="185.55" font-weight="bold" fill="#00FFFF">%#///</text><text x="42.01" y="185.55" font-weight="bold" fill="#D3D3D3">.        </text><text x="117.62" y="185.55" font-weight="bold" fill="#008B8B">***</text><text x="142.82" y="185.55" font-weight="bold" fill="#00FFFF">.*/////////////</text><text x="0" y="204.55" font-weight="bold" fill="#008B8B">#</text><text x="8.4" y="204.55" font-weight="bold" fill="#00FFFF">#////*              </text><text x="176.43" y="204.55" font-weight="bold" fill="#008B8B">***</text><text x="201.63" y="204.55" font-weight="bold" fill="#00FFFF">.*/////.</text><text x="8.4" y="223.55" font-weight="bold" fill="#00FFFF"> </text><text x="8.4" y="223.55" font-weight="bold" fill="#008B8B">(</text><text x="16.8" y="223.55" font-weight="bold" fill="#00FFFF">(*****                   </text><text x="226.84" y="223.55" font-weight="bold" fill="#008B8B">***</text><text x="16.8" y="242.55" font-weight="bold" fill="#008B8B">  </text><text x="16.8" y="242.55" font-weight="bold" fill="#00FFFF">,*****..</text><text x="25.2" y="261.55" font-weight="bold" fill="#00FFFF">   ..</text><text x="42.01" y="261.55" font-weight="bold" fill="#D3D3D3">*</text><text x="50.41" y="261.55" font-weight="bold" fill="#00FFFF">*****..                 *</text><text x="260.44" y="261.55" font-weight="bold" fill="#D3D3D3">%</text><text x="268.84" y="261.55" font-weight="bold" fill="#00FFFF">/****.</text><text x="42.01" y="280.55" font-weight="bold" fill="#00FFFF">     .,,*******,</text><text x="134.42" y="280.55" font-weight="bold" fill="#008B8B">,,../##(</text><text x="201.63" y="280.55" font-weight="bold" fill="#00FFFF">%&#x26;</text><text x="218.44" y="280.55" font-weight="bold" fill="#D3D3D3">&#x26;</text><text x="226.84" y="280.55" font-weight="bold" fill="#00FFFF">#******</text><text x="285.65" y="280.55" font-weight="bold" fill="#D3D3D3">,</text><text x="294.05" y="280.55" font-weight="bold" fill="#00FFFF">.</text><text x="67.21" y="299.55" font-weight="bold" fill="#00FFFF">        ,*</text><text x="84.01" y="299.55" font-weight="bold" fill="#D3D3D3">,</text><text x="92.42" y="299.55" font-weight="bold" fill="#00FFFF">,,,,,,,,,,,,,,,,,,,</text><text x="252.04" y="299.55" font-weight="bold" fill="#D3D3D3">,</text><text x="260.44" y="299.55" font-weight="bold" fill="#00FFFF">..</text><text x="100.82" y="318.55" font-weight="bold" fill="#00FFFF">            *//</text><text x="126.02" y="318.55" font-weight="bold" fill="#D3D3D3">/,,</text><text x="151.22" y="318.55" font-weight="bold" fill="#00FFFF">,,,,,,,</text><text x="210.03" y="318.55" font-weight="bold" fill="#D3D3D3">,..</text></g></svg>