<svg xmlns="http://www.w3.org/2000/svg" viewBox="0, 0, 294.05, 649.45" font-family="SauceCodePro Nerd Font, Source Code Pro, Courier" font-size="14"><g fill="currentColor"><text x="33.61" y="14.55" font-weight="bold" fill="#4169E1">    .;ooooooooooooooooooooooooooo.</text><text x="16.8" y="33.55" font-weight="bold" fill="#4169E1">  ,dddddddddddddddddddddddddddddd&#x27;</text><text x="285.65" y="33.55" font-weight="bold" fill="#008B8B">;</text><text x="8.4" y="52.55" font-weight="bold" fill="#4169E1"> lddddddddddddddddddddddddddddd&#x27;</text><text x="268.84" y="52.55" font-weight="bold" fill="#008B8B">;;;</text><text x="0" y="71.55" font-weight="bold" fill="#4169E1">ddddd</text><text x="42.01" y="71.55" font-weight="bold" fill="#D3D3D3">,XXX.</text><text x="84.01" y="71.55" font-weight="bold" fill="#4169E1">ddddd</text><text x="126.02" y="71.55" font-weight="bold" fill="#D3D3D3">,XXX.</text><text x="168.03" y="71.55" font-weight="bold" fill="#4169E1">dddd&#x27;</text><text x="210.03" y="71.55" font-weight="bold" fill="#D3D3D3">,XXX.</text><text x="252.04" y="71.55" font-weight="bold" fill="#008B8B">;;;;;</text><text x="0" y="90.55" font-weight="bold" fill="#4169E1">ddddd</text><text x="42.01" y="90.55" font-weight="bold" fill="#D3D3D3">XX</text><text x="58.81" y="90.55" font-weight="bold" fill="#4169E1">x</text><text x="67.21" y="90.55" font-weight="bold" fill="#D3D3D3">XX</text><text x="84.01" y="90.55" font-weight="bold" fill="#4169E1">ddddd</text><text x="126.02" y="90.55" font-weight="bold" fill="#D3D3D3">XX</text><text x="142.82" y="90.55" font-weight="bold" fill="#4169E1">x</text><text x="151.22" y="90.55" font-weight="bold" fill="#D3D3D3">XX</text><text x="168.03" y="90.55" font-weight="bold" fill="#4169E1">ddd&#x27;</text><text x="201.63" y="90.55" font-weight="bold" fill="#D3D3D3">,XX</text><text x="226.84" y="90.55" font-weight="bold" fill="#008B8B">x</text><text x="235.24" y="90.55" font-weight="bold" fill="#D3D3D3">XX</text><text x="252.04" y="90.55" font-weight="bold" fill="#008B8B">;;;;;</text><text x="0" y="109.55" font-weight="bold" fill="#4169E1">ddddd</text><text x="42.01" y="109.55" font-weight="bold" fill="#D3D3D3">&#x27;XXX&#x27;</text><text x="84.01" y="109.55" font-weight="bold" fill="#4169E1">ddddd</text><text x="126.02" y="109.55" font-weight="bold" fill="#D3D3D3">&#x27;XXX&#x27;</text><text x="168.03" y="109.55" font-weight="bold" fill="#4169E1">dd&#x27;</text><text x="193.23" y="109.55" font-weight="bold" fill="#D3D3D3">XXXXXX&#x27;</text><text x="252.04" y="109.55" font-weight="bold" fill="#008B8B">;;;;;</text><text x="0" y="128.55" font-weight="bold" fill="#4169E1">dddddd</text><text x="50.41" y="128.55" font-weight="bold" fill="#D3D3D3">;X;</text><text x="75.61" y="128.55" font-weight="bold" fill="#4169E1">ddddddd</text><text x="134.42" y="128.55" font-weight="bold" fill="#D3D3D3">;X:</text><text x="159.63" y="128.55" font-weight="bold" fill="#4169E1">d&#x27;</text><text x="176.43" y="128.55" font-weight="bold" fill="#D3D3D3">XXX</text><text x="201.63" y="128.55" font-weight="bold" fill="#008B8B">;;;;;;;;;;;</text><text x="0" y="147.55" font-weight="bold" fill="#4169E1">dddddd</text><text x="50.41" y="147.55" font-weight="bold" fill="#D3D3D3">;X;</text><text x="75.61" y="147.55" font-weight="bold" fill="#4169E1">ddddddd</text><text x="134.42" y="147.55" font-weight="bold" fill="#D3D3D3">;X:</text><text x="159.63" y="147.55" font-weight="bold" fill="#D3D3D3">XXX</text><text x="184.83" y="147.55" font-weight="bold" fill="#008B8B">;;;;;;;;;;;;;</text><text x="0" y="166.55" font-weight="bold" fill="#4169E1">dddddd</text><text x="50.41" y="166.55" font-weight="bold" fill="#D3D3D3">;X;</text><text x="75.61" y="166.55" font-weight="bold" fill="#4169E1">dddddd&#x27;</text><text x="134.42" y="166.55" font-weight="bold" fill="#D3D3D3">;XXX,,,,,,XXX.</text><text x="252.04" y="166.55" font-weight="bold" fill="#008B8B">;;;;;</text><text x="0" y="185.55" font-weight="bold" fill="#4169E1">dddddd</text><text x="50.41" y="185.55" font-weight="bold" fill="#D3D3D3">;X;</text><text x="75.61" y="185.55" font-weight="bold" fill="#4169E1">dddd&#x27;</text><text x="117.62" y="185.55" font-weight="bold" fill="#D3D3D3">XXXX</text><text x="151.22" y="185.55" font-weight="bold" fill="#D3D3D3">XXXXXXXXX</text><text x="226.84" y="185.55" font-weight="bold" fill="#008B8B">x</text><text x="235.24" y="185.55" font-weight="bold" fill="#D3D3D3">XX</text><text x="252.04" y="185.55" font-weight="bold" fill="#008B8B">;;;;;</text><text x="0" y="204.55" font-weight="bold" fill="#4169E1">dddddd</text><text x="50.41" y="204.55" font-weight="bold" fill="#D3D3D3">;X;</text><text x="75.61" y="204.55" font-weight="bold" fill="#4169E1">dd&#x27;</text><text x="100.82" y="204.55" font-weight="bold" fill="#D3D3D3">XXX</text><text x="126.02" y="204.55" font-weight="bold" fill="#008B8B">;;;;;;;;;;;</text><text x="218.44" y="204.55" font-weight="bold" fill="#D3D3D3">XXX</text><text x="243.64" y="204.55" font-weight="bold" fill="#008B8B">;;;;;;</text><text x="0" y="223.55" font-weight="bold" fill="#4169E1">dddddd</text><text x="50.41" y="223.55" font-weight="bold" fill="#D3D3D3">;X;</text><text x="75.61" y="223.55" font-weight="bold" fill="#4169E1">&#x27;</text><text x="84.01" y="223.55" font-weight="bold" fill="#D3D3D3">XXX</text><text x="109.22" y="223.55" font-weight="bold" fill="#008B8B">;;;;;;;;;;;;;;;;;;;;;;</text><text x="0" y="242.55" font-weight="bold" fill="#4169E1">dddddd</text><text x="50.41" y="242.55" font-weight="bold" fill="#D3D3D3">;XXXXX,,,,,,,,,,,,,;XXX:</text><text x="252.04" y="242.55" font-weight="bold" fill="#008B8B">;;;;;</text><text x="0" y="261.55" font-weight="bold" fill="#4169E1">dddddd</text><text x="50.41" y="261.55" font-weight="bold" fill="#D3D3D3">:XXXXXXXXXXXXXXXXXXXX</text><text x="226.84" y="261.55" font-weight="bold" fill="#008B8B">x</text><text x="235.24" y="261.55" font-weight="bold" fill="#D3D3D3">XX</text><text x="252.04" y="261.55" font-weight="bold" fill="#008B8B">;;;;;</text><text x="0" y="280.55" font-weight="bold" fill="#4169E1">ddddd&#x27;</text><text x="50.41" y="280.55" font-weight="bold" fill="#008B8B">;;;;;;;;;;;;;;;;;;;</text><text x="210.03" y="280.55" font-weight="bold" fill="#D3D3D3">&#x27;XXX&#x27;</text><text x="252.04" y="280.55" font-weight="bold" fill="#008B8B">;;;;&#x27;</text><text x="0" y="299.55" font-weight="bold" fill="#4169E1">ddd&#x27;</text><text x="33.61" y="299.55" font-weight="bold" fill="#008B8B">;;;;;;;;;;;;;;;;;;;;;;;;;;;;;</text><text x="0" y="318.55" font-weight="bold" fill="#4169E1">o&#x27;</text><text x="16.8" y="318.55" font-weight="bold" fill="#008B8B">;;;;;;;;;;;;;;;;;;;;;;;;;;;;&#x27;</text></g></svg>