<svg xmlns="http://www.w3.org/2000/svg" viewBox="0, 0, 352.86, 687.45" font-family="SauceCodePro Nerd Font, Source Code Pro, Courier" font-size="14"><g fill="currentColor"><text x="159.63" y="14.55" font-weight="bold" fill="#DAA520">                   ##  </text><text x="193.23" y="14.55" font-weight="bold" fill="#32CD32">**</text><text x="134.42" y="33.55" font-weight="bold" fill="#32CD32">                </text><text x="134.42" y="33.55" font-weight="bold" fill="#DAA520">*####</text><text x="176.43" y="33.55" font-weight="bold" fill="#32CD32">****.</text><text x="151.22" y="52.55" font-weight="bold" fill="#32CD32">                  </text><text x="151.22" y="52.55" font-weight="bold" fill="#DAA520">###</text><text x="176.43" y="52.55" font-weight="bold" fill="#32CD32">,</text><text x="126.02" y="71.55" font-weight="bold" fill="#32CD32">               </text><text x="126.02" y="71.55" font-weight="bold" fill="#B22222">...,</text><text x="159.63" y="71.55" font-weight="bold" fill="#DAA520">/#</text><text x="176.43" y="71.55" font-weight="bold" fill="#B22222">,,,..</text><text x="84.01" y="90.55" font-weight="bold" fill="#B22222">          </text><text x="84.01" y="90.55" font-weight="bold" fill="#B22222">/*,,,,,,,,</text><text x="168.03" y="90.55" font-weight="bold" fill="#DAA520">*</text><text x="176.43" y="90.55" font-weight="bold" fill="#B22222">,........</text><text x="252.04" y="90.55" font-weight="bold" fill="#A9A9A9">,,</text><text x="67.21" y="109.55" font-weight="bold" fill="#A9A9A9">        </text><text x="67.21" y="109.55" font-weight="bold" fill="#B22222">,((((((//*,,,,,,,,</text><text x="218.44" y="109.55" font-weight="bold" fill="#A9A9A9">,......</text><text x="58.81" y="128.55" font-weight="bold" fill="#A9A9A9">       </text><text x="58.81" y="128.55" font-weight="bold" fill="#B22222">((((((((((((((</text><text x="176.43" y="128.55" font-weight="bold" fill="#D3D3D3">%..</text><text x="201.63" y="128.55" font-weight="bold" fill="#A9A9A9">..........</text><text x="42.01" y="147.55" font-weight="bold" fill="#A9A9A9">     </text><text x="42.01" y="147.55" font-weight="bold" fill="#B22222">,(((((((((((((((</text><text x="176.43" y="147.55" font-weight="bold" fill="#D3D3D3">@@(</text><text x="201.63" y="147.55" font-weight="bold" fill="#A9A9A9">............</text><text x="33.61" y="166.55" font-weight="bold" fill="#A9A9A9">    </text><text x="33.61" y="166.55" font-weight="bold" fill="#B22222">(((((((((((((((((</text><text x="176.43" y="166.55" font-weight="bold" fill="#D3D3D3">@@@@/</text><text x="218.44" y="166.55" font-weight="bold" fill="#A9A9A9">............</text><text x="16.8" y="185.55" font-weight="bold" fill="#A9A9A9">  </text><text x="16.8" y="185.55" font-weight="bold" fill="#B22222">,((((((((((((((((((</text><text x="176.43" y="185.55" font-weight="bold" fill="#D3D3D3">@@@@@&#x26;*</text><text x="235.24" y="185.55" font-weight="bold" fill="#A9A9A9">...........</text><text x="8.4" y="204.55" font-weight="bold" fill="#A9A9A9"> </text><text x="8.4" y="204.55" font-weight="bold" fill="#B22222">((((((((((((((((((((</text><text x="176.43" y="204.55" font-weight="bold" fill="#D3D3D3">@@@@@@@&#x26;</text><text x="243.64" y="204.55" font-weight="bold" fill="#A9A9A9">,...........</text><text x="0" y="223.55" font-weight="bold" fill="#B22222">(((((((((((((((((((((</text><text x="176.43" y="223.55" font-weight="bold" fill="#D3D3D3">@@@</text><text x="201.63" y="223.55" font-weight="bold" fill="#008B8B">&#x26;%&#x26;</text><text x="226.84" y="223.55" font-weight="bold" fill="#D3D3D3">@@@%</text><text x="260.44" y="223.55" font-weight="bold" fill="#A9A9A9">,..........</text><text x="8.4" y="242.55" font-weight="bold" fill="#A9A9A9"> </text><text x="8.4" y="242.55" font-weight="bold" fill="#B22222">/(((((((((((((((((((</text><text x="176.43" y="242.55" font-weight="bold" fill="#D3D3D3">@@@</text><text x="201.63" y="242.55" font-weight="bold" fill="#008B8B">&#x26;%%&#x26;</text><text x="235.24" y="242.55" font-weight="bold" fill="#D3D3D3">@@@@(</text><text x="277.25" y="242.55" font-weight="bold" fill="#A9A9A9">........</text><text x="33.61" y="261.55" font-weight="bold" fill="#A9A9A9">    </text><text x="33.61" y="261.55" font-weight="bold" fill="#B22222">,((((((((((((((((</text><text x="176.43" y="261.55" font-weight="bold" fill="#D3D3D3">@@@</text><text x="201.63" y="261.55" font-weight="bold" fill="#008B8B">&#x26;&#x26;</text><text x="218.44" y="261.55" font-weight="bold" fill="#D3D3D3">@@&#x26;/&#x26;@@@/</text><text x="294.05" y="261.55" font-weight="bold" fill="#A9A9A9">..</text><text x="67.21" y="280.55" font-weight="bold" fill="#A9A9A9">        </text><text x="67.21" y="280.55" font-weight="bold" fill="#B22222">/((((((((((((</text><text x="176.43" y="280.55" font-weight="bold" fill="#D3D3D3">@@@@@@/</text><text x="235.24" y="280.55" font-weight="bold" fill="#A9A9A9">.../&#x26;&#x26;</text><text x="92.42" y="299.55" font-weight="bold" fill="#A9A9A9">           </text><text x="92.42" y="299.55" font-weight="bold" fill="#B22222">.(((((((((</text><text x="176.43" y="299.55" font-weight="bold" fill="#D3D3D3">@@@@(</text><text x="218.44" y="299.55" font-weight="bold" fill="#A9A9A9">....</text><text x="126.02" y="318.55" font-weight="bold" fill="#A9A9A9">               </text><text x="126.02" y="318.55" font-weight="bold" fill="#B22222">/(((((</text><text x="176.43" y="318.55" font-weight="bold" fill="#D3D3D3">@@#</text><text x="201.63" y="318.55" font-weight="bold" fill="#A9A9A9">...</text><text x="151.22" y="337.55" font-weight="bold" fill="#A9A9A9">                  </text><text x="151.22" y="337.55" font-weight="bold" fill="#B22222">.((</text><text x="176.43" y="337.55" font-weight="bold" fill="#A9A9A9">&#x26;,</text></g></svg>