<svg xmlns="http://www.w3.org/2000/svg" viewBox="0, 0, 277.25, 649.45" font-family="SauceCodePro Nerd Font, Source Code Pro, Courier" font-size="14"><g fill="currentColor"><text x="84.01" y="14.55" font-weight="bold">          :dc&#x27;</text><text x="58.81" y="33.55" font-weight="bold">       &#x27;l:;&#x27;</text><text x="100.82" y="33.55" font-weight="bold" fill="#32CD32">,</text><text x="109.22" y="33.55" font-weight="bold">&#x27;ck.    .;dc:.</text><text x="58.81" y="52.55" font-weight="bold">       co    </text><text x="109.22" y="52.55" font-weight="bold" fill="#32CD32">..</text><text x="126.02" y="52.55" font-weight="bold">k.  .;;   &#x27;:o.</text><text x="58.81" y="71.55" font-weight="bold">       co    </text><text x="109.22" y="71.55" font-weight="bold" fill="#32CD32">..</text><text x="126.02" y="71.55" font-weight="bold">k. ol      </text><text x="218.44" y="71.55" font-weight="bold" fill="#32CD32">.</text><text x="226.84" y="71.55" font-weight="bold">0.</text><text x="58.81" y="90.55" font-weight="bold">       co    </text><text x="109.22" y="90.55" font-weight="bold" fill="#32CD32">..</text><text x="126.02" y="90.55" font-weight="bold">k. oc     </text><text x="210.03" y="90.55" font-weight="bold" fill="#32CD32">..</text><text x="226.84" y="90.55" font-weight="bold">0.</text><text x="58.81" y="109.55" font-weight="bold">       co    </text><text x="109.22" y="109.55" font-weight="bold" fill="#32CD32">..</text><text x="126.02" y="109.55" font-weight="bold">k. oc     </text><text x="210.03" y="109.55" font-weight="bold" fill="#32CD32">..</text><text x="226.84" y="109.55" font-weight="bold">0.</text><text x="0" y="128.55" font-weight="bold">.Ol,.  co </text><text x="84.01" y="128.55" font-weight="bold" fill="#32CD32">...&#x27;&#x27;</text><text x="126.02" y="128.55" font-weight="bold">Oc;kkodxOdddOoc,.</text><text x="8.4" y="147.55" font-weight="bold"> &#x27;;lxxlxOdxkxk0kd</text><text x="142.82" y="147.55" font-weight="bold" fill="#32CD32">oooll</text><text x="184.83" y="147.55" font-weight="bold">dl</text><text x="201.63" y="147.55" font-weight="bold" fill="#32CD32">ccc:</text><text x="235.24" y="147.55" font-weight="bold">clxd;</text><text x="42.01" y="166.55" font-weight="bold">     ..</text><text x="58.81" y="166.55" font-weight="bold" fill="#32CD32">oOolllllccccccc:::::</text><text x="226.84" y="166.55" font-weight="bold">od;</text><text x="58.81" y="185.55" font-weight="bold">       cx:ooc</text><text x="109.22" y="185.55" font-weight="bold" fill="#32CD32">:::::::;</text><text x="176.43" y="185.55" font-weight="bold">cooolcX.</text><text x="58.81" y="204.55" font-weight="bold">       cd</text><text x="75.61" y="204.55" font-weight="bold" fill="#32CD32">.</text><text x="84.01" y="204.55" font-weight="bold">&#x27;&#x27;cloxdoollc&#x27; </text><text x="201.63" y="204.55" font-weight="bold" fill="#32CD32">...</text><text x="226.84" y="204.55" font-weight="bold">0.</text><text x="58.81" y="223.55" font-weight="bold">       cd</text><text x="75.61" y="223.55" font-weight="bold" fill="#32CD32">......</text><text x="126.02" y="223.55" font-weight="bold">k;</text><text x="142.82" y="223.55" font-weight="bold" fill="#32CD32">.</text><text x="151.22" y="223.55" font-weight="bold">xl</text><text x="168.03" y="223.55" font-weight="bold" fill="#32CD32">....  .</text><text x="226.84" y="223.55" font-weight="bold">0.</text><text x="58.81" y="242.55" font-weight="bold">       .::c</text><text x="92.42" y="242.55" font-weight="bold" fill="#32CD32">;..</text><text x="117.62" y="242.55" font-weight="bold">cx;</text><text x="142.82" y="242.55" font-weight="bold" fill="#32CD32">.</text><text x="151.22" y="242.55" font-weight="bold">xo</text><text x="168.03" y="242.55" font-weight="bold" fill="#32CD32">..... .</text><text x="226.84" y="242.55" font-weight="bold">0.</text><text x="84.01" y="261.55" font-weight="bold">          &#x27;::c&#x27;</text><text x="126.02" y="261.55" font-weight="bold" fill="#32CD32">...</text><text x="151.22" y="261.55" font-weight="bold">do</text><text x="168.03" y="261.55" font-weight="bold" fill="#32CD32">..... .</text><text x="226.84" y="261.55" font-weight="bold">K,</text><text x="151.22" y="280.55" font-weight="bold">                  cd,.</text><text x="184.83" y="280.55" font-weight="bold" fill="#32CD32">....:</text><text x="226.84" y="280.55" font-weight="bold">O,</text><text x="168.03" y="299.55" font-weight="bold" fill="#32CD32">                    &#x27;:clod:&#x27;</text><text x="201.63" y="318.55" font-weight="bold" fill="#32CD32">                        </text></g></svg>