<svg xmlns="http://www.w3.org/2000/svg" viewBox="0, 0, 218.44, 649.45" font-family="SauceCodePro Nerd Font, Source Code Pro, Courier" font-size="14"><g fill="currentColor"><text x="92.42" y="14.55" font-weight="bold" fill="#B22222">           ___</text><text x="42.01" y="33.55" font-weight="bold" fill="#B22222">     ,adZZEEEE#&#x26;</text><text x="134.42" y="33.55" font-weight="bold" fill="#DAA520">&#x3E;=x.</text><text x="25.2" y="52.55" font-weight="bold" fill="#DAA520">   </text><text x="25.2" y="52.55" font-weight="bold" fill="#B22222">,zAP*~&#x27;</text><text x="84.01" y="52.55" font-weight="bold" fill="#4169E1">_,-</text><text x="109.22" y="52.55" font-weight="bold" fill="#DAA520">&#x27;~*VM</text><text x="151.22" y="52.55" font-weight="bold" fill="#DAA520">N&#x26;x.</text><text x="16.8" y="71.55" font-weight="bold" fill="#DAA520">  </text><text x="16.8" y="71.55" font-weight="bold" fill="#B22222">,%&#x26;P^&#x60;</text><text x="67.21" y="71.55" font-weight="bold" fill="#4169E1">&#x3C;</text><text x="75.61" y="71.55" font-weight="bold" fill="#008B8B">,.</text><text x="92.42" y="71.55" font-weight="bold" fill="#4169E1">&#x3C;&#x3C;</text><text x="109.22" y="71.55" font-weight="bold" fill="#DAA520">,-===--.N&#x3E;x</text><text x="8.4" y="90.55" font-weight="bold" fill="#DAA520"> </text><text x="8.4" y="90.55" font-weight="bold" fill="#B22222">.%M7</text><text x="42.01" y="90.55" font-weight="bold" fill="#4169E1">//</text><text x="58.81" y="90.55" font-weight="bold" fill="#008B8B">,%^</text><text x="84.01" y="90.55" font-weight="bold" fill="#DAA520">,x&#x3C;3#</text><text x="126.02" y="90.55" font-weight="bold" fill="#B22222">3EEbo</text><text x="168.03" y="90.55" font-weight="bold" fill="#DAA520">&#x3C;&#x26;&#x3E;&#x26;b</text><text x="8.4" y="109.55" font-weight="bold" fill="#DAA520"> </text><text x="8.4" y="109.55" font-weight="bold" fill="#B22222">&#x26;#/</text><text x="33.61" y="109.55" font-weight="bold" fill="#4169E1">/</text><text x="42.01" y="109.55" font-weight="bold" fill="#008B8B">.&#x3C;^</text><text x="67.21" y="109.55" font-weight="bold" fill="#4169E1">/</text><text x="75.61" y="109.55" font-weight="bold" fill="#DAA520">x&#x3C;&#x3E;^</text><text x="109.22" y="109.55" font-weight="bold" fill="#4169E1">-.&#x60;</text><text x="134.42" y="109.55" font-weight="bold" fill="#B22222">&#x60;+&#x26;WW</text><text x="176.43" y="109.55" font-weight="bold" fill="#DAA520">&#x3C;&#x26;N&#x26;;</text><text x="0" y="128.55" font-weight="bold" fill="#B22222">/#/</text><text x="25.2" y="128.55" font-weight="bold" fill="#4169E1">//</text><text x="42.01" y="128.55" font-weight="bold" fill="#008B8B">4</text><text x="50.41" y="128.55" font-weight="bold" fill="#4169E1">//</text><text x="67.21" y="128.55" font-weight="bold" fill="#DAA520">/W/    </text><text x="126.02" y="128.55" font-weight="bold" fill="#4169E1">^+.&#x60;</text><text x="159.63" y="128.55" font-weight="bold" fill="#B22222">&#x60;###</text><text x="193.23" y="128.55" font-weight="bold" fill="#DAA520">NM\</text><text x="0" y="147.55" font-weight="bold" fill="#B22222">##&#x27;</text><text x="25.2" y="147.55" font-weight="bold" fill="#4169E1">|</text><text x="33.61" y="147.55" font-weight="bold" fill="#008B8B">.l</text><text x="50.41" y="147.55" font-weight="bold" fill="#4169E1">|</text><text x="58.81" y="147.55" font-weight="bold" fill="#DAA520">,&#x26;/      </text><text x="134.42" y="147.55" font-weight="bold" fill="#4169E1">&#x60;.&#x27;,</text><text x="168.03" y="147.55" font-weight="bold" fill="#B22222">I#I</text><text x="193.23" y="147.55" font-weight="bold" fill="#DAA520">HI#</text><text x="0" y="166.55" font-weight="bold" fill="#B22222">#I</text><text x="16.8" y="166.55" font-weight="bold" fill="#4169E1">||</text><text x="33.61" y="166.55" font-weight="bold" fill="#008B8B">&#x60;I</text><text x="50.41" y="166.55" font-weight="bold" fill="#4169E1">|</text><text x="58.81" y="166.55" font-weight="bold" fill="#DAA520">(#(       </text><text x="142.82" y="166.55" font-weight="bold" fill="#008B8B">)&#x60;&#x27;</text><text x="168.03" y="166.55" font-weight="bold" fill="#B22222">)##</text><text x="193.23" y="166.55" font-weight="bold" fill="#DAA520">H~^</text><text x="0" y="185.55" font-weight="bold" fill="#B22222">@\</text><text x="16.8" y="185.55" font-weight="bold" fill="#4169E1">|||</text><text x="42.01" y="185.55" font-weight="bold" fill="#008B8B">\</text><text x="50.41" y="185.55" font-weight="bold" fill="#4169E1">\</text><text x="58.81" y="185.55" font-weight="bold" fill="#DAA520">&#x60;X\      </text><text x="134.42" y="185.55" font-weight="bold" fill="#008B8B">///</text><text x="159.63" y="185.55" font-weight="bold" fill="#B22222">,##%V</text><text x="201.63" y="185.55" font-weight="bold" fill="#008B8B">&#x27;/</text><text x="0" y="204.55" font-weight="bold" fill="#4169E1">\\\\\\</text><text x="50.41" y="204.55" font-weight="bold" fill="#008B8B">Y,</text><text x="67.21" y="204.55" font-weight="bold" fill="#DAA520">*@b, </text><text x="109.22" y="204.55" font-weight="bold" fill="#008B8B">.-+//</text><text x="151.22" y="204.55" font-weight="bold" fill="#B22222">/&#x26;#%#/</text><text x="201.63" y="204.55" font-weight="bold" fill="#008B8B">,&#x27;</text><text x="0" y="223.55" font-weight="bold" fill="#4169E1">&#x60;\\\\</text><text x="42.01" y="223.55" font-weight="bold" fill="#DAA520">,.</text><text x="58.81" y="223.55" font-weight="bold" fill="#4169E1">\</text><text x="67.21" y="223.55" font-weight="bold" fill="#008B8B">&#x3C;</text><text x="75.61" y="223.55" font-weight="bold" fill="#DAA520">&#x60;*</text><text x="92.42" y="223.55" font-weight="bold" fill="#008B8B">^&#x60;x&#x3C;</text><text x="126.02" y="223.55" font-weight="bold" fill="#B22222">,z&#x3C;#&#x26;#x&#x22;</text><text x="193.23" y="223.55" font-weight="bold" fill="#008B8B">,&#x27;</text><text x="8.4" y="242.55" font-weight="bold" fill="#008B8B"> </text><text x="8.4" y="242.55" font-weight="bold" fill="#008B8B">&#x60;x&#x3C;&#x3C;</text><text x="42.01" y="242.55" font-weight="bold" fill="#DAA520">&#x60;Xx,</text><text x="75.61" y="242.55" font-weight="bold" fill="#008B8B">&#x60;&#x3C;_&#x60;</text><text x="109.22" y="242.55" font-weight="bold" fill="#B22222">+{##&#x26;@P^</text><text x="176.43" y="242.55" font-weight="bold" fill="#4169E1">&#x27;&#x3E;</text><text x="193.23" y="242.55" font-weight="bold" fill="#008B8B">&#x27;</text><text x="16.8" y="261.55" font-weight="bold" fill="#008B8B">  </text><text x="16.8" y="261.55" font-weight="bold" fill="#008B8B">&#x60;&#x3C;_&#x3C;&#x3C;</text><text x="58.81" y="261.55" font-weight="bold" fill="#DAA520">^&#x3C;\-.</text><text x="100.82" y="261.55" font-weight="bold" fill="#008B8B">&#x60;*&#x60;&#x3E;</text><text x="134.42" y="261.55" font-weight="bold" fill="#B22222">&#x3C;^&#x27;</text><text x="159.63" y="261.55" font-weight="bold" fill="#4169E1">,-&#x27;</text><text x="33.61" y="280.55" font-weight="bold" fill="#4169E1">    </text><text x="33.61" y="280.55" font-weight="bold" fill="#008B8B">&#x60;&#x3C;_=-</text><text x="75.61" y="280.55" font-weight="bold" fill="#DAA520">^\Xx</text><text x="109.22" y="280.55" font-weight="bold" fill="#B22222">XX\.</text><text x="142.82" y="280.55" font-weight="bold" fill="#008B8B">+&#x3C;.</text><text x="50.41" y="299.55" font-weight="bold" fill="#008B8B">      </text><text x="50.41" y="299.55" font-weight="bold" fill="#008B8B">&#x60;^&#x3C;_-</text><text x="92.42" y="299.55" font-weight="bold" fill="#DAA520">^&#x3C;Xx</text><text x="126.02" y="299.55" font-weight="bold" fill="#B22222">#X\x</text><text x="159.63" y="299.55" font-weight="bold" fill="#008B8B">+&#x27;-.</text><text x="84.01" y="318.55" font-weight="bold" fill="#008B8B">          </text><text x="84.01" y="318.55" font-weight="bold" fill="#008B8B">&#x60;&#x22;^^</text><text x="117.62" y="318.55" font-weight="bold" fill="#DAA520">+*</text><text x="134.42" y="318.55" font-weight="bold" fill="#B22222">*&#x60;&#x60;&#x60; </text><text x="176.43" y="318.55" font-weight="bold" fill="#008B8B">&#x60;&#x60;&#x60;</text></g></svg>