<svg xmlns="http://www.w3.org/2000/svg" viewBox="0, 0, 176.43, 459.45" font-family="SauceCodePro Nerd Font, Source Code Pro, Courier" font-size="14"><g fill="currentColor"><text x="67.21" y="14.55" font-weight="bold" fill="#D3D3D3">        </text><text x="67.21" y="14.55" font-weight="bold" fill="#A9A9A9">#####</text><text x="58.81" y="33.55" font-weight="bold" fill="#A9A9A9">       </text><text x="58.81" y="33.55" font-weight="bold" fill="#A9A9A9">#######</text><text x="58.81" y="52.55" font-weight="bold" fill="#A9A9A9">       </text><text x="58.81" y="52.55" font-weight="bold" fill="#A9A9A9">##</text><text x="75.61" y="52.55" font-weight="bold" fill="#D3D3D3">O</text><text x="84.01" y="52.55" font-weight="bold" fill="#A9A9A9">#</text><text x="92.42" y="52.55" font-weight="bold" fill="#D3D3D3">O</text><text x="100.82" y="52.55" font-weight="bold" fill="#A9A9A9">##</text><text x="58.81" y="71.55" font-weight="bold" fill="#A9A9A9">       </text><text x="58.81" y="71.55" font-weight="bold" fill="#A9A9A9">#</text><text x="67.21" y="71.55" font-weight="bold" fill="#DAA520">#####</text><text x="109.22" y="71.55" font-weight="bold" fill="#A9A9A9">#</text><text x="42.01" y="90.55" font-weight="bold" fill="#A9A9A9">     </text><text x="42.01" y="90.55" font-weight="bold" fill="#A9A9A9">##</text><text x="58.81" y="90.55" font-weight="bold" fill="#D3D3D3">##</text><text x="75.61" y="90.55" font-weight="bold" fill="#DAA520">###</text><text x="100.82" y="90.55" font-weight="bold" fill="#D3D3D3">##</text><text x="117.62" y="90.55" font-weight="bold" fill="#A9A9A9">##</text><text x="33.61" y="109.55" font-weight="bold" fill="#A9A9A9">    </text><text x="33.61" y="109.55" font-weight="bold" fill="#A9A9A9">#</text><text x="42.01" y="109.55" font-weight="bold" fill="#D3D3D3">##########</text><text x="126.02" y="109.55" font-weight="bold" fill="#A9A9A9">##</text><text x="25.2" y="128.55" font-weight="bold" fill="#A9A9A9">   </text><text x="25.2" y="128.55" font-weight="bold" fill="#A9A9A9">#</text><text x="33.61" y="128.55" font-weight="bold" fill="#D3D3D3">############</text><text x="134.42" y="128.55" font-weight="bold" fill="#A9A9A9">##</text><text x="25.2" y="147.55" font-weight="bold" fill="#A9A9A9">   </text><text x="25.2" y="147.55" font-weight="bold" fill="#A9A9A9">#</text><text x="33.61" y="147.55" font-weight="bold" fill="#D3D3D3">############</text><text x="134.42" y="147.55" font-weight="bold" fill="#A9A9A9">###</text><text x="16.8" y="166.55" font-weight="bold" fill="#A9A9A9">  </text><text x="16.8" y="166.55" font-weight="bold" fill="#DAA520">##</text><text x="33.61" y="166.55" font-weight="bold" fill="#A9A9A9">#</text><text x="42.01" y="166.55" font-weight="bold" fill="#D3D3D3">###########</text><text x="134.42" y="166.55" font-weight="bold" fill="#A9A9A9">##</text><text x="151.22" y="166.55" font-weight="bold" fill="#DAA520">#</text><text x="0" y="185.55" font-weight="bold" fill="#DAA520">######</text><text x="50.41" y="185.55" font-weight="bold" fill="#A9A9A9">#</text><text x="58.81" y="185.55" font-weight="bold" fill="#D3D3D3">#######</text><text x="117.62" y="185.55" font-weight="bold" fill="#A9A9A9">#</text><text x="126.02" y="185.55" font-weight="bold" fill="#DAA520">######</text><text x="0" y="204.55" font-weight="bold" fill="#DAA520">#######</text><text x="58.81" y="204.55" font-weight="bold" fill="#A9A9A9">#</text><text x="67.21" y="204.55" font-weight="bold" fill="#D3D3D3">#####</text><text x="109.22" y="204.55" font-weight="bold" fill="#A9A9A9">#</text><text x="117.62" y="204.55" font-weight="bold" fill="#DAA520">#######</text><text x="16.8" y="223.55" font-weight="bold" fill="#DAA520">  </text><text x="16.8" y="223.55" font-weight="bold" fill="#DAA520">#####</text><text x="58.81" y="223.55" font-weight="bold" fill="#A9A9A9">#######</text><text x="117.62" y="223.55" font-weight="bold" fill="#DAA520">#####</text></g></svg>