<svg xmlns="http://www.w3.org/2000/svg" viewBox="0, 0, 151.22, 763.45" font-family="SauceCodePro Nerd Font, Source Code Pro, Courier" font-size="14"><g fill="currentColor"><text x="84.01" y="14.55" font-weight="bold" fill="#32CD32">          ,xXc</text><text x="50.41" y="33.55" font-weight="bold" fill="#32CD32">      .l0MMMMMO</text><text x="25.2" y="52.55" font-weight="bold" fill="#32CD32">   .kNMMMMM</text><text x="92.42" y="52.55" font-weight="bold" fill="#D3D3D3">W</text><text x="100.82" y="52.55" font-weight="bold" fill="#32CD32">MMMN,</text><text x="25.2" y="71.55" font-weight="bold" fill="#32CD32">   KMMMMMM</text><text x="84.01" y="71.55" font-weight="bold" fill="#D3D3D3">K</text><text x="92.42" y="71.55" font-weight="bold" fill="#32CD32">MMMMMMo</text><text x="16.8" y="90.55" font-weight="bold" fill="#32CD32">  &#x27;MMMMMMN</text><text x="84.01" y="90.55" font-weight="bold" fill="#D3D3D3">K</text><text x="92.42" y="90.55" font-weight="bold" fill="#32CD32">MMMMMM:</text><text x="16.8" y="109.55" font-weight="bold" fill="#32CD32">  kMMMMMM</text><text x="75.61" y="109.55" font-weight="bold" fill="#D3D3D3">O</text><text x="84.01" y="109.55" font-weight="bold" fill="#32CD32">MMMMMMO</text><text x="8.4" y="128.55" font-weight="bold" fill="#32CD32"> .MMMMMM</text><text x="67.21" y="128.55" font-weight="bold" fill="#D3D3D3">0</text><text x="75.61" y="128.55" font-weight="bold" fill="#32CD32">XMMMMMW.</text><text x="8.4" y="147.55" font-weight="bold" fill="#32CD32"> oMMMMM</text><text x="58.81" y="147.55" font-weight="bold" fill="#D3D3D3">x</text><text x="67.21" y="147.55" font-weight="bold" fill="#32CD32">MMMMMMM:</text><text x="8.4" y="166.55" font-weight="bold" fill="#32CD32"> WMMMMM</text><text x="58.81" y="166.55" font-weight="bold" fill="#D3D3D3">x</text><text x="67.21" y="166.55" font-weight="bold" fill="#32CD32">MMMMMMO</text><text x="0" y="185.55" font-weight="bold" fill="#32CD32">:MMMMMM</text><text x="58.81" y="185.55" font-weight="bold" fill="#D3D3D3">O</text><text x="67.21" y="185.55" font-weight="bold" fill="#32CD32">XMMMMW</text><text x="0" y="204.55" font-weight="bold" fill="#32CD32">.0MMMMM</text><text x="58.81" y="204.55" font-weight="bold" fill="#D3D3D3">x</text><text x="67.21" y="204.55" font-weight="bold" fill="#32CD32">MMMMM;</text><text x="0" y="223.55" font-weight="bold" fill="#32CD32">:;cKMMW</text><text x="58.81" y="223.55" font-weight="bold" fill="#D3D3D3">x</text><text x="67.21" y="223.55" font-weight="bold" fill="#32CD32">MMMMO</text><text x="0" y="242.55" font-weight="bold" fill="#32CD32">&#x27;MMWMMX</text><text x="58.81" y="242.55" font-weight="bold" fill="#D3D3D3">O</text><text x="67.21" y="242.55" font-weight="bold" fill="#32CD32">MMMMl</text><text x="8.4" y="261.55" font-weight="bold" fill="#32CD32"> kMMMMK</text><text x="58.81" y="261.55" font-weight="bold" fill="#D3D3D3">O</text><text x="67.21" y="261.55" font-weight="bold" fill="#32CD32">MMMMMX:</text><text x="8.4" y="280.55" font-weight="bold" fill="#32CD32"> .WMMMMK</text><text x="67.21" y="280.55" font-weight="bold" fill="#D3D3D3">O</text><text x="75.61" y="280.55" font-weight="bold" fill="#32CD32">WMMM0c</text><text x="16.8" y="299.55" font-weight="bold" fill="#32CD32">  lMMMMMW</text><text x="75.61" y="299.55" font-weight="bold" fill="#D3D3D3">O</text><text x="84.01" y="299.55" font-weight="bold" fill="#32CD32">WMNd:&#x27;</text><text x="25.2" y="318.55" font-weight="bold" fill="#32CD32">   oollXMK</text><text x="84.01" y="318.55" font-weight="bold" fill="#D3D3D3">o</text><text x="92.42" y="318.55" font-weight="bold" fill="#32CD32">Xxl;.</text><text x="42.01" y="337.55" font-weight="bold" fill="#32CD32">     &#x27;:. .:</text><text x="100.82" y="337.55" font-weight="bold" fill="#D3D3D3"> .</text><text x="109.22" y="337.55" font-weight="bold" fill="#32CD32">&#x27;</text><text x="117.62" y="356.55" font-weight="bold" fill="#32CD32">              </text><text x="117.62" y="356.55" font-weight="bold" fill="#D3D3D3">..</text><text x="134.42" y="375.55" font-weight="bold" fill="#D3D3D3">                .</text></g></svg>