<svg xmlns="http://www.w3.org/2000/svg" viewBox="0, 0, 310.85, 687.45" font-family="SauceCodePro Nerd Font, Source Code Pro, Courier" font-size="14"><g fill="currentColor"><text x="100.82" y="14.55" font-weight="bold" fill="#000000">            :@@@@@@@:</text><text x="100.82" y="33.55" font-weight="bold" fill="#000000">            @@@@@@@@@-</text><text x="33.61" y="52.55" font-weight="bold" fill="#000000">    .:%.    @@@@@@@@@+.       @%</text><text x="25.2" y="71.55" font-weight="bold" fill="#000000">   *@@@%+:  :@@@@@@@%=: .=%@@@@@@=</text><text x="16.8" y="90.55" font-weight="bold" fill="#000000">  :@@@@@@##@@@@@@@@@%*+%@%+@@@@@@@+</text><text x="16.8" y="109.55" font-weight="bold" fill="#000000">  @@#</text><text x="42.01" y="109.55" font-weight="bold" fill="#D3D3D3">####</text><text x="75.61" y="109.55" font-weight="bold" fill="#000000">+@@@@@@@%:</text><text x="159.63" y="109.55" font-weight="bold" fill="#D3D3D3">######</text><text x="210.03" y="109.55" font-weight="bold" fill="#000000">=@@@@@@@@@-</text><text x="8.4" y="128.55" font-weight="bold" fill="#000000"> *@%</text><text x="33.61" y="128.55" font-weight="bold" fill="#D3D3D3">######</text><text x="84.01" y="128.55" font-weight="bold" fill="#000000">.@@@@@#</text><text x="142.82" y="128.55" font-weight="bold" fill="#D3D3D3">#########</text><text x="218.44" y="128.55" font-weight="bold" fill="#000000">-@@@@@@@@#.</text><text x="8.4" y="147.55" font-weight="bold" fill="#000000"> %@-</text><text x="33.61" y="147.55" font-weight="bold" fill="#D3D3D3">#</text><text x="42.01" y="147.55" font-weight="bold" fill="#000000">.@</text><text x="58.81" y="147.55" font-weight="bold" fill="#D3D3D3">=</text><text x="67.21" y="147.55" font-weight="bold" fill="#000000">:</text><text x="75.61" y="147.55" font-weight="bold" fill="#D3D3D3">##</text><text x="92.42" y="147.55" font-weight="bold" fill="#000000">+@@@@-</text><text x="142.82" y="147.55" font-weight="bold" fill="#D3D3D3">###</text><text x="168.03" y="147.55" font-weight="bold" fill="#000000">%@</text><text x="184.83" y="147.55" font-weight="bold" fill="#D3D3D3">:</text><text x="193.23" y="147.55" font-weight="bold" fill="#000000">=</text><text x="201.63" y="147.55" font-weight="bold" fill="#D3D3D3">###</text><text x="226.84" y="147.55" font-weight="bold" fill="#000000">*@#*+=-+#:</text><text x="8.4" y="166.55" font-weight="bold" fill="#000000"> @@.</text><text x="33.61" y="166.55" font-weight="bold" fill="#D3D3D3">#</text><text x="42.01" y="166.55" font-weight="bold" fill="#000000">@@*</text><text x="67.21" y="166.55" font-weight="bold" fill="#D3D3D3">=</text><text x="75.61" y="166.55" font-weight="bold" fill="#000000">:</text><text x="84.01" y="166.55" font-weight="bold" fill="#D3D3D3">#</text><text x="92.42" y="166.55" font-weight="bold" fill="#000000">-%%**-</text><text x="142.82" y="166.55" font-weight="bold" fill="#D3D3D3">##</text><text x="159.63" y="166.55" font-weight="bold" fill="#000000">%@@%</text><text x="193.23" y="166.55" font-weight="bold" fill="#D3D3D3">*</text><text x="201.63" y="166.55" font-weight="bold" fill="#000000">*</text><text x="210.03" y="166.55" font-weight="bold" fill="#D3D3D3">###</text><text x="235.24" y="166.55" font-weight="bold" fill="#000000">#=-</text><text x="8.4" y="185.55" font-weight="bold" fill="#000000"> @@-</text><text x="33.61" y="185.55" font-weight="bold" fill="#D3D3D3">#</text><text x="42.01" y="185.55" font-weight="bold" fill="#000000">@@@@+.-</text><text x="100.82" y="185.55" font-weight="bold" fill="#DAA520">...</text><text x="126.02" y="185.55" font-weight="bold" fill="#000000">:=.</text><text x="151.22" y="185.55" font-weight="bold" fill="#D3D3D3">#</text><text x="159.63" y="185.55" font-weight="bold" fill="#000000">%@@@@%</text><text x="210.03" y="185.55" font-weight="bold" fill="#D3D3D3">###</text><text x="235.24" y="185.55" font-weight="bold" fill="#000000">#-</text><text x="8.4" y="204.55" font-weight="bold" fill="#000000"> %@%</text><text x="33.61" y="204.55" font-weight="bold" fill="#D3D3D3">##</text><text x="50.41" y="204.55" font-weight="bold" fill="#000000">*#:</text><text x="75.61" y="204.55" font-weight="bold" fill="#DAA520">.o.....o...</text><text x="168.03" y="204.55" font-weight="bold" fill="#000000">-%@+</text><text x="201.63" y="204.55" font-weight="bold" fill="#D3D3D3">###</text><text x="226.84" y="204.55" font-weight="bold" fill="#000000">#@+    -:</text><text x="8.4" y="223.55" font-weight="bold" fill="#000000"> +@@*</text><text x="42.01" y="223.55" font-weight="bold" fill="#D3D3D3">#</text><text x="50.41" y="223.55" font-weight="bold" fill="#DAA520">....................</text><text x="218.44" y="223.55" font-weight="bold" fill="#000000">+@@@@@@@@+</text><text x="16.8" y="242.55" font-weight="bold" fill="#000000">  @%:</text><text x="42.01" y="242.55" font-weight="bold" fill="#DAA520">....................._:</text><text x="235.24" y="242.55" font-weight="bold" fill="#000000">@@@@@@@=.</text><text x="16.8" y="261.55" font-weight="bold" fill="#000000">  .=:</text><text x="42.01" y="261.55" font-weight="bold" fill="#DAA520">...............__*-=&#x60;.</text><text x="226.84" y="261.55" font-weight="bold" fill="#000000">=@@@@@@#=.</text><text x="25.2" y="280.55" font-weight="bold" fill="#000000">   :+:</text><text x="50.41" y="280.55" font-weight="bold" fill="#DAA520">....:==*__*-=&#x60;:..==-:</text><text x="226.84" y="280.55" font-weight="bold" fill="#000000">#@@@@@%+:</text><text x="42.01" y="299.55" font-weight="bold" fill="#000000">     .--=-:  </text><text x="109.22" y="299.55" font-weight="bold" fill="#DAA520">+..::.....-:    </text><text x="243.64" y="299.55" font-weight="bold" fill="#000000">=%@*=:</text><text x="117.62" y="318.55" font-weight="bold" fill="#000000">              :........-</text><text x="134.42" y="337.55" font-weight="bold" fill="#000000">                .:...--.</text></g></svg>