<svg xmlns="http://www.w3.org/2000/svg" viewBox="0, 0, 226.84, 497.45" font-family="SauceCodePro Nerd Font, Source Code Pro, Courier" font-size="14"><g fill="currentColor"><text x="100.82" y="14.55" font-weight="bold" fill="#D3D3D3">            </text><text x="100.82" y="14.55" font-weight="bold" fill="#9932CC">:##:</text><text x="84.01" y="33.55" font-weight="bold" fill="#9932CC">          -#</text><text x="100.82" y="33.55" font-weight="bold" fill="#D3D3D3">@@@@</text><text x="134.42" y="33.55" font-weight="bold" fill="#9932CC">#-</text><text x="75.61" y="52.55" font-weight="bold" fill="#9932CC">         #</text><text x="84.01" y="52.55" font-weight="bold" fill="#D3D3D3">@@</text><text x="100.82" y="52.55" font-weight="bold" fill="#9932CC">=..=</text><text x="134.42" y="52.55" font-weight="bold" fill="#D3D3D3">@@</text><text x="151.22" y="52.55" font-weight="bold" fill="#9932CC">#</text><text x="75.61" y="71.55" font-weight="bold" fill="#9932CC">         +</text><text x="84.01" y="71.55" font-weight="bold" fill="#D3D3D3">@@</text><text x="100.82" y="71.55" font-weight="bold" fill="#9932CC">-  -</text><text x="134.42" y="71.55" font-weight="bold" fill="#D3D3D3">@@</text><text x="151.22" y="71.55" font-weight="bold" fill="#9932CC">+</text><text x="33.61" y="90.55" font-weight="bold" fill="#9932CC">    -#</text><text x="50.41" y="90.55" font-weight="bold" fill="#D3D3D3">@@</text><text x="67.21" y="90.55" font-weight="bold" fill="#9932CC">*..*</text><text x="100.82" y="90.55" font-weight="bold" fill="#D3D3D3">@</text><text x="109.22" y="90.55" font-weight="bold" fill="#9932CC">..</text><text x="126.02" y="90.55" font-weight="bold" fill="#D3D3D3">@</text><text x="134.42" y="90.55" font-weight="bold" fill="#9932CC">*..*</text><text x="168.03" y="90.55" font-weight="bold" fill="#D3D3D3">@@</text><text x="184.83" y="90.55" font-weight="bold" fill="#9932CC">#-</text><text x="16.8" y="109.55" font-weight="bold" fill="#9932CC">  :#</text><text x="33.61" y="109.55" font-weight="bold" fill="#D3D3D3">@@</text><text x="50.41" y="109.55" font-weight="bold" fill="#9932CC">*+%</text><text x="75.61" y="109.55" font-weight="bold" fill="#D3D3D3">@</text><text x="84.01" y="109.55" font-weight="bold" fill="#9932CC">= .  . =</text><text x="151.22" y="109.55" font-weight="bold" fill="#D3D3D3">@</text><text x="159.63" y="109.55" font-weight="bold" fill="#9932CC">%+*</text><text x="184.83" y="109.55" font-weight="bold" fill="#D3D3D3">@@</text><text x="201.63" y="109.55" font-weight="bold" fill="#9932CC">#:</text><text x="0" y="128.55" font-weight="bold" fill="#9932CC">+</text><text x="8.4" y="128.55" font-weight="bold" fill="#D3D3D3">@@@</text><text x="33.61" y="128.55" font-weight="bold" fill="#9932CC">:    :-.    .-:   :</text><text x="193.23" y="128.55" font-weight="bold" fill="#D3D3D3">@@@</text><text x="218.44" y="128.55" font-weight="bold" fill="#9932CC">+</text><text x="16.8" y="147.55" font-weight="bold" fill="#9932CC">  :#</text><text x="33.61" y="147.55" font-weight="bold" fill="#D3D3D3">@@</text><text x="50.41" y="147.55" font-weight="bold" fill="#9932CC">*+%</text><text x="75.61" y="147.55" font-weight="bold" fill="#D3D3D3">@</text><text x="84.01" y="147.55" font-weight="bold" fill="#9932CC">= .  . =</text><text x="151.22" y="147.55" font-weight="bold" fill="#D3D3D3">@</text><text x="159.63" y="147.55" font-weight="bold" fill="#9932CC">%+*</text><text x="184.83" y="147.55" font-weight="bold" fill="#D3D3D3">@@</text><text x="201.63" y="147.55" font-weight="bold" fill="#9932CC">#:</text><text x="33.61" y="166.55" font-weight="bold" fill="#9932CC">    -#</text><text x="50.41" y="166.55" font-weight="bold" fill="#D3D3D3">@@</text><text x="67.21" y="166.55" font-weight="bold" fill="#9932CC">*..*</text><text x="100.82" y="166.55" font-weight="bold" fill="#D3D3D3">@</text><text x="109.22" y="166.55" font-weight="bold" fill="#9932CC">..</text><text x="126.02" y="166.55" font-weight="bold" fill="#D3D3D3">@</text><text x="134.42" y="166.55" font-weight="bold" fill="#9932CC">*..*</text><text x="168.03" y="166.55" font-weight="bold" fill="#D3D3D3">@@</text><text x="184.83" y="166.55" font-weight="bold" fill="#9932CC">#-</text><text x="75.61" y="185.55" font-weight="bold" fill="#9932CC">         +</text><text x="84.01" y="185.55" font-weight="bold" fill="#D3D3D3">@@</text><text x="100.82" y="185.55" font-weight="bold" fill="#9932CC">-  -</text><text x="134.42" y="185.55" font-weight="bold" fill="#D3D3D3">@@</text><text x="151.22" y="185.55" font-weight="bold" fill="#9932CC">+</text><text x="75.61" y="204.55" font-weight="bold" fill="#9932CC">         #</text><text x="84.01" y="204.55" font-weight="bold" fill="#D3D3D3">@@</text><text x="100.82" y="204.55" font-weight="bold" fill="#9932CC">=..=</text><text x="134.42" y="204.55" font-weight="bold" fill="#D3D3D3">@@</text><text x="151.22" y="204.55" font-weight="bold" fill="#9932CC">#</text><text x="84.01" y="223.55" font-weight="bold" fill="#9932CC">          -#</text><text x="100.82" y="223.55" font-weight="bold" fill="#D3D3D3">@@@@</text><text x="134.42" y="223.55" font-weight="bold" fill="#9932CC">#-</text><text x="100.82" y="242.55" font-weight="bold" fill="#9932CC">            :##:</text></g></svg>