<svg xmlns="http://www.w3.org/2000/svg" viewBox="0, 0, 336.05, 801.45" font-family="SauceCodePro Nerd Font, Source Code Pro, Courier" font-size="14"><g fill="currentColor"><text x="109.22" y="14.55" font-weight="bold" fill="#B22222">             PPPPPPPPPPPPPP</text><text x="75.61" y="33.55" font-weight="bold" fill="#B22222">         PPPP</text><text x="109.22" y="33.55" font-weight="bold" fill="#D3D3D3">MMMMMMM</text><text x="168.03" y="33.55" font-weight="bold" fill="#B22222">PPPPPPPPPPP</text><text x="58.81" y="52.55" font-weight="bold" fill="#B22222">       PPPP</text><text x="92.42" y="52.55" font-weight="bold" fill="#D3D3D3">MMMMMMMMMM</text><text x="176.43" y="52.55" font-weight="bold" fill="#B22222">PPPPPPPP</text><text x="243.64" y="52.55" font-weight="bold" fill="#D3D3D3">MM</text><text x="260.44" y="52.55" font-weight="bold" fill="#B22222">PP</text><text x="42.01" y="71.55" font-weight="bold" fill="#B22222">     PPPPPPPP</text><text x="109.22" y="71.55" font-weight="bold" fill="#D3D3D3">MMMMMMM</text><text x="168.03" y="71.55" font-weight="bold" fill="#B22222">PPPPPPPP</text><text x="235.24" y="71.55" font-weight="bold" fill="#D3D3D3">MMMMM</text><text x="277.25" y="71.55" font-weight="bold" fill="#B22222">PP</text><text x="25.2" y="90.55" font-weight="bold" fill="#B22222">   PPPPPPPPPPPP</text><text x="126.02" y="90.55" font-weight="bold" fill="#D3D3D3">MMMMMM</text><text x="176.43" y="90.55" font-weight="bold" fill="#B22222">PPPPPPP</text><text x="235.24" y="90.55" font-weight="bold" fill="#D3D3D3">MMMMMMM</text><text x="294.05" y="90.55" font-weight="bold" fill="#B22222">PP</text><text x="16.8" y="109.55" font-weight="bold" fill="#B22222">  PPPPPPPPPPPP</text><text x="117.62" y="109.55" font-weight="bold" fill="#D3D3D3">MMMMMMM</text><text x="176.43" y="109.55" font-weight="bold" fill="#B22222">PPPP</text><text x="210.03" y="109.55" font-weight="bold" fill="#D3D3D3">M</text><text x="218.44" y="109.55" font-weight="bold" fill="#B22222">P</text><text x="226.84" y="109.55" font-weight="bold" fill="#D3D3D3">MMMMMMMMM</text><text x="302.45" y="109.55" font-weight="bold" fill="#B22222">PP</text><text x="8.4" y="128.55" font-weight="bold" fill="#B22222"> PP</text><text x="25.2" y="128.55" font-weight="bold" fill="#D3D3D3">MMMM</text><text x="58.81" y="128.55" font-weight="bold" fill="#B22222">PPPPPPPPPP</text><text x="142.82" y="128.55" font-weight="bold" fill="#D3D3D3">MMM</text><text x="168.03" y="128.55" font-weight="bold" fill="#B22222">PPPPP</text><text x="210.03" y="128.55" font-weight="bold" fill="#D3D3D3">MMMMMMM</text><text x="268.84" y="128.55" font-weight="bold" fill="#B22222">P</text><text x="277.25" y="128.55" font-weight="bold" fill="#D3D3D3">MM</text><text x="294.05" y="128.55" font-weight="bold" fill="#B22222">PPPP</text><text x="8.4" y="147.55" font-weight="bold" fill="#B22222"> P</text><text x="16.8" y="147.55" font-weight="bold" fill="#D3D3D3">MMMMMMMMMM</text><text x="100.82" y="147.55" font-weight="bold" fill="#B22222">PPPPPP</text><text x="151.22" y="147.55" font-weight="bold" fill="#D3D3D3">MM</text><text x="168.03" y="147.55" font-weight="bold" fill="#B22222">PPPPP</text><text x="210.03" y="147.55" font-weight="bold" fill="#D3D3D3">MMMMMM</text><text x="260.44" y="147.55" font-weight="bold" fill="#B22222">PPPPPPPP</text><text x="0" y="166.55" font-weight="bold" fill="#B22222">P</text><text x="8.4" y="166.55" font-weight="bold" fill="#D3D3D3">MMMMMMMMMMMM</text><text x="109.22" y="166.55" font-weight="bold" fill="#B22222">PPPPP</text><text x="151.22" y="166.55" font-weight="bold" fill="#D3D3D3">MM</text><text x="168.03" y="166.55" font-weight="bold" fill="#B22222">PP</text><text x="184.83" y="166.55" font-weight="bold" fill="#D3D3D3">M</text><text x="193.23" y="166.55" font-weight="bold" fill="#B22222">P</text><text x="201.63" y="166.55" font-weight="bold" fill="#D3D3D3">MM</text><text x="218.44" y="166.55" font-weight="bold" fill="#B22222">P</text><text x="226.84" y="166.55" font-weight="bold" fill="#D3D3D3">MM</text><text x="243.64" y="166.55" font-weight="bold" fill="#B22222">PPPPPPPPPPP</text><text x="0" y="185.55" font-weight="bold" fill="#B22222">P</text><text x="8.4" y="185.55" font-weight="bold" fill="#D3D3D3">MMMMMMMMMMMMMMMM</text><text x="142.82" y="185.55" font-weight="bold" fill="#B22222">PP</text><text x="159.63" y="185.55" font-weight="bold" fill="#D3D3D3">M</text><text x="168.03" y="185.55" font-weight="bold" fill="#B22222">P</text><text x="176.43" y="185.55" font-weight="bold" fill="#D3D3D3">MMM</text><text x="201.63" y="185.55" font-weight="bold" fill="#B22222">PPPPPPPPPPPPPPPP</text><text x="0" y="204.55" font-weight="bold" fill="#B22222">P</text><text x="8.4" y="204.55" font-weight="bold" fill="#D3D3D3">MMM</text><text x="33.61" y="204.55" font-weight="bold" fill="#B22222">PPPPPPPPPPPPPPPPPPPPPPPPPPPPPP</text><text x="285.65" y="204.55" font-weight="bold" fill="#D3D3D3">MMMMM</text><text x="327.65" y="204.55" font-weight="bold" fill="#B22222">P</text><text x="0" y="223.55" font-weight="bold" fill="#B22222">PPPPPPPPPPPPPPPP</text><text x="134.42" y="223.55" font-weight="bold" fill="#D3D3D3">MMM</text><text x="159.63" y="223.55" font-weight="bold" fill="#B22222">P</text><text x="168.03" y="223.55" font-weight="bold" fill="#D3D3D3">M</text><text x="176.43" y="223.55" font-weight="bold" fill="#B22222">P</text><text x="184.83" y="223.55" font-weight="bold" fill="#D3D3D3">MMMMMMMMMMMMMMMM</text><text x="319.25" y="223.55" font-weight="bold" fill="#B22222">PP</text><text x="0" y="242.55" font-weight="bold" fill="#B22222">PPPPPPPPPPP</text><text x="92.42" y="242.55" font-weight="bold" fill="#D3D3D3">MM</text><text x="109.22" y="242.55" font-weight="bold" fill="#B22222">P</text><text x="117.62" y="242.55" font-weight="bold" fill="#D3D3D3">MM</text><text x="134.42" y="242.55" font-weight="bold" fill="#B22222">PPPP</text><text x="168.03" y="242.55" font-weight="bold" fill="#D3D3D3">MM</text><text x="184.83" y="242.55" font-weight="bold" fill="#B22222">PPPPP</text><text x="226.84" y="242.55" font-weight="bold" fill="#D3D3D3">MMMMMMMMMMM</text><text x="319.25" y="242.55" font-weight="bold" fill="#B22222">PP</text><text x="8.4" y="261.55" font-weight="bold" fill="#B22222"> PPPPPPPP</text><text x="75.61" y="261.55" font-weight="bold" fill="#D3D3D3">MMMMMM</text><text x="126.02" y="261.55" font-weight="bold" fill="#B22222">PPPPP</text><text x="168.03" y="261.55" font-weight="bold" fill="#D3D3D3">MM</text><text x="184.83" y="261.55" font-weight="bold" fill="#B22222">PPPPPP</text><text x="235.24" y="261.55" font-weight="bold" fill="#D3D3D3">MMMMMMMMM</text><text x="310.85" y="261.55" font-weight="bold" fill="#B22222">PP</text><text x="8.4" y="280.55" font-weight="bold" fill="#B22222"> PPPP</text><text x="42.01" y="280.55" font-weight="bold" fill="#D3D3D3">MM</text><text x="58.81" y="280.55" font-weight="bold" fill="#B22222">P</text><text x="67.21" y="280.55" font-weight="bold" fill="#D3D3D3">MMMMMMM</text><text x="126.02" y="280.55" font-weight="bold" fill="#B22222">PPPPPP</text><text x="176.43" y="280.55" font-weight="bold" fill="#D3D3D3">MM</text><text x="193.23" y="280.55" font-weight="bold" fill="#B22222">PPPPPPPPPP</text><text x="277.25" y="280.55" font-weight="bold" fill="#D3D3D3">MMMM</text><text x="310.85" y="280.55" font-weight="bold" fill="#B22222">PP</text><text x="16.8" y="299.55" font-weight="bold" fill="#B22222">  PP</text><text x="33.61" y="299.55" font-weight="bold" fill="#D3D3D3">MMMMMMMMM</text><text x="109.22" y="299.55" font-weight="bold" fill="#B22222">P</text><text x="117.62" y="299.55" font-weight="bold" fill="#D3D3D3">M</text><text x="126.02" y="299.55" font-weight="bold" fill="#B22222">PPPP</text><text x="159.63" y="299.55" font-weight="bold" fill="#D3D3D3">MMMMMM</text><text x="210.03" y="299.55" font-weight="bold" fill="#B22222">PPPPPPPPPPPPP</text><text x="25.2" y="318.55" font-weight="bold" fill="#B22222">   PP</text><text x="42.01" y="318.55" font-weight="bold" fill="#D3D3D3">MMMMMMM</text><text x="100.82" y="318.55" font-weight="bold" fill="#B22222">PPPPPPP</text><text x="159.63" y="318.55" font-weight="bold" fill="#D3D3D3">MMMMMM</text><text x="210.03" y="318.55" font-weight="bold" fill="#B22222">PPPPPPPPPPPP</text><text x="42.01" y="337.55" font-weight="bold" fill="#B22222">     PP</text><text x="58.81" y="337.55" font-weight="bold" fill="#D3D3D3">MMMM</text><text x="92.42" y="337.55" font-weight="bold" fill="#B22222">PPPPPPPPP</text><text x="168.03" y="337.55" font-weight="bold" fill="#D3D3D3">MMMMMMM</text><text x="226.84" y="337.55" font-weight="bold" fill="#B22222">PPPPPPPP</text><text x="58.81" y="356.55" font-weight="bold" fill="#B22222">       PP</text><text x="75.61" y="356.55" font-weight="bold" fill="#D3D3D3">MM</text><text x="92.42" y="356.55" font-weight="bold" fill="#B22222">PPPPPPPP</text><text x="159.63" y="356.55" font-weight="bold" fill="#D3D3D3">MMMMMMMMMM</text><text x="243.64" y="356.55" font-weight="bold" fill="#B22222">PPPP</text><text x="75.61" y="375.55" font-weight="bold" fill="#B22222">         PPPPPPPPPP</text><text x="159.63" y="375.55" font-weight="bold" fill="#D3D3D3">MMMMMMMM</text><text x="226.84" y="375.55" font-weight="bold" fill="#B22222">PPPP</text><text x="109.22" y="394.55" font-weight="bold" fill="#B22222">             PPPPPPPPPPPPPP</text></g></svg>