<svg xmlns="http://www.w3.org/2000/svg" viewBox="0, 0, 268.84, 573.45" font-family="SauceCodePro Nerd Font, Source Code Pro, Courier" font-size="14"><g fill="currentColor"><text x="33.61" y="14.55" font-weight="bold" fill="#4169E1">    ########################</text><text x="235.24" y="14.55" font-weight="bold" fill="#9932CC">(</text><text x="243.64" y="14.55" font-weight="bold" fill="#000000">ooo</text><text x="33.61" y="33.55" font-weight="bold" fill="#4169E1">    ########################</text><text x="235.24" y="33.55" font-weight="bold" fill="#9932CC">(</text><text x="243.64" y="33.55" font-weight="bold" fill="#000000">ooo</text><text x="0" y="52.55" font-weight="bold" fill="#4169E1">###</text><text x="25.2" y="52.55" font-weight="bold" fill="#9932CC">(</text><text x="33.61" y="52.55" font-weight="bold" fill="#000000">ooo                  </text><text x="210.03" y="52.55" font-weight="bold" fill="#4169E1">###</text><text x="235.24" y="52.55" font-weight="bold" fill="#9932CC">(</text><text x="243.64" y="52.55" font-weight="bold" fill="#000000">ooo</text><text x="0" y="71.55" font-weight="bold" fill="#4169E1">###</text><text x="25.2" y="71.55" font-weight="bold" fill="#9932CC">(</text><text x="33.61" y="71.55" font-weight="bold" fill="#000000">ooo                  </text><text x="210.03" y="71.55" font-weight="bold" fill="#4169E1">###</text><text x="235.24" y="71.55" font-weight="bold" fill="#9932CC">(</text><text x="243.64" y="71.55" font-weight="bold" fill="#000000">ooo</text><text x="0" y="90.55" font-weight="bold" fill="#4169E1">###</text><text x="25.2" y="90.55" font-weight="bold" fill="#9932CC">(</text><text x="33.61" y="90.55" font-weight="bold" fill="#000000">ooo                  </text><text x="210.03" y="90.55" font-weight="bold" fill="#4169E1">###</text><text x="235.24" y="90.55" font-weight="bold" fill="#9932CC">(</text><text x="243.64" y="90.55" font-weight="bold" fill="#000000">ooo</text><text x="0" y="109.55" font-weight="bold" fill="#4169E1">###</text><text x="25.2" y="109.55" font-weight="bold" fill="#9932CC">(</text><text x="33.61" y="109.55" font-weight="bold" fill="#000000">ooo                  </text><text x="210.03" y="109.55" font-weight="bold" fill="#4169E1">###</text><text x="235.24" y="109.55" font-weight="bold" fill="#9932CC">(</text><text x="243.64" y="109.55" font-weight="bold" fill="#000000">ooo</text><text x="0" y="128.55" font-weight="bold" fill="#4169E1">###</text><text x="25.2" y="128.55" font-weight="bold" fill="#9932CC">(</text><text x="33.61" y="128.55" font-weight="bold" fill="#000000">ooo                  </text><text x="210.03" y="128.55" font-weight="bold" fill="#4169E1">###</text><text x="235.24" y="128.55" font-weight="bold" fill="#9932CC">(</text><text x="243.64" y="128.55" font-weight="bold" fill="#000000">ooo</text><text x="0" y="147.55" font-weight="bold" fill="#4169E1">###</text><text x="25.2" y="147.55" font-weight="bold" fill="#9932CC">(</text><text x="33.61" y="147.55" font-weight="bold" fill="#000000">ooo                  </text><text x="210.03" y="147.55" font-weight="bold" fill="#4169E1">###</text><text x="235.24" y="147.55" font-weight="bold" fill="#9932CC">(</text><text x="243.64" y="147.55" font-weight="bold" fill="#000000">ooo</text><text x="0" y="166.55" font-weight="bold" fill="#4169E1">###</text><text x="25.2" y="166.55" font-weight="bold" fill="#9932CC">(</text><text x="33.61" y="166.55" font-weight="bold" fill="#000000">ooo           </text><text x="151.22" y="166.55" font-weight="bold" fill="#4169E1">##</text><text x="168.03" y="166.55" font-weight="bold" fill="#000000">o    </text><text x="210.03" y="166.55" font-weight="bold" fill="#9932CC">((((</text><text x="243.64" y="166.55" font-weight="bold" fill="#000000">ooo</text><text x="0" y="185.55" font-weight="bold" fill="#4169E1">###</text><text x="25.2" y="185.55" font-weight="bold" fill="#9932CC">(</text><text x="33.61" y="185.55" font-weight="bold" fill="#000000">ooo          o</text><text x="151.22" y="185.55" font-weight="bold" fill="#9932CC">((</text><text x="168.03" y="185.55" font-weight="bold" fill="#4169E1">###   </text><text x="218.44" y="185.55" font-weight="bold" fill="#000000">oooooo</text><text x="0" y="204.55" font-weight="bold" fill="#4169E1">###</text><text x="25.2" y="204.55" font-weight="bold" fill="#9932CC">(</text><text x="33.61" y="204.55" font-weight="bold" fill="#000000">ooo           oo</text><text x="168.03" y="204.55" font-weight="bold" fill="#9932CC">((</text><text x="184.83" y="204.55" font-weight="bold" fill="#4169E1">###</text><text x="210.03" y="204.55" font-weight="bold" fill="#000000">o</text><text x="0" y="223.55" font-weight="bold" fill="#4169E1">###</text><text x="25.2" y="223.55" font-weight="bold" fill="#9932CC">(</text><text x="33.61" y="223.55" font-weight="bold" fill="#000000">ooo             ooo</text><text x="193.23" y="223.55" font-weight="bold" fill="#9932CC">((</text><text x="210.03" y="223.55" font-weight="bold" fill="#4169E1">###</text><text x="0" y="242.55" font-weight="bold" fill="#4169E1">################</text><text x="134.42" y="242.55" font-weight="bold" fill="#9932CC">(</text><text x="142.82" y="242.55" font-weight="bold" fill="#000000">oo    oo</text><text x="210.03" y="242.55" font-weight="bold" fill="#9932CC">((((</text><text x="243.64" y="242.55" font-weight="bold" fill="#000000">o</text><text x="0" y="261.55" font-weight="bold" fill="#9932CC">(((((((((((((((((</text><text x="142.82" y="261.55" font-weight="bold" fill="#000000">ooo     ooooo</text><text x="16.8" y="280.55" font-weight="bold" fill="#000000">  oooooooooooooooooo        o</text></g></svg>