<svg xmlns="http://www.w3.org/2000/svg" viewBox="0, 0, 369.66, 763.45" font-family="SauceCodePro Nerd Font, Source Code Pro, Courier" font-size="14"><g fill="currentColor"><text x="84.01" y="14.55" font-weight="bold" fill="#000000">          </text><text x="84.01" y="14.55" font-weight="bold" fill="#000000">.======================.</text><text x="75.61" y="33.55" font-weight="bold" fill="#000000">         </text><text x="75.61" y="33.55" font-weight="bold" fill="#000000">.#</text><text x="92.42" y="33.55" font-weight="bold" fill="#4169E1">#*********</text><text x="176.43" y="33.55" font-weight="bold" fill="#000000">%%</text><text x="193.23" y="33.55" font-weight="bold" fill="#4169E1">*********#</text><text x="277.25" y="33.55" font-weight="bold" fill="#000000">%:</text><text x="67.21" y="52.55" font-weight="bold" fill="#000000">        </text><text x="67.21" y="52.55" font-weight="bold" fill="#000000">:%</text><text x="84.01" y="52.55" font-weight="bold" fill="#4169E1">#**********</text><text x="176.43" y="52.55" font-weight="bold" fill="#000000">%%</text><text x="193.23" y="52.55" font-weight="bold" fill="#4169E1">**********#</text><text x="285.65" y="52.55" font-weight="bold" fill="#000000">%-</text><text x="58.81" y="71.55" font-weight="bold" fill="#000000">       </text><text x="58.81" y="71.55" font-weight="bold" fill="#000000">-%</text><text x="75.61" y="71.55" font-weight="bold" fill="#4169E1">************</text><text x="176.43" y="71.55" font-weight="bold" fill="#000000">%%</text><text x="193.23" y="71.55" font-weight="bold" fill="#4169E1">************</text><text x="294.05" y="71.55" font-weight="bold" fill="#000000">%=</text><text x="50.41" y="90.55" font-weight="bold" fill="#000000">      </text><text x="50.41" y="90.55" font-weight="bold" fill="#000000">+%</text><text x="67.21" y="90.55" font-weight="bold" fill="#4169E1">******</text><text x="117.62" y="90.55" font-weight="bold" fill="#000000">%%#####</text><text x="176.43" y="90.55" font-weight="bold" fill="#000000">%%#####%%</text><text x="252.04" y="90.55" font-weight="bold" fill="#4169E1">******</text><text x="302.45" y="90.55" font-weight="bold" fill="#000000">%+</text><text x="42.01" y="109.55" font-weight="bold" fill="#000000">     </text><text x="42.01" y="109.55" font-weight="bold" fill="#000000">*%%#</text><text x="75.61" y="109.55" font-weight="bold" fill="#4169E1">****</text><text x="109.22" y="109.55" font-weight="bold" fill="#000000">%#</text><text x="126.02" y="109.55" font-weight="bold" fill="#008B8B">+=====</text><text x="176.43" y="109.55" font-weight="bold" fill="#000000">%%</text><text x="193.23" y="109.55" font-weight="bold" fill="#008B8B">=====+</text><text x="243.64" y="109.55" font-weight="bold" fill="#000000">#%</text><text x="260.44" y="109.55" font-weight="bold" fill="#4169E1">****</text><text x="294.05" y="109.55" font-weight="bold" fill="#000000">#%%*</text><text x="33.61" y="128.55" font-weight="bold" fill="#000000">    </text><text x="33.61" y="128.55" font-weight="bold" fill="#000000">*%</text><text x="50.41" y="128.55" font-weight="bold" fill="#4169E1">*#</text><text x="67.21" y="128.55" font-weight="bold" fill="#000000">#%%#%#</text><text x="117.62" y="128.55" font-weight="bold" fill="#008B8B">====+++</text><text x="176.43" y="128.55" font-weight="bold" fill="#000000">%%</text><text x="193.23" y="128.55" font-weight="bold" fill="#008B8B">+++====</text><text x="252.04" y="128.55" font-weight="bold" fill="#000000">#%#%%#</text><text x="302.45" y="128.55" font-weight="bold" fill="#4169E1">#*</text><text x="319.25" y="128.55" font-weight="bold" fill="#000000">##.</text><text x="16.8" y="147.55" font-weight="bold" fill="#000000">  </text><text x="16.8" y="147.55" font-weight="bold" fill="#000000">.##</text><text x="42.01" y="147.55" font-weight="bold" fill="#4169E1">*****</text><text x="84.01" y="147.55" font-weight="bold" fill="#000000">#%%%#</text><text x="126.02" y="147.55" font-weight="bold" fill="#008B8B">*++</text><text x="151.22" y="147.55" font-weight="bold" fill="#000000">%######%</text><text x="218.44" y="147.55" font-weight="bold" fill="#008B8B">*+*</text><text x="243.64" y="147.55" font-weight="bold" fill="#000000">#%%%#</text><text x="285.65" y="147.55" font-weight="bold" fill="#4169E1">*****</text><text x="327.65" y="147.55" font-weight="bold" fill="#000000">#%.</text><text x="8.4" y="166.55" font-weight="bold" fill="#000000"> </text><text x="8.4" y="166.55" font-weight="bold" fill="#000000">:%#</text><text x="33.61" y="166.55" font-weight="bold" fill="#4169E1">*****</text><text x="75.61" y="166.55" font-weight="bold" fill="#000000">#%</text><text x="92.42" y="166.55" font-weight="bold" fill="#008B8B">*=+*</text><text x="126.02" y="166.55" font-weight="bold" fill="#000000">#%%</text><text x="151.22" y="166.55" font-weight="bold" fill="#008B8B">*++++++*</text><text x="218.44" y="166.55" font-weight="bold" fill="#000000">%%#</text><text x="243.64" y="166.55" font-weight="bold" fill="#008B8B">*+=*</text><text x="277.25" y="166.55" font-weight="bold" fill="#000000">%#</text><text x="294.05" y="166.55" font-weight="bold" fill="#4169E1">*****</text><text x="336.05" y="166.55" font-weight="bold" fill="#000000">#%:</text><text x="0" y="185.55" font-weight="bold" fill="#000000">-%#</text><text x="25.2" y="185.55" font-weight="bold" fill="#4169E1">*****</text><text x="67.21" y="185.55" font-weight="bold" fill="#000000">#%</text><text x="84.01" y="185.55" font-weight="bold" fill="#008B8B">+====*</text><text x="134.42" y="185.55" font-weight="bold" fill="#000000">%</text><text x="142.82" y="185.55" font-weight="bold" fill="#008B8B">*++++++++*</text><text x="226.84" y="185.55" font-weight="bold" fill="#000000">%#</text><text x="243.64" y="185.55" font-weight="bold" fill="#008B8B">====+</text><text x="285.65" y="185.55" font-weight="bold" fill="#000000">%#</text><text x="302.45" y="185.55" font-weight="bold" fill="#4169E1">******</text><text x="352.86" y="185.55" font-weight="bold" fill="#000000">%-</text><text x="0" y="204.55" font-weight="bold" fill="#000000">-%#</text><text x="25.2" y="204.55" font-weight="bold" fill="#4169E1">*****</text><text x="67.21" y="204.55" font-weight="bold" fill="#000000">#%</text><text x="84.01" y="204.55" font-weight="bold" fill="#008B8B">+====*</text><text x="134.42" y="204.55" font-weight="bold" fill="#000000">%</text><text x="142.82" y="204.55" font-weight="bold" fill="#008B8B">*++++++++*</text><text x="226.84" y="204.55" font-weight="bold" fill="#000000">%#</text><text x="243.64" y="204.55" font-weight="bold" fill="#008B8B">====+</text><text x="285.65" y="204.55" font-weight="bold" fill="#000000">%#</text><text x="302.45" y="204.55" font-weight="bold" fill="#4169E1">******</text><text x="352.86" y="204.55" font-weight="bold" fill="#000000">%=</text><text x="8.4" y="223.55" font-weight="bold" fill="#000000"> </text><text x="8.4" y="223.55" font-weight="bold" fill="#000000">:%#</text><text x="33.61" y="223.55" font-weight="bold" fill="#4169E1">*****</text><text x="75.61" y="223.55" font-weight="bold" fill="#000000">#%</text><text x="92.42" y="223.55" font-weight="bold" fill="#008B8B">*=+*</text><text x="126.02" y="223.55" font-weight="bold" fill="#000000">#%%</text><text x="151.22" y="223.55" font-weight="bold" fill="#008B8B">*++++++*</text><text x="218.44" y="223.55" font-weight="bold" fill="#000000">%%#</text><text x="243.64" y="223.55" font-weight="bold" fill="#008B8B">*+=*</text><text x="277.25" y="223.55" font-weight="bold" fill="#000000">%#</text><text x="294.05" y="223.55" font-weight="bold" fill="#4169E1">*****</text><text x="336.05" y="223.55" font-weight="bold" fill="#000000">#%-</text><text x="16.8" y="242.55" font-weight="bold" fill="#000000">  </text><text x="16.8" y="242.55" font-weight="bold" fill="#000000">.##</text><text x="42.01" y="242.55" font-weight="bold" fill="#4169E1">*****</text><text x="84.01" y="242.55" font-weight="bold" fill="#000000">#%%%#</text><text x="126.02" y="242.55" font-weight="bold" fill="#008B8B">*+*</text><text x="151.22" y="242.55" font-weight="bold" fill="#000000">%######%</text><text x="218.44" y="242.55" font-weight="bold" fill="#008B8B">*+*</text><text x="243.64" y="242.55" font-weight="bold" fill="#000000">#%%%#</text><text x="285.65" y="242.55" font-weight="bold" fill="#4169E1">*****</text><text x="327.65" y="242.55" font-weight="bold" fill="#000000">#%:</text><text x="25.2" y="261.55" font-weight="bold" fill="#000000">   </text><text x="25.2" y="261.55" font-weight="bold" fill="#000000">.##</text><text x="50.41" y="261.55" font-weight="bold" fill="#4169E1">**</text><text x="67.21" y="261.55" font-weight="bold" fill="#000000">#%%#%#</text><text x="117.62" y="261.55" font-weight="bold" fill="#008B8B">====+++</text><text x="176.43" y="261.55" font-weight="bold" fill="#000000">%%</text><text x="193.23" y="261.55" font-weight="bold" fill="#008B8B">+++====</text><text x="252.04" y="261.55" font-weight="bold" fill="#000000">#%#%%#</text><text x="302.45" y="261.55" font-weight="bold" fill="#4169E1">#*</text><text x="319.25" y="261.55" font-weight="bold" fill="#000000">##.</text><text x="42.01" y="280.55" font-weight="bold" fill="#000000">     </text><text x="42.01" y="280.55" font-weight="bold" fill="#000000">*%%#</text><text x="75.61" y="280.55" font-weight="bold" fill="#4169E1">****</text><text x="109.22" y="280.55" font-weight="bold" fill="#000000">%#</text><text x="126.02" y="280.55" font-weight="bold" fill="#008B8B">+=====</text><text x="176.43" y="280.55" font-weight="bold" fill="#000000">%%</text><text x="193.23" y="280.55" font-weight="bold" fill="#008B8B">=====+</text><text x="243.64" y="280.55" font-weight="bold" fill="#000000">#%</text><text x="260.44" y="280.55" font-weight="bold" fill="#4169E1">****</text><text x="294.05" y="280.55" font-weight="bold" fill="#000000">#%%*</text><text x="50.41" y="299.55" font-weight="bold" fill="#000000">      </text><text x="50.41" y="299.55" font-weight="bold" fill="#000000">+%</text><text x="67.21" y="299.55" font-weight="bold" fill="#4169E1">******</text><text x="117.62" y="299.55" font-weight="bold" fill="#000000">%%#####%%#####%%</text><text x="252.04" y="299.55" font-weight="bold" fill="#4169E1">******</text><text x="302.45" y="299.55" font-weight="bold" fill="#000000">%*</text><text x="58.81" y="318.55" font-weight="bold" fill="#000000">       </text><text x="58.81" y="318.55" font-weight="bold" fill="#000000">-%</text><text x="75.61" y="318.55" font-weight="bold" fill="#4169E1">************</text><text x="176.43" y="318.55" font-weight="bold" fill="#000000">%%</text><text x="193.23" y="318.55" font-weight="bold" fill="#4169E1">************</text><text x="294.05" y="318.55" font-weight="bold" fill="#000000">%=</text><text x="67.21" y="337.55" font-weight="bold" fill="#000000">        </text><text x="67.21" y="337.55" font-weight="bold" fill="#000000">:%</text><text x="84.01" y="337.55" font-weight="bold" fill="#4169E1">#**********</text><text x="176.43" y="337.55" font-weight="bold" fill="#000000">%%</text><text x="193.23" y="337.55" font-weight="bold" fill="#4169E1">**********#</text><text x="285.65" y="337.55" font-weight="bold" fill="#000000">%-</text><text x="75.61" y="356.55" font-weight="bold" fill="#000000">         </text><text x="75.61" y="356.55" font-weight="bold" fill="#000000">:%</text><text x="92.42" y="356.55" font-weight="bold" fill="#4169E1">#*********</text><text x="176.43" y="356.55" font-weight="bold" fill="#000000">%%</text><text x="193.23" y="356.55" font-weight="bold" fill="#4169E1">*********#</text><text x="277.25" y="356.55" font-weight="bold" fill="#000000">%:</text><text x="84.01" y="375.55" font-weight="bold" fill="#000000">          </text><text x="84.01" y="375.55" font-weight="bold" fill="#000000">.======================.</text></g></svg>