<svg xmlns="http://www.w3.org/2000/svg" viewBox="0, 0, 151.22, 611.45" font-family="SauceCodePro Nerd Font, Source Code Pro, Courier" font-size="14"><g fill="currentColor"><text x="16.8" y="14.55" font-weight="bold" fill="#008B8B">  ______________</text><text x="0" y="33.55" font-weight="bold" fill="#008B8B">/P</text><text x="16.8" y="33.55" font-weight="bold" fill="#D3D3D3">aooooooooooooa</text><text x="134.42" y="33.55" font-weight="bold" fill="#008B8B">9\</text><text x="0" y="52.55" font-weight="bold" fill="#008B8B">H</text><text x="8.4" y="52.55" font-weight="bold" fill="#D3D3D3">EEEEEEEEEEEEEEEE</text><text x="142.82" y="52.55" font-weight="bold" fill="#008B8B">H</text><text x="0" y="71.55" font-weight="bold" fill="#008B8B">H</text><text x="8.4" y="71.55" font-weight="bold" fill="#D3D3D3">EEEEEEEEEEEEEEEE</text><text x="142.82" y="71.55" font-weight="bold" fill="#008B8B">H</text><text x="0" y="90.55" font-weight="bold" fill="#008B8B">\baaaaaaap;</text><text x="92.42" y="90.55" font-weight="bold" fill="#D3D3D3">ZZZZ</text><text x="126.02" y="90.55" font-weight="bold" fill="#008B8B">,/*</text><text x="58.81" y="109.55" font-weight="bold" fill="#008B8B">       x%&#x22;</text><text x="84.01" y="109.55" font-weight="bold" fill="#D3D3D3">ZZZZ</text><text x="117.62" y="109.55" font-weight="bold" fill="#008B8B">,%^</text><text x="50.41" y="128.55" font-weight="bold" fill="#008B8B">      &#x3E;7&#x27;</text><text x="75.61" y="128.55" font-weight="bold" fill="#D3D3D3">ZZZZ</text><text x="109.22" y="128.55" font-weight="bold" fill="#008B8B">,%&#x22;</text><text x="42.01" y="147.55" font-weight="bold" fill="#008B8B">     /7&#x27;</text><text x="67.21" y="147.55" font-weight="bold" fill="#D3D3D3">ZZZZ</text><text x="100.82" y="147.55" font-weight="bold" fill="#008B8B">/&#x3E;&#x27;</text><text x="25.2" y="166.55" font-weight="bold" fill="#008B8B">   ,//</text><text x="50.41" y="166.55" font-weight="bold" fill="#D3D3D3">ZZZZ</text><text x="84.01" y="166.55" font-weight="bold" fill="#008B8B">,//</text><text x="16.8" y="185.55" font-weight="bold" fill="#008B8B">  ,%&#x3C;</text><text x="42.01" y="185.55" font-weight="bold" fill="#D3D3D3">ZZZZ</text><text x="75.61" y="185.55" font-weight="bold" fill="#008B8B">,%&#x3C;</text><text x="8.4" y="204.55" font-weight="bold" fill="#008B8B"> &#x3E;%^</text><text x="33.61" y="204.55" font-weight="bold" fill="#D3D3D3">ZZZZ</text><text x="67.21" y="204.55" font-weight="bold" fill="#008B8B">x%^_____</text><text x="0" y="223.55" font-weight="bold" fill="#008B8B">4&#x3E;&#x27;</text><text x="25.2" y="223.55" font-weight="bold" fill="#D3D3D3">ZZZZ</text><text x="58.81" y="223.55" font-weight="bold" fill="#008B8B">---------9b</text><text x="0" y="242.55" font-weight="bold" fill="#008B8B">H</text><text x="8.4" y="242.55" font-weight="bold" fill="#D3D3D3">EEEEEEEEEEEEEEEE</text><text x="142.82" y="242.55" font-weight="bold" fill="#008B8B">H</text><text x="0" y="261.55" font-weight="bold" fill="#008B8B">H</text><text x="8.4" y="261.55" font-weight="bold" fill="#D3D3D3">EEEEEEEEEEEEEEEE</text><text x="142.82" y="261.55" font-weight="bold" fill="#008B8B">H</text><text x="0" y="280.55" font-weight="bold" fill="#008B8B">Yq</text><text x="16.8" y="280.55" font-weight="bold" fill="#D3D3D3">^************^</text><text x="134.42" y="280.55" font-weight="bold" fill="#008B8B">pY</text><text x="16.8" y="299.55" font-weight="bold" fill="#008B8B">  &#x60;&#x60;&#x60;&#x60;&#x60;&#x60;&#x60;&#x60;&#x60;&#x60;&#x60;&#x60;&#x60;&#x60;</text></g></svg>