<svg xmlns="http://www.w3.org/2000/svg" viewBox="0, 0, 420.07, 687.45" font-family="SauceCodePro Nerd Font, Source Code Pro, Courier" font-size="14"><g fill="currentColor"><text x="184.83" y="14.55" font-weight="bold">                      ++  </text><text x="218.44" y="14.55" font-weight="bold">++</text><text x="151.22" y="33.55" font-weight="bold">                  </text><text x="151.22" y="33.55" font-weight="bold">++++++  </text><text x="218.44" y="33.55" font-weight="bold">++++++</text><text x="126.02" y="52.55" font-weight="bold">               </text><text x="126.02" y="52.55" font-weight="bold">+++++++++  </text><text x="218.44" y="52.55" font-weight="bold">+++++++++</text><text x="126.02" y="71.55" font-weight="bold">               </text><text x="126.02" y="71.55" font-weight="bold">+++++++      </text><text x="235.24" y="71.55" font-weight="bold">+++++++</text><text x="67.21" y="90.55" font-weight="bold">        </text><text x="67.21" y="90.55" font-weight="bold">+++  </text><text x="109.22" y="90.55" font-weight="bold">+++  </text><text x="151.22" y="90.55" font-weight="bold">+  </text><text x="176.43" y="90.55" font-weight="bold">--------</text><text x="260.44" y="90.55" font-weight="bold">  </text><text x="260.44" y="90.55" font-weight="bold">+  </text><text x="285.65" y="90.55" font-weight="bold">+++  </text><text x="327.65" y="90.55" font-weight="bold">+++</text><text x="42.01" y="109.55" font-weight="bold">     </text><text x="42.01" y="109.55" font-weight="bold">++++++  </text><text x="109.22" y="109.55" font-weight="bold">++++++   </text><text x="184.83" y="109.55" font-weight="bold">------</text><text x="260.44" y="109.55" font-weight="bold">   ++++++  </text><text x="327.65" y="109.55" font-weight="bold">++++++</text><text x="25.2" y="128.55" font-weight="bold">   </text><text x="25.2" y="128.55" font-weight="bold">++++++++  </text><text x="109.22" y="128.55" font-weight="bold">++++++++++    </text><text x="226.84" y="128.55" font-weight="bold">++++++++++  </text><text x="327.65" y="128.55" font-weight="bold">++++++++</text><text x="16.8" y="147.55" font-weight="bold">  </text><text x="16.8" y="147.55" font-weight="bold">+++++++  </text><text x="92.42" y="147.55" font-weight="bold">--</text><text x="126.02" y="147.55" font-weight="bold">  </text><text x="126.02" y="147.55" font-weight="bold">+++++++      </text><text x="235.24" y="147.55" font-weight="bold">+++++++  </text><text x="310.85" y="147.55" font-weight="bold">--</text><text x="344.46" y="147.55" font-weight="bold">  </text><text x="344.46" y="147.55" font-weight="bold">+++++++</text><text x="0" y="166.55" font-weight="bold">+++  </text><text x="42.01" y="166.55" font-weight="bold">+  </text><text x="67.21" y="166.55" font-weight="bold">--------</text><text x="151.22" y="166.55" font-weight="bold">  </text><text x="151.22" y="166.55" font-weight="bold">+  </text><text x="176.43" y="166.55" font-weight="bold">+++  </text><text x="218.44" y="166.55" font-weight="bold">+++  </text><text x="260.44" y="166.55" font-weight="bold">+  </text><text x="285.65" y="166.55" font-weight="bold">--------</text><text x="369.66" y="166.55" font-weight="bold">  </text><text x="369.66" y="166.55" font-weight="bold">+  </text><text x="394.86" y="166.55" font-weight="bold">+++</text><text x="0" y="185.55" font-weight="bold">++++++  </text><text x="67.21" y="185.55" font-weight="bold">--------</text><text x="151.22" y="185.55" font-weight="bold">  ++++++  </text><text x="218.44" y="185.55" font-weight="bold">++++++  </text><text x="285.65" y="185.55" font-weight="bold">--------</text><text x="369.66" y="185.55" font-weight="bold">  ++++++</text><text x="0" y="204.55" font-weight="bold">++++++++++     </text><text x="126.02" y="204.55" font-weight="bold">+++++++++  </text><text x="218.44" y="204.55" font-weight="bold">+++++++++     </text><text x="336.05" y="204.55" font-weight="bold">++++++++++</text><text x="16.8" y="223.55" font-weight="bold">  </text><text x="16.8" y="223.55" font-weight="bold">+++++++++    </text><text x="126.02" y="223.55" font-weight="bold">+++++++  </text><text x="201.63" y="223.55" font-weight="bold">--</text><text x="235.24" y="223.55" font-weight="bold">  </text><text x="235.24" y="223.55" font-weight="bold">+++++++    </text><text x="327.65" y="223.55" font-weight="bold">+++++++++</text><text x="50.41" y="242.55" font-weight="bold">      </text><text x="50.41" y="242.55" font-weight="bold">+++++  +++     </text><text x="176.43" y="242.55" font-weight="bold">--------</text><text x="285.65" y="242.55" font-weight="bold">     +++  +++++</text><text x="75.61" y="261.55" font-weight="bold">         </text><text x="75.61" y="261.55" font-weight="bold">++  +++++++  </text><text x="184.83" y="261.55" font-weight="bold">------</text><text x="252.04" y="261.55" font-weight="bold">  +++++++  ++</text><text x="109.22" y="280.55" font-weight="bold">             </text><text x="109.22" y="280.55" font-weight="bold">++++++++++    </text><text x="226.84" y="280.55" font-weight="bold">++++++++++</text><text x="134.42" y="299.55" font-weight="bold">                </text><text x="134.42" y="299.55" font-weight="bold">++++++++  </text><text x="218.44" y="299.55" font-weight="bold">++++++++</text><text x="159.63" y="318.55" font-weight="bold">                   </text><text x="159.63" y="318.55" font-weight="bold">+++++  </text><text x="218.44" y="318.55" font-weight="bold">+++++</text><text x="184.83" y="337.55" font-weight="bold">                      </text><text x="184.83" y="337.55" font-weight="bold">++  </text><text x="218.44" y="337.55" font-weight="bold">++</text></g></svg>