<svg xmlns="http://www.w3.org/2000/svg" viewBox="0, 0, 151.22, 421.45" font-family="SauceCodePro Nerd Font, Source Code Pro, Courier" font-size="14"><g fill="currentColor"><text x="58.81" y="14.55" font-weight="bold">       UUUU</text><text x="33.61" y="33.55" font-weight="bold">    UUUUUUUUUU</text><text x="8.4" y="52.55" font-weight="bold"> </text><text x="8.4" y="52.55" font-weight="bold" fill="#D3D3D3">BBB</text><text x="33.61" y="52.55" font-weight="bold" fill="#D3D3D3">UUUU</text><text x="67.21" y="52.55" font-weight="bold" fill="#D3D3D3">BBBBBB</text><text x="117.62" y="52.55" font-weight="bold" fill="#D3D3D3">UU</text><text x="134.42" y="52.55" font-weight="bold" fill="#A9A9A9">#</text><text x="0" y="71.55" font-weight="bold" fill="#A9A9A9">U</text><text x="8.4" y="71.55" font-weight="bold" fill="#D3D3D3">BBB</text><text x="33.61" y="71.55" font-weight="bold" fill="#D3D3D3">UUUU</text><text x="67.21" y="71.55" font-weight="bold" fill="#D3D3D3">BBB</text><text x="92.42" y="71.55" font-weight="bold" fill="#D3D3D3">UUU</text><text x="117.62" y="71.55" font-weight="bold" fill="#D3D3D3">B</text><text x="126.02" y="71.55" font-weight="bold" fill="#D3D3D3">UU</text><text x="142.82" y="71.55" font-weight="bold" fill="#A9A9A9">#</text><text x="0" y="90.55" font-weight="bold" fill="#A9A9A9">U</text><text x="8.4" y="90.55" font-weight="bold" fill="#D3D3D3">BBB</text><text x="33.61" y="90.55" font-weight="bold" fill="#D3D3D3">UUUU</text><text x="67.21" y="90.55" font-weight="bold" fill="#D3D3D3">BBB</text><text x="92.42" y="90.55" font-weight="bold" fill="#D3D3D3">UUU</text><text x="117.62" y="90.55" font-weight="bold" fill="#D3D3D3">B</text><text x="126.02" y="90.55" font-weight="bold" fill="#D3D3D3">UU</text><text x="142.82" y="90.55" font-weight="bold" fill="#A9A9A9">#</text><text x="0" y="109.55" font-weight="bold" fill="#A9A9A9">U</text><text x="8.4" y="109.55" font-weight="bold" fill="#D3D3D3">BBB</text><text x="33.61" y="109.55" font-weight="bold" fill="#D3D3D3">UUUU</text><text x="67.21" y="109.55" font-weight="bold" fill="#D3D3D3">BBBBBB</text><text x="117.62" y="109.55" font-weight="bold" fill="#D3D3D3">UUU</text><text x="142.82" y="109.55" font-weight="bold" fill="#A9A9A9">#</text><text x="0" y="128.55" font-weight="bold" fill="#A9A9A9">U</text><text x="8.4" y="128.55" font-weight="bold" fill="#D3D3D3">BBB</text><text x="33.61" y="128.55" font-weight="bold" fill="#D3D3D3">UUUU</text><text x="67.21" y="128.55" font-weight="bold" fill="#D3D3D3">BBB</text><text x="92.42" y="128.55" font-weight="bold" fill="#D3D3D3">UUU</text><text x="117.62" y="128.55" font-weight="bold" fill="#D3D3D3">BB</text><text x="134.42" y="128.55" font-weight="bold" fill="#D3D3D3">U</text><text x="142.82" y="128.55" font-weight="bold" fill="#A9A9A9">#</text><text x="0" y="147.55" font-weight="bold" fill="#A9A9A9">UU</text><text x="16.8" y="147.55" font-weight="bold" fill="#D3D3D3">BBB</text><text x="42.01" y="147.55" font-weight="bold" fill="#D3D3D3">UUU</text><text x="67.21" y="147.55" font-weight="bold" fill="#D3D3D3">BBB</text><text x="92.42" y="147.55" font-weight="bold" fill="#D3D3D3">UUU</text><text x="117.62" y="147.55" font-weight="bold" fill="#D3D3D3">BB</text><text x="134.42" y="147.55" font-weight="bold" fill="#D3D3D3">U</text><text x="142.82" y="147.55" font-weight="bold" fill="#A9A9A9">#</text><text x="8.4" y="166.55" font-weight="bold" fill="#A9A9A9"> UU</text><text x="25.2" y="166.55" font-weight="bold" fill="#D3D3D3">BBBBBBBBBBB</text><text x="117.62" y="166.55" font-weight="bold" fill="#D3D3D3">UU</text><text x="134.42" y="166.55" font-weight="bold" fill="#A9A9A9">#</text><text x="33.61" y="185.55" font-weight="bold" fill="#A9A9A9">    UUUUUUUUU</text><text x="109.22" y="185.55" font-weight="bold" fill="#A9A9A9">#</text><text x="58.81" y="204.55" font-weight="bold" fill="#A9A9A9">       UUU</text><text x="84.01" y="204.55" font-weight="bold" fill="#A9A9A9">#</text></g></svg>