<svg xmlns="http://www.w3.org/2000/svg" viewBox="0, 0, 336.05, 763.45" font-family="SauceCodePro Nerd Font, Source Code Pro, Courier" font-size="14"><g fill="currentColor"><text x="100.82" y="14.55" font-weight="bold" fill="#008B8B">            .-/+oossssoo+\-.</text><text x="67.21" y="33.55" font-weight="bold" fill="#008B8B">        &#xB4;:+ssssssssssssssssss+:&#x60;</text><text x="50.41" y="52.55" font-weight="bold" fill="#008B8B">      -+ssssssssssssssssss</text><text x="218.44" y="52.55" font-weight="bold" fill="#D3D3D3">yy</text><text x="235.24" y="52.55" font-weight="bold" fill="#008B8B">ssss+-</text><text x="33.61" y="71.55" font-weight="bold" fill="#008B8B">    .ossssssssssssssssss</text><text x="201.63" y="71.55" font-weight="bold" fill="#D3D3D3">dMMMNyy</text><text x="260.44" y="71.55" font-weight="bold" fill="#008B8B">ssso.</text><text x="25.2" y="90.55" font-weight="bold" fill="#008B8B">   /sssssssssss</text><text x="126.02" y="90.55" font-weight="bold" fill="#D3D3D3">hdmmNNmmyNMMMMh</text><text x="252.04" y="90.55" font-weight="bold" fill="#008B8B">ssssss\</text><text x="16.8" y="109.55" font-weight="bold" fill="#008B8B">  +sssssssss</text><text x="100.82" y="109.55" font-weight="bold" fill="#D3D3D3">hm</text><text x="117.62" y="109.55" font-weight="bold" fill="#008B8B">ydMMMMMMMNdd</text><text x="218.44" y="109.55" font-weight="bold" fill="#D3D3D3">ddy</text><text x="243.64" y="109.55" font-weight="bold" fill="#008B8B">ssssssss+</text><text x="8.4" y="128.55" font-weight="bold" fill="#008B8B"> /ssssssss</text><text x="84.01" y="128.55" font-weight="bold" fill="#D3D3D3">hN</text><text x="100.82" y="128.55" font-weight="bold" fill="#008B8B">MM</text><text x="117.62" y="128.55" font-weight="bold" fill="#D3D3D3">M</text><text x="126.02" y="128.55" font-weight="bold" fill="#008B8B">yh</text><text x="142.82" y="128.55" font-weight="bold" fill="#D3D3D3">hyyyyhmNM</text><text x="218.44" y="128.55" font-weight="bold" fill="#008B8B">MM</text><text x="235.24" y="128.55" font-weight="bold" fill="#D3D3D3">Nh</text><text x="252.04" y="128.55" font-weight="bold" fill="#008B8B">ssssssss\</text><text x="0" y="147.55" font-weight="bold" fill="#008B8B">.ssssssss</text><text x="75.61" y="147.55" font-weight="bold" fill="#D3D3D3">dM</text><text x="92.42" y="147.55" font-weight="bold" fill="#008B8B">MM</text><text x="109.22" y="147.55" font-weight="bold" fill="#D3D3D3">Nh</text><text x="126.02" y="147.55" font-weight="bold" fill="#008B8B">ssssssssss</text><text x="210.03" y="147.55" font-weight="bold" fill="#D3D3D3">hN</text><text x="226.84" y="147.55" font-weight="bold" fill="#008B8B">MM</text><text x="243.64" y="147.55" font-weight="bold" fill="#D3D3D3">Md</text><text x="260.44" y="147.55" font-weight="bold" fill="#008B8B">ssssssss.</text><text x="0" y="166.55" font-weight="bold" fill="#008B8B">+sss</text><text x="33.61" y="166.55" font-weight="bold" fill="#D3D3D3">yyyyyN</text><text x="84.01" y="166.55" font-weight="bold" fill="#008B8B">MM</text><text x="100.82" y="166.55" font-weight="bold" fill="#D3D3D3">Ny</text><text x="117.62" y="166.55" font-weight="bold" fill="#008B8B">ssssssssssss</text><text x="218.44" y="166.55" font-weight="bold" fill="#D3D3D3">yN</text><text x="235.24" y="166.55" font-weight="bold" fill="#008B8B">MM</text><text x="252.04" y="166.55" font-weight="bold" fill="#D3D3D3">My</text><text x="268.84" y="166.55" font-weight="bold" fill="#008B8B">sssssss+</text><text x="0" y="185.55" font-weight="bold" fill="#008B8B">ossy</text><text x="33.61" y="185.55" font-weight="bold" fill="#D3D3D3">NMMMNy</text><text x="84.01" y="185.55" font-weight="bold" fill="#008B8B">MM</text><text x="100.82" y="185.55" font-weight="bold" fill="#D3D3D3">h</text><text x="109.22" y="185.55" font-weight="bold" fill="#008B8B">ssssssssssssss</text><text x="226.84" y="185.55" font-weight="bold" fill="#D3D3D3">hm</text><text x="243.64" y="185.55" font-weight="bold" fill="#008B8B">mm</text><text x="260.44" y="185.55" font-weight="bold" fill="#D3D3D3">h</text><text x="268.84" y="185.55" font-weight="bold" fill="#008B8B">ssssssso</text><text x="0" y="204.55" font-weight="bold" fill="#008B8B">ossy</text><text x="33.61" y="204.55" font-weight="bold" fill="#D3D3D3">NMMMNy</text><text x="84.01" y="204.55" font-weight="bold" fill="#008B8B">MM</text><text x="100.82" y="204.55" font-weight="bold" fill="#D3D3D3">h</text><text x="109.22" y="204.55" font-weight="bold" fill="#008B8B">sssssssssssssshmmmh</text><text x="268.84" y="204.55" font-weight="bold" fill="#008B8B">ssssssso</text><text x="0" y="223.55" font-weight="bold" fill="#008B8B">+sss</text><text x="33.61" y="223.55" font-weight="bold" fill="#D3D3D3">yyyyyN</text><text x="84.01" y="223.55" font-weight="bold" fill="#008B8B">MM</text><text x="100.82" y="223.55" font-weight="bold" fill="#D3D3D3">Ny</text><text x="117.62" y="223.55" font-weight="bold" fill="#008B8B">ssssssssssss</text><text x="218.44" y="223.55" font-weight="bold" fill="#D3D3D3">yN</text><text x="235.24" y="223.55" font-weight="bold" fill="#008B8B">MM</text><text x="252.04" y="223.55" font-weight="bold" fill="#D3D3D3">My</text><text x="268.84" y="223.55" font-weight="bold" fill="#008B8B">sssssss+</text><text x="0" y="242.55" font-weight="bold" fill="#008B8B">.ssssssss</text><text x="75.61" y="242.55" font-weight="bold" fill="#D3D3D3">dM</text><text x="92.42" y="242.55" font-weight="bold" fill="#008B8B">MM</text><text x="109.22" y="242.55" font-weight="bold" fill="#D3D3D3">Nh</text><text x="126.02" y="242.55" font-weight="bold" fill="#008B8B">ssssssssss</text><text x="210.03" y="242.55" font-weight="bold" fill="#D3D3D3">hN</text><text x="226.84" y="242.55" font-weight="bold" fill="#008B8B">MM</text><text x="243.64" y="242.55" font-weight="bold" fill="#D3D3D3">Md</text><text x="260.44" y="242.55" font-weight="bold" fill="#008B8B">ssssssss.</text><text x="8.4" y="261.55" font-weight="bold" fill="#008B8B"> \ssssssss</text><text x="84.01" y="261.55" font-weight="bold" fill="#D3D3D3">hN</text><text x="100.82" y="261.55" font-weight="bold" fill="#008B8B">MM</text><text x="117.62" y="261.55" font-weight="bold" fill="#D3D3D3">M</text><text x="126.02" y="261.55" font-weight="bold" fill="#008B8B">yh</text><text x="142.82" y="261.55" font-weight="bold" fill="#D3D3D3">hyyyyhdNM</text><text x="218.44" y="261.55" font-weight="bold" fill="#008B8B">M</text><text x="226.84" y="261.55" font-weight="bold" fill="#D3D3D3">MNh</text><text x="252.04" y="261.55" font-weight="bold" fill="#008B8B">ssssssss/</text><text x="16.8" y="280.55" font-weight="bold" fill="#008B8B">  +sssssssss</text><text x="100.82" y="280.55" font-weight="bold" fill="#D3D3D3">dm</text><text x="117.62" y="280.55" font-weight="bold" fill="#008B8B">ydMMMMMMMMdd</text><text x="218.44" y="280.55" font-weight="bold" fill="#D3D3D3">ddy</text><text x="243.64" y="280.55" font-weight="bold" fill="#008B8B">ssssssss+</text><text x="25.2" y="299.55" font-weight="bold" fill="#008B8B">   \sssssssssss</text><text x="126.02" y="299.55" font-weight="bold" fill="#D3D3D3">hdmNNNNmyNMMMMh</text><text x="252.04" y="299.55" font-weight="bold" fill="#008B8B">ssssss/</text><text x="33.61" y="318.55" font-weight="bold" fill="#008B8B">    .ossssssssssssssssss</text><text x="201.63" y="318.55" font-weight="bold" fill="#D3D3D3">dMMMNyy</text><text x="260.44" y="318.55" font-weight="bold" fill="#008B8B">ssso.</text><text x="50.41" y="337.55" font-weight="bold" fill="#008B8B">      -+sssssssssssssssss</text><text x="210.03" y="337.55" font-weight="bold" fill="#D3D3D3">yy</text><text x="226.84" y="337.55" font-weight="bold" fill="#008B8B">sss+-</text><text x="67.21" y="356.55" font-weight="bold" fill="#008B8B">        &#x60;:+ssssssssssssssssss+:&#x60;</text><text x="100.82" y="375.55" font-weight="bold" fill="#008B8B">            .-\+oossssoo+/-.</text></g></svg>