<svg xmlns="http://www.w3.org/2000/svg" viewBox="0, 0, 336.05, 763.45" font-family="SauceCodePro Nerd Font, Source Code Pro, Courier" font-size="14"><g fill="currentColor"><text x="100.82" y="14.55" font-weight="bold" fill="#B22222">            .-/+oooooooo+/-.</text><text x="67.21" y="33.55" font-weight="bold" fill="#B22222">        &#x60;:+oooooooooooooooooo+:&#x60;</text><text x="50.41" y="52.55" font-weight="bold" fill="#B22222">      -+oooooooooooooooooooooooo+-</text><text x="33.61" y="71.55" font-weight="bold" fill="#B22222">    .ooooooooooooooooooo</text><text x="201.63" y="71.55" font-weight="bold" fill="#D3D3D3">:ohNd</text><text x="243.64" y="71.55" font-weight="bold" fill="#B22222">oooooo.</text><text x="25.2" y="90.55" font-weight="bold" fill="#B22222">   /oooooooooooo</text><text x="134.42" y="90.55" font-weight="bold" fill="#D3D3D3">:/+oo++:/ohNd</text><text x="243.64" y="90.55" font-weight="bold" fill="#B22222">ooooooo/</text><text x="16.8" y="109.55" font-weight="bold" fill="#B22222">  +oooooooooo</text><text x="109.22" y="109.55" font-weight="bold" fill="#D3D3D3">:osNdhyyhdNNh+:+</text><text x="243.64" y="109.55" font-weight="bold" fill="#B22222">oooooooo+</text><text x="8.4" y="128.55" font-weight="bold" fill="#B22222"> /ooooooooo</text><text x="92.42" y="128.55" font-weight="bold" fill="#D3D3D3">/dN/</text><text x="126.02" y="128.55" font-weight="bold" fill="#B22222">ooooooooo</text><text x="201.63" y="128.55" font-weight="bold" fill="#D3D3D3">/sNNo</text><text x="243.64" y="128.55" font-weight="bold" fill="#B22222">ooooooooo/</text><text x="0" y="147.55" font-weight="bold" fill="#B22222">.ooooooooo</text><text x="84.01" y="147.55" font-weight="bold" fill="#D3D3D3">oMd:</text><text x="117.62" y="147.55" font-weight="bold" fill="#B22222">oooooooooooo</text><text x="218.44" y="147.55" font-weight="bold" fill="#D3D3D3">:yMy</text><text x="252.04" y="147.55" font-weight="bold" fill="#B22222">ooooooooo.</text><text x="0" y="166.55" font-weight="bold" fill="#B22222">+ooooo</text><text x="50.41" y="166.55" font-weight="bold" fill="#D3D3D3">:+o/Md</text><text x="100.82" y="166.55" font-weight="bold" fill="#B22222">oooooo</text><text x="151.22" y="166.55" font-weight="bold" fill="#D3D3D3">:sm/</text><text x="184.83" y="166.55" font-weight="bold" fill="#B22222">oo/ooo</text><text x="235.24" y="166.55" font-weight="bold" fill="#D3D3D3">yMo</text><text x="260.44" y="166.55" font-weight="bold" fill="#B22222">oooooooo+</text><text x="0" y="185.55" font-weight="bold" fill="#B22222">ooo</text><text x="25.2" y="185.55" font-weight="bold" fill="#D3D3D3">:sdMdosMo</text><text x="100.82" y="185.55" font-weight="bold" fill="#B22222">ooooo</text><text x="142.82" y="185.55" font-weight="bold" fill="#D3D3D3">oNMd</text><text x="176.43" y="185.55" font-weight="bold" fill="#B22222">//</text><text x="193.23" y="185.55" font-weight="bold" fill="#D3D3D3">dMd+</text><text x="226.84" y="185.55" font-weight="bold" fill="#B22222">o</text><text x="235.24" y="185.55" font-weight="bold" fill="#D3D3D3">:so</text><text x="260.44" y="185.55" font-weight="bold" fill="#B22222">ooooooooo</text><text x="0" y="204.55" font-weight="bold" fill="#B22222">oooo</text><text x="33.61" y="204.55" font-weight="bold" fill="#D3D3D3">+ymdosMo</text><text x="100.82" y="204.55" font-weight="bold" fill="#B22222">ooo</text><text x="126.02" y="204.55" font-weight="bold" fill="#D3D3D3">+mMm</text><text x="159.63" y="204.55" font-weight="bold" fill="#B22222">+/</text><text x="176.43" y="204.55" font-weight="bold" fill="#D3D3D3">hMMMMMh+hs</text><text x="260.44" y="204.55" font-weight="bold" fill="#B22222">ooooooooo</text><text x="0" y="223.55" font-weight="bold" fill="#B22222">+oooooo</text><text x="58.81" y="223.55" font-weight="bold" fill="#D3D3D3">:</text><text x="67.21" y="223.55" font-weight="bold" fill="#B22222">:</text><text x="75.61" y="223.55" font-weight="bold" fill="#D3D3D3">/Nm:</text><text x="109.22" y="223.55" font-weight="bold" fill="#B22222">/</text><text x="117.62" y="223.55" font-weight="bold" fill="#D3D3D3">hMNo</text><text x="151.22" y="223.55" font-weight="bold" fill="#B22222">:y</text><text x="168.03" y="223.55" font-weight="bold" fill="#D3D3D3">MMMMMMMMMM+</text><text x="260.44" y="223.55" font-weight="bold" fill="#B22222">oooooooo+</text><text x="0" y="242.55" font-weight="bold" fill="#B22222">.ooooooooo</text><text x="84.01" y="242.55" font-weight="bold" fill="#D3D3D3">/NNMNy</text><text x="134.42" y="242.55" font-weight="bold" fill="#B22222">:o</text><text x="151.22" y="242.55" font-weight="bold" fill="#D3D3D3">NMMMMMMMMMMo</text><text x="252.04" y="242.55" font-weight="bold" fill="#B22222">ooooooooo.</text><text x="0" y="261.55" font-weight="bold" fill="#B22222">/oooooooooo</text><text x="92.42" y="261.55" font-weight="bold" fill="#D3D3D3">:yh:</text><text x="126.02" y="261.55" font-weight="bold" fill="#B22222">+m</text><text x="142.82" y="261.55" font-weight="bold" fill="#D3D3D3">MMMMMMMMMMd/</text><text x="243.64" y="261.55" font-weight="bold" fill="#B22222">ooooooooo/</text><text x="16.8" y="280.55" font-weight="bold" fill="#B22222">  +oooooooooo</text><text x="109.22" y="280.55" font-weight="bold" fill="#D3D3D3">+</text><text x="117.62" y="280.55" font-weight="bold" fill="#B22222">/h</text><text x="134.42" y="280.55" font-weight="bold" fill="#D3D3D3">mMMMMMMNds//o</text><text x="243.64" y="280.55" font-weight="bold" fill="#B22222">oooooooo+</text><text x="25.2" y="299.55" font-weight="bold" fill="#B22222">   /oooooooooooo</text><text x="134.42" y="299.55" font-weight="bold" fill="#D3D3D3">+:////:o/ymMd</text><text x="243.64" y="299.55" font-weight="bold" fill="#B22222">ooooooo/</text><text x="33.61" y="318.55" font-weight="bold" fill="#B22222">    .oooooooooooooooooooo</text><text x="210.03" y="318.55" font-weight="bold" fill="#D3D3D3">/sdh</text><text x="243.64" y="318.55" font-weight="bold" fill="#B22222">oooooo.</text><text x="50.41" y="337.55" font-weight="bold" fill="#B22222">      -+oooooooooooooooooooooooo+-</text><text x="67.21" y="356.55" font-weight="bold" fill="#B22222">        &#x60;:+oooooooooooooooooo+:&#x60;</text><text x="100.82" y="375.55" font-weight="bold" fill="#B22222">            .-/+oooooooo+/-.</text></g></svg>