<svg xmlns="http://www.w3.org/2000/svg" viewBox="0, 0, 336.05, 763.45" font-family="SauceCodePro Nerd Font, Source Code Pro, Courier" font-size="14"><g fill="currentColor"><text x="100.82" y="14.55" font-weight="bold" fill="#B22222">            .__=liiiiiii=__,</text><text x="67.21" y="33.55" font-weight="bold" fill="#B22222">        ._=liiliii|i|i|iiilii=_.</text><text x="50.41" y="52.55" font-weight="bold" fill="#B22222">      _=iiiii|ii|i|ii|i|inwwwzii=,</text><text x="33.61" y="71.55" font-weight="bold" fill="#B22222">    .=liiii|ii|ii|wwww|i</text><text x="201.63" y="71.55" font-weight="bold" fill="#D3D3D3">3QWWWW</text><text x="252.04" y="71.55" font-weight="bold" fill="#B22222">ziii=,</text><text x="25.2" y="90.55" font-weight="bold" fill="#B22222">   =lii|i|ii|i|</text><text x="126.02" y="90.55" font-weight="bold" fill="#D3D3D3">QQQWWWWWm]QWWQD</text><text x="252.04" y="90.55" font-weight="bold" fill="#B22222">||iiii=</text><text x="16.8" y="109.55" font-weight="bold" fill="#B22222">  =lii|iiivw</text><text x="100.82" y="109.55" font-weight="bold" fill="#D3D3D3">Qm</text><text x="117.62" y="109.55" font-weight="bold" fill="#B22222">&#x3E;3</text><text x="134.42" y="109.55" font-weight="bold" fill="#D3D3D3">WWWWWQWQQwwQw</text><text x="243.64" y="109.55" font-weight="bold" fill="#B22222">cii|i|ii=</text><text x="8.4" y="128.55" font-weight="bold" fill="#B22222"> =lii|ii|n</text><text x="84.01" y="128.55" font-weight="bold" fill="#D3D3D3">QWWWQ</text><text x="126.02" y="128.55" font-weight="bold" fill="#B22222">|)i</text><text x="151.22" y="128.55" font-weight="bold" fill="#D3D3D3">|i</text><text x="168.03" y="128.55" font-weight="bold" fill="#B22222">%i|]</text><text x="201.63" y="128.55" font-weight="bold" fill="#D3D3D3">TQWWWWm</text><text x="260.44" y="128.55" font-weight="bold" fill="#B22222">|ii|i|i=</text><text x="0" y="147.55" font-weight="bold" fill="#B22222">.li|i|i|m</text><text x="75.61" y="147.55" font-weight="bold" fill="#D3D3D3">WWWQV</text><text x="117.62" y="147.55" font-weight="bold" fill="#B22222">|ii</text><text x="142.82" y="147.55" font-weight="bold" fill="#D3D3D3">wmD</text><text x="168.03" y="147.55" font-weight="bold" fill="#B22222">|iiii|</text><text x="218.44" y="147.55" font-weight="bold" fill="#D3D3D3">TWWWWm</text><text x="268.84" y="147.55" font-weight="bold" fill="#B22222">|i|iiii,</text><text x="0" y="166.55" font-weight="bold" fill="#B22222">=iii</text><text x="33.61" y="166.55" font-weight="bold" fill="#D3D3D3">www|$WQWk</text><text x="109.22" y="166.55" font-weight="bold" fill="#B22222">|i</text><text x="126.02" y="166.55" font-weight="bold" fill="#D3D3D3">aWWWD</text><text x="168.03" y="166.55" font-weight="bold" fill="#B22222">|i|i|ii]</text><text x="235.24" y="166.55" font-weight="bold" fill="#D3D3D3">QQWQk</text><text x="277.25" y="166.55" font-weight="bold" fill="#B22222">|ii|i|=</text><text x="0" y="185.55" font-weight="bold" fill="#B22222">iii</text><text x="25.2" y="185.55" font-weight="bold" fill="#D3D3D3">QWWWQz$WW</text><text x="100.82" y="185.55" font-weight="bold" fill="#B22222">|i</text><text x="117.62" y="185.55" font-weight="bold" fill="#D3D3D3">jQQWQm</text><text x="168.03" y="185.55" font-weight="bold" fill="#B22222">w|ii</text><text x="201.63" y="185.55" font-weight="bold" fill="#D3D3D3">wW</text><text x="218.44" y="185.55" font-weight="bold" fill="#B22222">k|</text><text x="235.24" y="185.55" font-weight="bold" fill="#D3D3D3">TTTTY</text><text x="277.25" y="185.55" font-weight="bold" fill="#B22222">i|i|iii</text><text x="0" y="204.55" font-weight="bold" fill="#B22222">iiI</text><text x="25.2" y="204.55" font-weight="bold" fill="#D3D3D3">QWQWWtyQQ</text><text x="100.82" y="204.55" font-weight="bold" fill="#B22222">|i|</text><text x="126.02" y="204.55" font-weight="bold" fill="#D3D3D3">$WWWWWQWk</text><text x="201.63" y="204.55" font-weight="bold" fill="#B22222">||i|i|ii||i|ii|i</text><text x="0" y="223.55" font-weight="bold" fill="#B22222">&#x3C;|i|</text><text x="33.61" y="223.55" font-weight="bold" fill="#D3D3D3">TTT|mQQWz</text><text x="109.22" y="223.55" font-weight="bold" fill="#B22222">|i</text><text x="126.02" y="223.55" font-weight="bold" fill="#D3D3D3">3D</text><text x="142.82" y="223.55" font-weight="bold" fill="#B22222">]C|</text><text x="168.03" y="223.55" font-weight="bold" fill="#D3D3D3">nD$W</text><text x="201.63" y="223.55" font-weight="bold" fill="#B22222">|ii</text><text x="226.84" y="223.55" font-weight="bold" fill="#D3D3D3">vWWWWk</text><text x="277.25" y="223.55" font-weight="bold" fill="#B22222">||ii|i&#x3E;</text><text x="0" y="242.55" font-weight="bold" fill="#B22222">-|ii|i|i</text><text x="67.21" y="242.55" font-weight="bold" fill="#D3D3D3">WWWQw</text><text x="109.22" y="242.55" font-weight="bold" fill="#B22222">|</text><text x="117.62" y="242.55" font-weight="bold" fill="#D3D3D3">Tt</text><text x="134.42" y="242.55" font-weight="bold" fill="#B22222">|i3</text><text x="159.63" y="242.55" font-weight="bold" fill="#D3D3D3">T</text><text x="168.03" y="242.55" font-weight="bold" fill="#B22222">|</text><text x="176.43" y="242.55" font-weight="bold" fill="#D3D3D3">T</text><text x="184.83" y="242.55" font-weight="bold" fill="#B22222">|i|</text><text x="210.03" y="242.55" font-weight="bold" fill="#D3D3D3">nQWQWDk</text><text x="268.84" y="242.55" font-weight="bold" fill="#B22222">|ii|ii&#x60;</text><text x="8.4" y="261.55" font-weight="bold" fill="#B22222"> &#x3C;|i|iii|</text><text x="75.61" y="261.55" font-weight="bold" fill="#D3D3D3">VWQWWQ</text><text x="126.02" y="261.55" font-weight="bold" fill="#B22222">|i|i|||ii</text><text x="201.63" y="261.55" font-weight="bold" fill="#D3D3D3">wmWWQWD</text><text x="260.44" y="261.55" font-weight="bold" fill="#B22222">||ii|ii+</text><text x="16.8" y="280.55" font-weight="bold" fill="#B22222">  &#x3C;|ii|i|i]</text><text x="92.42" y="280.55" font-weight="bold" fill="#D3D3D3">$W@</text><text x="117.62" y="280.55" font-weight="bold" fill="#B22222">tv</text><text x="134.42" y="280.55" font-weight="bold" fill="#D3D3D3">QQQWQQQWWTTHT</text><text x="243.64" y="280.55" font-weight="bold" fill="#B22222">1|iii|i|&#x3E;</text><text x="25.2" y="299.55" font-weight="bold" fill="#B22222">   &#x3C;|i|ii|ii||v</text><text x="126.02" y="299.55" font-weight="bold" fill="#D3D3D3">QWWWQWWW@vmWWWm</text><text x="252.04" y="299.55" font-weight="bold" fill="#B22222">|i|i|i&#x3E;</text><text x="33.61" y="318.55" font-weight="bold" fill="#B22222">    -&#x3C;|i|ii|ii|i|</text><text x="142.82" y="318.55" font-weight="bold" fill="#D3D3D3">TTTTTT</text><text x="193.23" y="318.55" font-weight="bold" fill="#B22222">|]</text><text x="210.03" y="318.55" font-weight="bold" fill="#D3D3D3">QQWWWC</text><text x="260.44" y="318.55" font-weight="bold" fill="#B22222">|ii&#x3E;&#x60;</text><text x="50.41" y="337.55" font-weight="bold" fill="#B22222">      -&#x3C;|i|ii|i|ii|i|i|ii3</text><text x="218.44" y="337.55" font-weight="bold" fill="#D3D3D3">TTT</text><text x="243.64" y="337.55" font-weight="bold" fill="#B22222">t|i&#x3E;&#x60;</text><text x="75.61" y="356.55" font-weight="bold" fill="#B22222">         ~&#x3C;|ii|ii|iiiii|i|||i&#x3E;~</text><text x="100.82" y="375.55" font-weight="bold" fill="#B22222">            -~~&#x3C;|ii|i||i&#x3E;~~&#x60;</text></g></svg>