<svg xmlns="http://www.w3.org/2000/svg" viewBox="0, 0, 336.05, 763.45" font-family="SauceCodePro Nerd Font, Source Code Pro, Courier" font-size="14"><g fill="currentColor"><text x="100.82" y="14.55" font-weight="bold" fill="#32CD32">            .:/+oossssoo+/:.&#x60;</text><text x="67.21" y="33.55" font-weight="bold" fill="#32CD32">        &#x60;:+ssssssssssssssssss+:&#x60;</text><text x="50.41" y="52.55" font-weight="bold" fill="#32CD32">      -+sssssssssssssss</text><text x="193.23" y="52.55" font-weight="bold" fill="#D3D3D3">y</text><text x="201.63" y="52.55" font-weight="bold" fill="#32CD32">ssssssss+-</text><text x="33.61" y="71.55" font-weight="bold" fill="#32CD32">    .osssssssssssss</text><text x="159.63" y="71.55" font-weight="bold" fill="#D3D3D3">yy</text><text x="176.43" y="71.55" font-weight="bold" fill="#32CD32">ss</text><text x="193.23" y="71.55" font-weight="bold" fill="#D3D3D3">mMmh</text><text x="226.84" y="71.55" font-weight="bold" fill="#32CD32">ssssssso.</text><text x="25.2" y="90.55" font-weight="bold" fill="#32CD32">   /sssssssss</text><text x="109.22" y="90.55" font-weight="bold" fill="#D3D3D3">ydmNNNmmd</text><text x="184.83" y="90.55" font-weight="bold" fill="#32CD32">s</text><text x="193.23" y="90.55" font-weight="bold" fill="#D3D3D3">mMMMMNdy</text><text x="260.44" y="90.55" font-weight="bold" fill="#32CD32">sssss/</text><text x="8.4" y="109.55" font-weight="bold" fill="#32CD32"> &#x60;+ssssssss</text><text x="92.42" y="109.55" font-weight="bold" fill="#D3D3D3">hNNdy</text><text x="134.42" y="109.55" font-weight="bold" fill="#32CD32">sssssss</text><text x="193.23" y="109.55" font-weight="bold" fill="#D3D3D3">mMMMMNdy</text><text x="260.44" y="109.55" font-weight="bold" fill="#32CD32">ssssss+&#x60;</text><text x="8.4" y="128.55" font-weight="bold" fill="#32CD32"> +sssssss</text><text x="75.61" y="128.55" font-weight="bold" fill="#D3D3D3">yNNh</text><text x="109.22" y="128.55" font-weight="bold" fill="#32CD32">ss</text><text x="126.02" y="128.55" font-weight="bold" fill="#D3D3D3">hmNNNNm</text><text x="184.83" y="128.55" font-weight="bold" fill="#32CD32">s</text><text x="193.23" y="128.55" font-weight="bold" fill="#D3D3D3">mMmh</text><text x="226.84" y="128.55" font-weight="bold" fill="#32CD32">s</text><text x="235.24" y="128.55" font-weight="bold" fill="#D3D3D3">ydy</text><text x="260.44" y="128.55" font-weight="bold" fill="#32CD32">sssssss+</text><text x="0" y="147.55" font-weight="bold" fill="#32CD32">-sssss</text><text x="50.41" y="147.55" font-weight="bold" fill="#D3D3D3">y</text><text x="58.81" y="147.55" font-weight="bold" fill="#32CD32">ss</text><text x="75.61" y="147.55" font-weight="bold" fill="#D3D3D3">Nm</text><text x="92.42" y="147.55" font-weight="bold" fill="#32CD32">ss</text><text x="109.22" y="147.55" font-weight="bold" fill="#D3D3D3">hNNh</text><text x="142.82" y="147.55" font-weight="bold" fill="#32CD32">ssssss</text><text x="193.23" y="147.55" font-weight="bold" fill="#D3D3D3">y</text><text x="201.63" y="147.55" font-weight="bold" fill="#32CD32">s</text><text x="210.03" y="147.55" font-weight="bold" fill="#D3D3D3">hh</text><text x="226.84" y="147.55" font-weight="bold" fill="#32CD32">ss</text><text x="243.64" y="147.55" font-weight="bold" fill="#D3D3D3">mMy</text><text x="268.84" y="147.55" font-weight="bold" fill="#32CD32">sssssss-</text><text x="0" y="166.55" font-weight="bold" fill="#32CD32">+ssss</text><text x="42.01" y="166.55" font-weight="bold" fill="#D3D3D3">yMNdy</text><text x="84.01" y="166.55" font-weight="bold" fill="#32CD32">ss</text><text x="100.82" y="166.55" font-weight="bold" fill="#D3D3D3">hMd</text><text x="126.02" y="166.55" font-weight="bold" fill="#32CD32">ssssssssss</text><text x="210.03" y="166.55" font-weight="bold" fill="#D3D3D3">hMd</text><text x="235.24" y="166.55" font-weight="bold" fill="#32CD32">ss</text><text x="252.04" y="166.55" font-weight="bold" fill="#D3D3D3">NN</text><text x="268.84" y="166.55" font-weight="bold" fill="#32CD32">sssssss+</text><text x="0" y="185.55" font-weight="bold" fill="#32CD32">sssss</text><text x="42.01" y="185.55" font-weight="bold" fill="#D3D3D3">yMMMMMmh</text><text x="109.22" y="185.55" font-weight="bold" fill="#32CD32">sssssssssssss</text><text x="218.44" y="185.55" font-weight="bold" fill="#D3D3D3">NM</text><text x="235.24" y="185.55" font-weight="bold" fill="#32CD32">ss</text><text x="252.04" y="185.55" font-weight="bold" fill="#D3D3D3">dMy</text><text x="277.25" y="185.55" font-weight="bold" fill="#32CD32">sssssss</text><text x="0" y="204.55" font-weight="bold" fill="#32CD32">sssss</text><text x="42.01" y="204.55" font-weight="bold" fill="#D3D3D3">yMMMMMmhy</text><text x="117.62" y="204.55" font-weight="bold" fill="#32CD32">ssssssssssss</text><text x="218.44" y="204.55" font-weight="bold" fill="#D3D3D3">NM</text><text x="235.24" y="204.55" font-weight="bold" fill="#32CD32">ss</text><text x="252.04" y="204.55" font-weight="bold" fill="#D3D3D3">dMy</text><text x="277.25" y="204.55" font-weight="bold" fill="#32CD32">sssssss</text><text x="0" y="223.55" font-weight="bold" fill="#32CD32">+ssss</text><text x="42.01" y="223.55" font-weight="bold" fill="#D3D3D3">yMNdy</text><text x="84.01" y="223.55" font-weight="bold" fill="#32CD32">ss</text><text x="100.82" y="223.55" font-weight="bold" fill="#D3D3D3">hMd</text><text x="126.02" y="223.55" font-weight="bold" fill="#32CD32">ssssssssss</text><text x="210.03" y="223.55" font-weight="bold" fill="#D3D3D3">hMd</text><text x="235.24" y="223.55" font-weight="bold" fill="#32CD32">ss</text><text x="252.04" y="223.55" font-weight="bold" fill="#D3D3D3">NN</text><text x="268.84" y="223.55" font-weight="bold" fill="#32CD32">sssssss+</text><text x="0" y="242.55" font-weight="bold" fill="#32CD32">-sssss</text><text x="50.41" y="242.55" font-weight="bold" fill="#D3D3D3">y</text><text x="58.81" y="242.55" font-weight="bold" fill="#32CD32">ss</text><text x="75.61" y="242.55" font-weight="bold" fill="#D3D3D3">Nm</text><text x="92.42" y="242.55" font-weight="bold" fill="#32CD32">ss</text><text x="109.22" y="242.55" font-weight="bold" fill="#D3D3D3">hNNh</text><text x="142.82" y="242.55" font-weight="bold" fill="#32CD32">ssssssss</text><text x="210.03" y="242.55" font-weight="bold" fill="#D3D3D3">dh</text><text x="226.84" y="242.55" font-weight="bold" fill="#32CD32">ss</text><text x="243.64" y="242.55" font-weight="bold" fill="#D3D3D3">mMy</text><text x="268.84" y="242.55" font-weight="bold" fill="#32CD32">sssssss-</text><text x="8.4" y="261.55" font-weight="bold" fill="#32CD32"> +sssssss</text><text x="75.61" y="261.55" font-weight="bold" fill="#D3D3D3">yNNh</text><text x="109.22" y="261.55" font-weight="bold" fill="#32CD32">ss</text><text x="126.02" y="261.55" font-weight="bold" fill="#D3D3D3">hmNNNNm</text><text x="184.83" y="261.55" font-weight="bold" fill="#32CD32">s</text><text x="193.23" y="261.55" font-weight="bold" fill="#D3D3D3">mNmh</text><text x="226.84" y="261.55" font-weight="bold" fill="#32CD32">s</text><text x="235.24" y="261.55" font-weight="bold" fill="#D3D3D3">ymy</text><text x="260.44" y="261.55" font-weight="bold" fill="#32CD32">sssssss+</text><text x="16.8" y="280.55" font-weight="bold" fill="#32CD32">  +ssssssss</text><text x="92.42" y="280.55" font-weight="bold" fill="#D3D3D3">hNNdy</text><text x="134.42" y="280.55" font-weight="bold" fill="#32CD32">sssssss</text><text x="193.23" y="280.55" font-weight="bold" fill="#D3D3D3">mMMMMmhy</text><text x="260.44" y="280.55" font-weight="bold" fill="#32CD32">ssssss+</text><text x="25.2" y="299.55" font-weight="bold" fill="#32CD32">   /sssssssss</text><text x="109.22" y="299.55" font-weight="bold" fill="#D3D3D3">ydmNNNNmd</text><text x="184.83" y="299.55" font-weight="bold" fill="#32CD32">s</text><text x="193.23" y="299.55" font-weight="bold" fill="#D3D3D3">mMMMMNdh</text><text x="260.44" y="299.55" font-weight="bold" fill="#32CD32">sssss/</text><text x="33.61" y="318.55" font-weight="bold" fill="#32CD32">    .osssssssssssss</text><text x="159.63" y="318.55" font-weight="bold" fill="#D3D3D3">yy</text><text x="176.43" y="318.55" font-weight="bold" fill="#32CD32">ss</text><text x="193.23" y="318.55" font-weight="bold" fill="#D3D3D3">mMmdy</text><text x="235.24" y="318.55" font-weight="bold" fill="#32CD32">sssssso.</text><text x="50.41" y="337.55" font-weight="bold" fill="#32CD32">      -+sssssssssssssss</text><text x="193.23" y="337.55" font-weight="bold" fill="#D3D3D3">y</text><text x="201.63" y="337.55" font-weight="bold" fill="#32CD32">ssssssss+-</text><text x="67.21" y="356.55" font-weight="bold" fill="#32CD32">        &#x60;:+ssssssssssssssssss+:&#x60;</text><text x="100.82" y="375.55" font-weight="bold" fill="#32CD32">            .:/+oossssoo+/:.</text></g></svg>