<svg xmlns="http://www.w3.org/2000/svg" viewBox="0, 0, 336.05, 763.45" font-family="SauceCodePro Nerd Font, Source Code Pro, Courier" font-size="14"><g fill="currentColor"><text x="117.62" y="14.55" font-weight="bold" fill="#008B8B">              ..-::::::-.&#x60;</text><text x="75.61" y="33.55" font-weight="bold" fill="#008B8B">         &#x60;.:+++++++++++</text><text x="193.23" y="33.55" font-weight="bold" fill="#D3D3D3">ooo</text><text x="218.44" y="33.55" font-weight="bold" fill="#008B8B">++:.&#x60;</text><text x="58.81" y="52.55" font-weight="bold" fill="#008B8B">       ./+++++++++++++</text><text x="184.83" y="52.55" font-weight="bold" fill="#D3D3D3">sMMMNdyo</text><text x="252.04" y="52.55" font-weight="bold" fill="#008B8B">+/.</text><text x="42.01" y="71.55" font-weight="bold" fill="#008B8B">     .++++++++++++++++</text><text x="184.83" y="71.55" font-weight="bold" fill="#D3D3D3">oyhmMMMMms</text><text x="268.84" y="71.55" font-weight="bold" fill="#008B8B">++.</text><text x="25.2" y="90.55" font-weight="bold" fill="#008B8B">   &#x60;/+++++++++</text><text x="117.62" y="90.55" font-weight="bold" fill="#D3D3D3">osyhddddhys</text><text x="210.03" y="90.55" font-weight="bold" fill="#008B8B">+</text><text x="218.44" y="90.55" font-weight="bold" fill="#D3D3D3">osdMMMh</text><text x="277.25" y="90.55" font-weight="bold" fill="#008B8B">++/&#x60;</text><text x="16.8" y="109.55" font-weight="bold" fill="#008B8B">  &#x60;+++++++++</text><text x="100.82" y="109.55" font-weight="bold" fill="#D3D3D3">ydMMMMNNNMMMMNds</text><text x="235.24" y="109.55" font-weight="bold" fill="#008B8B">+</text><text x="243.64" y="109.55" font-weight="bold" fill="#D3D3D3">oyyo</text><text x="277.25" y="109.55" font-weight="bold" fill="#008B8B">++++&#x60;</text><text x="16.8" y="128.55" font-weight="bold" fill="#008B8B">  +++++++++</text><text x="92.42" y="128.55" font-weight="bold" fill="#D3D3D3">dMMNhso</text><text x="151.22" y="128.55" font-weight="bold" fill="#008B8B">++++</text><text x="184.83" y="128.55" font-weight="bold" fill="#D3D3D3">oydNMMmo</text><text x="252.04" y="128.55" font-weight="bold" fill="#008B8B">++++++++&#x60;</text><text x="8.4" y="147.55" font-weight="bold" fill="#008B8B"> :+</text><text x="25.2" y="147.55" font-weight="bold" fill="#D3D3D3">odmy</text><text x="58.81" y="147.55" font-weight="bold" fill="#008B8B">+++</text><text x="84.01" y="147.55" font-weight="bold" fill="#D3D3D3">ooysoohmNMMNmyoohMMNs</text><text x="260.44" y="147.55" font-weight="bold" fill="#008B8B">+++++++:</text><text x="8.4" y="166.55" font-weight="bold" fill="#008B8B"> ++</text><text x="25.2" y="166.55" font-weight="bold" fill="#D3D3D3">dMMm</text><text x="58.81" y="166.55" font-weight="bold" fill="#008B8B">+</text><text x="67.21" y="166.55" font-weight="bold" fill="#D3D3D3">oNMd</text><text x="100.82" y="166.55" font-weight="bold" fill="#008B8B">++</text><text x="117.62" y="166.55" font-weight="bold" fill="#D3D3D3">yMMMmhhmMMNs+yMMNo</text><text x="268.84" y="166.55" font-weight="bold" fill="#008B8B">+++++++</text><text x="0" y="185.55" font-weight="bold" fill="#008B8B">&#x60;++</text><text x="25.2" y="185.55" font-weight="bold" fill="#D3D3D3">NMMy</text><text x="58.81" y="185.55" font-weight="bold" fill="#008B8B">+</text><text x="67.21" y="185.55" font-weight="bold" fill="#D3D3D3">hMMd</text><text x="100.82" y="185.55" font-weight="bold" fill="#008B8B">+</text><text x="109.22" y="185.55" font-weight="bold" fill="#D3D3D3">oMMMs</text><text x="151.22" y="185.55" font-weight="bold" fill="#008B8B">++++</text><text x="184.83" y="185.55" font-weight="bold" fill="#D3D3D3">sMMN</text><text x="218.44" y="185.55" font-weight="bold" fill="#008B8B">++</text><text x="235.24" y="185.55" font-weight="bold" fill="#D3D3D3">NMMs</text><text x="268.84" y="185.55" font-weight="bold" fill="#008B8B">+++++++.</text><text x="0" y="204.55" font-weight="bold" fill="#008B8B">&#x60;++</text><text x="25.2" y="204.55" font-weight="bold" fill="#D3D3D3">NMMy</text><text x="58.81" y="204.55" font-weight="bold" fill="#008B8B">+</text><text x="67.21" y="204.55" font-weight="bold" fill="#D3D3D3">hMMd</text><text x="100.82" y="204.55" font-weight="bold" fill="#008B8B">+</text><text x="109.22" y="204.55" font-weight="bold" fill="#D3D3D3">oMMMo</text><text x="151.22" y="204.55" font-weight="bold" fill="#008B8B">++++</text><text x="184.83" y="204.55" font-weight="bold" fill="#D3D3D3">sMMN</text><text x="218.44" y="204.55" font-weight="bold" fill="#008B8B">++</text><text x="235.24" y="204.55" font-weight="bold" fill="#D3D3D3">mMMs</text><text x="268.84" y="204.55" font-weight="bold" fill="#008B8B">+++++++.</text><text x="8.4" y="223.55" font-weight="bold" fill="#008B8B"> ++</text><text x="25.2" y="223.55" font-weight="bold" fill="#D3D3D3">dMMd</text><text x="58.81" y="223.55" font-weight="bold" fill="#008B8B">+</text><text x="67.21" y="223.55" font-weight="bold" fill="#D3D3D3">oNMm</text><text x="100.82" y="223.55" font-weight="bold" fill="#008B8B">++</text><text x="117.62" y="223.55" font-weight="bold" fill="#D3D3D3">yMMNdhhdMMMs</text><text x="218.44" y="223.55" font-weight="bold" fill="#008B8B">+y</text><text x="235.24" y="223.55" font-weight="bold" fill="#D3D3D3">MMNo</text><text x="268.84" y="223.55" font-weight="bold" fill="#008B8B">+++++++</text><text x="8.4" y="242.55" font-weight="bold" fill="#008B8B"> :+</text><text x="25.2" y="242.55" font-weight="bold" fill="#D3D3D3">odmy</text><text x="58.81" y="242.55" font-weight="bold" fill="#008B8B">++</text><text x="75.61" y="242.55" font-weight="bold" fill="#D3D3D3">oo</text><text x="92.42" y="242.55" font-weight="bold" fill="#008B8B">+</text><text x="100.82" y="242.55" font-weight="bold" fill="#D3D3D3">ss</text><text x="117.62" y="242.55" font-weight="bold" fill="#008B8B">+</text><text x="126.02" y="242.55" font-weight="bold" fill="#D3D3D3">ohNMMMMmho</text><text x="210.03" y="242.55" font-weight="bold" fill="#008B8B">+</text><text x="218.44" y="242.55" font-weight="bold" fill="#D3D3D3">yMMMs</text><text x="260.44" y="242.55" font-weight="bold" fill="#008B8B">+++++++:</text><text x="16.8" y="261.55" font-weight="bold" fill="#008B8B">  +++++++++</text><text x="92.42" y="261.55" font-weight="bold" fill="#D3D3D3">hMMmhs+ooo+oshNMMms</text><text x="252.04" y="261.55" font-weight="bold" fill="#008B8B">++++++++</text><text x="16.8" y="280.55" font-weight="bold" fill="#008B8B">  &#x60;++++++++</text><text x="92.42" y="280.55" font-weight="bold" fill="#D3D3D3">oymMMMMNmmNMMMMmy+oys</text><text x="268.84" y="280.55" font-weight="bold" fill="#008B8B">+++++&#x60;</text><text x="25.2" y="299.55" font-weight="bold" fill="#008B8B">   &#x60;/+++++++++</text><text x="117.62" y="299.55" font-weight="bold" fill="#D3D3D3">oyhdmmmmdhso+sdMMMs</text><text x="277.25" y="299.55" font-weight="bold" fill="#008B8B">++/</text><text x="42.01" y="318.55" font-weight="bold" fill="#008B8B">     ./+++++++++++++++</text><text x="184.83" y="318.55" font-weight="bold" fill="#D3D3D3">oyhdNMMMms</text><text x="268.84" y="318.55" font-weight="bold" fill="#008B8B">++.</text><text x="58.81" y="337.55" font-weight="bold" fill="#008B8B">       ./+++++++++++++</text><text x="184.83" y="337.55" font-weight="bold" fill="#D3D3D3">hMMMNdyo</text><text x="252.04" y="337.55" font-weight="bold" fill="#008B8B">+/.</text><text x="75.61" y="356.55" font-weight="bold" fill="#008B8B">         &#x60;.:+++++++++++</text><text x="193.23" y="356.55" font-weight="bold" fill="#D3D3D3">sso</text><text x="218.44" y="356.55" font-weight="bold" fill="#008B8B">++:.</text><text x="117.62" y="375.55" font-weight="bold" fill="#008B8B">              ..-::::::-..</text></g></svg>