<svg xmlns="http://www.w3.org/2000/svg" viewBox="0, 0, 319.25, 763.45" font-family="SauceCodePro Nerd Font, Source Code Pro, Courier" font-size="14"><g fill="currentColor"><text x="75.61" y="14.55" font-weight="bold" fill="#87CEEB">         </text><text x="75.61" y="14.55" font-weight="bold" fill="#D3D3D3">:</text><text x="84.01" y="14.55" font-weight="bold" fill="#87CEEB">::::::::::::::    </text><text x="235.24" y="14.55" font-weight="bold" fill="#4169E1">.</text><text x="67.21" y="33.55" font-weight="bold" fill="#4169E1">        </text><text x="67.21" y="33.55" font-weight="bold" fill="#D3D3D3">=#</text><text x="84.01" y="33.55" font-weight="bold" fill="#87CEEB">*============.   </text><text x="226.84" y="33.55" font-weight="bold" fill="#4169E1">:#:</text><text x="58.81" y="52.55" font-weight="bold" fill="#4169E1">       </text><text x="58.81" y="52.55" font-weight="bold" fill="#D3D3D3">=##%</text><text x="92.42" y="52.55" font-weight="bold" fill="#87CEEB">+----------.   </text><text x="218.44" y="52.55" font-weight="bold" fill="#4169E1">.###:</text><text x="50.41" y="71.55" font-weight="bold" fill="#4169E1">      </text><text x="50.41" y="71.55" font-weight="bold" fill="#D3D3D3">=####.              </text><text x="218.44" y="71.55" font-weight="bold" fill="#4169E1">.####:</text><text x="42.01" y="90.55" font-weight="bold" fill="#4169E1">     </text><text x="42.01" y="90.55" font-weight="bold" fill="#D3D3D3">=####.                </text><text x="226.84" y="90.55" font-weight="bold" fill="#4169E1">.####:</text><text x="33.61" y="109.55" font-weight="bold" fill="#4169E1">    </text><text x="33.61" y="109.55" font-weight="bold" fill="#D3D3D3">=###*.   .=</text><text x="126.02" y="109.55" font-weight="bold" fill="#87CEEB">--------.     </text><text x="243.64" y="109.55" font-weight="bold" fill="#4169E1">####:</text><text x="25.2" y="128.55" font-weight="bold" fill="#4169E1">   </text><text x="25.2" y="128.55" font-weight="bold" fill="#D3D3D3">=####.   .*#+</text><text x="134.42" y="128.55" font-weight="bold" fill="#87CEEB">======-       </text><text x="252.04" y="128.55" font-weight="bold" fill="#4169E1">####:</text><text x="16.8" y="147.55" font-weight="bold" fill="#4169E1">  </text><text x="16.8" y="147.55" font-weight="bold" fill="#D3D3D3">=###*.   .*###+</text><text x="142.82" y="147.55" font-weight="bold" fill="#87CEEB">====-         </text><text x="260.44" y="147.55" font-weight="bold" fill="#4169E1">####:</text><text x="8.4" y="166.55" font-weight="bold" fill="#4169E1"> </text><text x="8.4" y="166.55" font-weight="bold" fill="#D3D3D3">=###*.   .*#####+</text><text x="151.22" y="166.55" font-weight="bold" fill="#87CEEB">==-           </text><text x="268.84" y="166.55" font-weight="bold" fill="#4169E1">####:</text><text x="0" y="185.55" font-weight="bold" fill="#D3D3D3">=###*.   .*#######+</text><text x="159.63" y="185.55" font-weight="bold" fill="#87CEEB">:             </text><text x="277.25" y="185.55" font-weight="bold" fill="#4169E1">####:</text><text x="0" y="204.55" font-weight="bold" fill="#D3D3D3">=###*.   .*#######+</text><text x="159.63" y="204.55" font-weight="bold" fill="#87CEEB">:             </text><text x="277.25" y="204.55" font-weight="bold" fill="#4169E1">####:</text><text x="8.4" y="223.55" font-weight="bold" fill="#4169E1"> </text><text x="8.4" y="223.55" font-weight="bold" fill="#D3D3D3">=###*.   .*#####+</text><text x="151.22" y="223.55" font-weight="bold" fill="#87CEEB">==-           </text><text x="268.84" y="223.55" font-weight="bold" fill="#4169E1">####:</text><text x="16.8" y="242.55" font-weight="bold" fill="#4169E1">  </text><text x="16.8" y="242.55" font-weight="bold" fill="#D3D3D3">=###*.   .*###+</text><text x="142.82" y="242.55" font-weight="bold" fill="#87CEEB">====-         </text><text x="260.44" y="242.55" font-weight="bold" fill="#4169E1">####:</text><text x="25.2" y="261.55" font-weight="bold" fill="#4169E1">   </text><text x="25.2" y="261.55" font-weight="bold" fill="#D3D3D3">=####.   .*#+</text><text x="134.42" y="261.55" font-weight="bold" fill="#87CEEB">======-       </text><text x="252.04" y="261.55" font-weight="bold" fill="#4169E1">####:</text><text x="33.61" y="280.55" font-weight="bold" fill="#4169E1">    </text><text x="33.61" y="280.55" font-weight="bold" fill="#D3D3D3">=###*.   .=</text><text x="126.02" y="280.55" font-weight="bold" fill="#87CEEB">--------.    </text><text x="235.24" y="280.55" font-weight="bold" fill="#4169E1">.####:</text><text x="42.01" y="299.55" font-weight="bold" fill="#4169E1">     </text><text x="42.01" y="299.55" font-weight="bold" fill="#D3D3D3">=####.                </text><text x="226.84" y="299.55" font-weight="bold" fill="#4169E1">.####:</text><text x="50.41" y="318.55" font-weight="bold" fill="#4169E1">      </text><text x="50.41" y="318.55" font-weight="bold" fill="#D3D3D3">=####.              </text><text x="218.44" y="318.55" font-weight="bold" fill="#4169E1">.####:</text><text x="58.81" y="337.55" font-weight="bold" fill="#4169E1">       </text><text x="58.81" y="337.55" font-weight="bold" fill="#D3D3D3">=###+</text><text x="100.82" y="337.55" font-weight="bold" fill="#87CEEB">--------------</text><text x="218.44" y="337.55" font-weight="bold" fill="#4169E1">####:</text><text x="67.21" y="356.55" font-weight="bold" fill="#4169E1">        </text><text x="67.21" y="356.55" font-weight="bold" fill="#D3D3D3">=#+</text><text x="92.42" y="356.55" font-weight="bold" fill="#87CEEB">=================-</text><text x="243.64" y="356.55" font-weight="bold" fill="#4169E1">:</text><text x="75.61" y="375.55" font-weight="bold" fill="#4169E1">         </text><text x="75.61" y="375.55" font-weight="bold" fill="#D3D3D3">:</text><text x="84.01" y="375.55" font-weight="bold" fill="#87CEEB">::::::::::::::::::.</text></g></svg>