<svg xmlns="http://www.w3.org/2000/svg" viewBox="0, 0, 235.24, 763.45" font-family="SauceCodePro Nerd Font, Source Code Pro, Courier" font-size="14"><g fill="currentColor"><text x="117.62" y="14.55" font-weight="bold">              &#x60;</text><text x="92.42" y="33.55" font-weight="bold">           ^[XOx~.</text><text x="67.21" y="52.55" font-weight="bold">        ^_nwdbbkp0ti&#x27;</text><text x="67.21" y="71.55" font-weight="bold">        &#x3C;vJCZw0LQ0Uj&#x3E;</text><text x="84.01" y="90.55" font-weight="bold">          _j&#x3E;!vC1,,</text><text x="42.01" y="109.55" font-weight="bold">     </text><text x="42.01" y="109.55" font-weight="bold" fill="#B22222">,</text><text x="75.61" y="109.55" font-weight="bold" fill="#B22222">   ,CY</text><text x="100.82" y="109.55" font-weight="bold" fill="#B22222">O</text><text x="109.22" y="109.55" font-weight="bold" fill="#B22222">t</text><text x="117.62" y="109.55" font-weight="bold" fill="#B22222">O</text><text x="126.02" y="109.55" font-weight="bold" fill="#B22222">1(l;&#x22;</text><text x="0" y="128.55" font-weight="bold" fill="#B22222">&#x60;</text><text x="8.4" y="128.55" font-weight="bold" fill="#B22222">~-{r(1I</text><text x="75.61" y="128.55" font-weight="bold" fill="#B22222"> ^</text><text x="84.01" y="128.55" font-weight="bold" fill="#B22222">/zmwJuc:</text><text x="151.22" y="128.55" font-weight="bold" fill="#B22222">I^</text><text x="0" y="147.55" font-weight="bold" fill="#B22222">&#x27;</text><text x="8.4" y="147.55" font-weight="bold" fill="#B22222">?)|</text><text x="33.61" y="147.55" font-weight="bold" fill="#B22222">U</text><text x="42.01" y="147.55" font-weight="bold" fill="#B22222">/}-</text><text x="75.61" y="147.55" font-weight="bold" fill="#B22222"> ^</text><text x="84.01" y="147.55" font-weight="bold" fill="#B22222">f</text><text x="92.42" y="147.55" font-weight="bold" fill="#B22222">OCLLOw</text><text x="142.82" y="147.55" font-weight="bold" fill="#B22222">_</text><text x="151.22" y="147.55" font-weight="bold" fill="#B22222">,;</text><text x="8.4" y="166.55" font-weight="bold" fill="#B22222"> ,</text><text x="16.8" y="166.55" font-weight="bold" fill="#B22222">i,&#x60;&#x60;. </text><text x="67.21" y="166.55" font-weight="bold" fill="#B22222">&#x22;,</text><text x="84.01" y="166.55" font-weight="bold" fill="#B22222">k%ooW@$d&#x22;</text><text x="159.63" y="166.55" font-weight="bold" fill="#B22222">I,&#x27;</text><text x="16.8" y="185.55" font-weight="bold" fill="#B22222">  &#x27;    ;^</text><text x="75.61" y="185.55" font-weight="bold" fill="#B22222">u$$$$$$$$^&#x3C;</text><text x="168.03" y="185.55" font-weight="bold" fill="#B22222">:^</text><text x="25.2" y="204.55" font-weight="bold" fill="#B22222">   &#x60; .&#x3E;&#x3E;</text><text x="67.21" y="204.55" font-weight="bold" fill="#B22222">($$</text><text x="92.42" y="204.55" font-weight="bold" fill="#D3D3D3">$@@@@$$</text><text x="151.22" y="204.55" font-weight="bold" fill="#D3D3D3">$nl</text><text x="176.43" y="204.55" font-weight="bold" fill="#D3D3D3">[::</text><text x="33.61" y="223.55" font-weight="bold" fill="#D3D3D3">    &#x60;!}?</text><text x="67.21" y="223.55" font-weight="bold" fill="#D3D3D3">B$</text><text x="84.01" y="223.55" font-weight="bold" fill="#D3D3D3">%&#x26;WMMW&#x26;%$</text><text x="159.63" y="223.55" font-weight="bold" fill="#D3D3D3">}-</text><text x="176.43" y="223.55" font-weight="bold" fill="#D3D3D3">}&#x22;:</text><text x="33.61" y="242.55" font-weight="bold" fill="#D3D3D3">    ^?j</text><text x="58.81" y="242.55" font-weight="bold" fill="#D3D3D3">Z$</text><text x="75.61" y="242.55" font-weight="bold" fill="#D3D3D3">WMMWWWWMMW$</text><text x="168.03" y="242.55" font-weight="bold" fill="#D3D3D3">ofc</text><text x="193.23" y="242.55" font-weight="bold" fill="#D3D3D3">;;&#x60;</text><text x="33.61" y="261.55" font-weight="bold" fill="#D3D3D3">    &#x3C;~x&#x26;</text><text x="67.21" y="261.55" font-weight="bold" fill="#D3D3D3">$</text><text x="75.61" y="261.55" font-weight="bold" fill="#D3D3D3">&#x26;MWWWWWWWWp</text><text x="168.03" y="261.55" font-weight="bold" fill="#D3D3D3">-</text><text x="176.43" y="261.55" font-weight="bold" fill="#D3D3D3">l&#x3E;[&#x3C;</text><text x="8.4" y="280.55" font-weight="bold" fill="#D3D3D3"> &#x27;ljmwn</text><text x="58.81" y="280.55" font-weight="bold" fill="#D3D3D3">~tk8</text><text x="92.42" y="280.55" font-weight="bold" fill="#D3D3D3">MWWWWM8O</text><text x="159.63" y="280.55" font-weight="bold" fill="#D3D3D3">X</text><text x="168.03" y="280.55" font-weight="bold" fill="#D3D3D3">r</text><text x="176.43" y="280.55" font-weight="bold" fill="#D3D3D3">+]nC</text><text x="210.03" y="280.55" font-weight="bold" fill="#D3D3D3">[</text><text x="0" y="299.55" font-weight="bold" fill="#D3D3D3">!JZqwwdX</text><text x="67.21" y="299.55" font-weight="bold" fill="#D3D3D3">:^C8</text><text x="100.82" y="299.55" font-weight="bold" fill="#D3D3D3">#MMMM@</text><text x="151.22" y="299.55" font-weight="bold" fill="#D3D3D3">X</text><text x="159.63" y="299.55" font-weight="bold" fill="#D3D3D3">Odpdpq0&#x3C;</text><text x="0" y="318.55" font-weight="bold" fill="#D3D3D3">&#x3C;wwwwmmpO</text><text x="75.61" y="318.55" font-weight="bold" fill="#D3D3D3">1</text><text x="84.01" y="318.55" font-weight="bold" fill="#D3D3D3">0@%%%%8</text><text x="142.82" y="318.55" font-weight="bold" fill="#D3D3D3">d</text><text x="151.22" y="318.55" font-weight="bold" fill="#D3D3D3">nqmwmqqqJl</text><text x="0" y="337.55" font-weight="bold" fill="#D3D3D3">?QOZmqqqpb</text><text x="84.01" y="337.55" font-weight="bold" fill="#D3D3D3">t[run/?!</text><text x="151.22" y="337.55" font-weight="bold" fill="#D3D3D3">0pwqqQj-,</text><text x="8.4" y="356.55" font-weight="bold" fill="#D3D3D3"> ^:l&#x3C;{nUUv&#x3E;      ^x00J(&#x22;</text><text x="159.63" y="375.55" font-weight="bold" fill="#D3D3D3">                   ^&#x22;</text></g></svg>