<svg xmlns="http://www.w3.org/2000/svg" viewBox="0, 0, 462.08, 801.45" font-family="SauceCodePro Nerd Font, Source Code Pro, Courier" font-size="14"><g fill="currentColor"><text x="126.02" y="14.55" font-weight="bold">               </text><text x="126.02" y="14.55" font-weight="bold">rrrrrraaaaaaaaaaaayyyy</text><text x="92.42" y="33.55" font-weight="bold">           </text><text x="92.42" y="33.55" font-weight="bold">xxrrrrrrrraaaaaaaaaaaayyyyyyyyy</text><text x="67.21" y="52.55" font-weight="bold">        </text><text x="67.21" y="52.55" font-weight="bold">xxxxxrrrrrrrraaaaaaaaaaaayyyyyyy</text><text x="336.05" y="52.55" font-weight="bold">yyyyy</text><text x="378.06" y="52.55" font-weight="bold">yyyyyyyyyy</text><text x="50.41" y="71.55" font-weight="bold">      </text><text x="50.41" y="71.55" font-weight="bold">xxxxxxxrrrrrrrraaaaa </text><text x="226.84" y="71.55" font-weight="bold">aaaaayyyyyyyyyyyyyyyyyyy</text><text x="33.61" y="90.55" font-weight="bold">    </text><text x="33.61" y="90.55" font-weight="bold">xxxxxx</text><text x="84.01" y="90.55" font-weight="bold">xxx</text><text x="109.22" y="90.55" font-weight="bold">rrrrrrrraaaa </text><text x="218.44" y="90.55" font-weight="bold">aaaaaaayyyyyyyyyyyyyyyyy</text><text x="16.8" y="109.55" font-weight="bold">  </text><text x="16.8" y="109.55" font-weight="bold">xxxxxx</text><text x="67.21" y="109.55" font-weight="bold">xxxxxr</text><text x="117.62" y="109.55" font-weight="bold">rrrrrrraa </text><text x="201.63" y="109.55" font-weight="bold">aaaaaaaaay</text><text x="285.65" y="109.55" font-weight="bold">yyyyyyyyy</text><text x="361.26" y="109.55" font-weight="bold">yyyy </text><text x="403.27" y="109.55" font-weight="bold">yy</text><text x="8.4" y="128.55" font-weight="bold"> </text><text x="8.4" y="128.55" font-weight="bold">xxxxxxx</text><text x="67.21" y="128.55" font-weight="bold">xxx</text><text x="92.42" y="128.55" font-weight="bold">xxrrrrrrrra </text><text x="193.23" y="128.55" font-weight="bold">aaaaaaaaa</text><text x="268.84" y="128.55" font-weight="bold">ayyyyyyyyyyyy</text><text x="378.06" y="128.55" font-weight="bold">yyyyyy</text><text x="8.4" y="147.55" font-weight="bold"> </text><text x="8.4" y="147.55" font-weight="bold">xxxxxxxxxxxxrrrrrrrr </text><text x="184.83" y="147.55" font-weight="bold">aaaaaaaaaaa</text><text x="277.25" y="147.55" font-weight="bold">yyyyyyyyyyyy</text><text x="378.06" y="147.55" font-weight="bold">yyyyyyy</text><text x="0" y="166.55" font-weight="bold">xxxxxxxxxxxxxrrrrrr </text><text x="168.03" y="166.55" font-weight="bold">raaaaaaaaaaaayyy</text><text x="302.45" y="166.55" font-weight="bold">yyyyyyyy</text><text x="369.66" y="166.55" font-weight="bold">yyyyyy</text><text x="420.07" y="166.55" font-weight="bold">yyy</text><text x="0" y="185.55" font-weight="bold">xxxxxxxxxxxxxrrrrr </text><text x="159.63" y="185.55" font-weight="bold">rraaaaaaaaaaaayyyyy</text><text x="319.25" y="185.55" font-weight="bold">yy</text><text x="336.05" y="185.55" font-weight="bold">yyyyyy </text><text x="394.86" y="185.55" font-weight="bold">yyyyyy</text><text x="0" y="204.55" font-weight="bold">xxxxxxxx</text><text x="67.21" y="204.55" font-weight="bold">xxxx</text><text x="100.82" y="204.55" font-weight="bold">xrrrrr</text><text x="151.22" y="204.55" font-weight="bold">rr</text><text x="168.03" y="204.55" font-weight="bold">raaaaaaa</text><text x="235.24" y="204.55" font-weight="bold">aaaaayyyyyyyyyy </text><text x="369.66" y="204.55" font-weight="bold">yyyyyyyyy</text><text x="0" y="223.55" font-weight="bold">xxxxxxx</text><text x="58.81" y="223.55" font-weight="bold">xxxx</text><text x="92.42" y="223.55" font-weight="bold">xxrrrrrrr</text><text x="168.03" y="223.55" font-weight="bold">raaaaaa</text><text x="226.84" y="223.55" font-weight="bold">aaaaaayyyyyyy </text><text x="344.46" y="223.55" font-weight="bold">yyyyyyyyyyyy</text><text x="0" y="242.55" font-weight="bold">xxxxxxx</text><text x="58.81" y="242.55" font-weight="bold">xxx</text><text x="84.01" y="242.55" font-weight="bold">xxxrrrrrrrr</text><text x="176.43" y="242.55" font-weight="bold">aaaaaa</text><text x="226.84" y="242.55" font-weight="bold">aaaaaayyyy </text><text x="319.25" y="242.55" font-weight="bold">yyyyyyyyyyyyyy</text><text x="8.4" y="261.55" font-weight="bold"> </text><text x="8.4" y="261.55" font-weight="bold">xxxxxxxxxxxxrrrrrrrra </text><text x="193.23" y="261.55" font-weight="bold">aaaaaaaaaay </text><text x="294.05" y="261.55" font-weight="bold">yyyyyyyyyyyyyyyy</text><text x="16.8" y="280.55" font-weight="bold">  </text><text x="16.8" y="280.55" font-weight="bold">xxxxxxxxxxxrrrrrrr </text><text x="176.43" y="280.55" font-weight="bold">aaaaaaaaaaaayyyy</text><text x="310.85" y="280.55" font-weight="bold">yyyyyyyyyyyyy</text><text x="25.2" y="299.55" font-weight="bold">   </text><text x="25.2" y="299.55" font-weight="bold">xxxxxxx</text><text x="84.01" y="299.55" font-weight="bold">xxxrr</text><text x="126.02" y="299.55" font-weight="bold">rrrr </text><text x="168.03" y="299.55" font-weight="bold">raaaaaaaaaaaa </text><text x="285.65" y="299.55" font-weight="bold">yyyyyyyyyyyyyyy</text><text x="42.01" y="318.55" font-weight="bold">     </text><text x="42.01" y="318.55" font-weight="bold">xxxxxxxxrrrr </text><text x="151.22" y="318.55" font-weight="bold">rrraaaaaaaaa </text><text x="260.44" y="318.55" font-weight="bold">aayyyyyyyyyyyyyy</text><text x="58.81" y="337.55" font-weight="bold">       </text><text x="58.81" y="337.55" font-weight="bold">xxxxxxrrrrrrr </text><text x="176.43" y="337.55" font-weight="bold">aaaaaa  </text><text x="243.64" y="337.55" font-weight="bold">aaaayyyyyyyyyyyy</text><text x="84.01" y="356.55" font-weight="bold">          </text><text x="84.01" y="356.55" font-weight="bold">xxxrrrrrr </text><text x="168.03" y="356.55" font-weight="bold">raaa  </text><text x="218.44" y="356.55" font-weight="bold">aaaaaaayyyyyyyyy</text><text x="117.62" y="375.55" font-weight="bold">              </text><text x="117.62" y="375.55" font-weight="bold">rrrr </text><text x="159.63" y="375.55" font-weight="bold">rr  </text><text x="193.23" y="375.55" font-weight="bold">aaaaaaaaaayyyyyy</text><text x="142.82" y="394.55" font-weight="bold">                 </text><text x="142.82" y="394.55" font-weight="bold">r   </text><text x="176.43" y="394.55" font-weight="bold">aaaaaaaaaa</text></g></svg>