<svg xmlns="http://www.w3.org/2000/svg" viewBox="0, 0, 378.06, 725.45" font-family="SauceCodePro Nerd Font, Source Code Pro, Courier" font-size="14"><g fill="currentColor"><text x="109.22" y="14.55" font-weight="bold">             __ygg@@@@@@@@@ggy__</text><text x="75.61" y="33.55" font-weight="bold">         _yg@@@@@@@@@@@@@@@@@@@@@gy_</text><text x="50.41" y="52.55" font-weight="bold">      _a@@@@@@@@@@@@@@@@@@@@@@@@@@@@@y_</text><text x="33.61" y="71.55" font-weight="bold">    _a@@@@@@@@@@@@@@@@@@@@@@@</text><text x="243.64" y="71.55" font-weight="bold">#</text><text x="252.04" y="71.55" font-weight="bold">@@@@@@@@@g_</text><text x="25.2" y="90.55" font-weight="bold">   a@@@@@@@@@@@@@</text><text x="142.82" y="90.55" font-weight="bold">###</text><text x="168.03" y="90.55" font-weight="bold">@@@@@@@@</text><text x="235.24" y="90.55" font-weight="bold">##</text><text x="252.04" y="90.55" font-weight="bold">@@@@</text><text x="285.65" y="90.55" font-weight="bold">##</text><text x="302.45" y="90.55" font-weight="bold">@@@@@k</text><text x="16.8" y="109.55" font-weight="bold">  g@@@@@@@</text><text x="84.01" y="109.55" font-weight="bold">###</text><text x="109.22" y="109.55" font-weight="bold">@@@</text><text x="134.42" y="109.55" font-weight="bold">#####</text><text x="176.43" y="109.55" font-weight="bold">@@@@@@@</text><text x="235.24" y="109.55" font-weight="bold">##</text><text x="252.04" y="109.55" font-weight="bold">@@</text><text x="268.84" y="109.55" font-weight="bold">###</text><text x="294.05" y="109.55" font-weight="bold">@@@@@@@k</text><text x="8.4" y="128.55" font-weight="bold"> a@@@@@@@@</text><text x="84.01" y="128.55" font-weight="bold">#####</text><text x="126.02" y="128.55" font-weight="bold">@</text><text x="134.42" y="128.55" font-weight="bold">#####</text><text x="176.43" y="128.55" font-weight="bold">@@@@@@</text><text x="226.84" y="128.55" font-weight="bold">##</text><text x="243.64" y="128.55" font-weight="bold">@@</text><text x="260.44" y="128.55" font-weight="bold">###</text><text x="285.65" y="128.55" font-weight="bold">@@@@@@@@@k</text><text x="0" y="147.55" font-weight="bold">j@@@@@@@@@</text><text x="84.01" y="147.55" font-weight="bold">############</text><text x="184.83" y="147.55" font-weight="bold">@@@@@</text><text x="226.84" y="147.55" font-weight="bold">##</text><text x="243.64" y="147.55" font-weight="bold">@</text><text x="252.04" y="147.55" font-weight="bold">###</text><text x="277.25" y="147.55" font-weight="bold">@@@@@@@@@@@k</text><text x="0" y="166.55" font-weight="bold">g@@@@@@@@@</text><text x="84.01" y="166.55" font-weight="bold">#####################</text><text x="260.44" y="166.55" font-weight="bold">@@@@@@@@@@@@@@</text><text x="0" y="185.55" font-weight="bold">@@@@@@@@@</text><text x="75.61" y="185.55" font-weight="bold">##########################</text><text x="294.05" y="185.55" font-weight="bold">@@@@@@@@@@</text><text x="0" y="204.55" font-weight="bold">0@@@@@@@@</text><text x="75.61" y="204.55" font-weight="bold">###########################</text><text x="302.45" y="204.55" font-weight="bold">@@@@@@@@@</text><text x="0" y="223.55" font-weight="bold">~@@@@@@@</text><text x="67.21" y="223.55" font-weight="bold">############################</text><text x="302.45" y="223.55" font-weight="bold">@@@@@@@@F</text><text x="8.4" y="242.55" font-weight="bold"> 9@@@@@@</text><text x="67.21" y="242.55" font-weight="bold">##########################</text><text x="285.65" y="242.55" font-weight="bold">@@@@@@@@@P</text><text x="16.8" y="261.55" font-weight="bold">  4@@@@@@</text><text x="75.61" y="261.55" font-weight="bold">######################</text><text x="260.44" y="261.55" font-weight="bold">@@@@@@@@@@@P</text><text x="25.2" y="280.55" font-weight="bold">   ~@@@@@@</text><text x="84.01" y="280.55" font-weight="bold">################</text><text x="218.44" y="280.55" font-weight="bold">@@@@@@@@@@@@@@@F</text><text x="33.61" y="299.55" font-weight="bold">    &#x60;4@@@@@@</text><text x="100.82" y="299.55" font-weight="bold">#######</text><text x="159.63" y="299.55" font-weight="bold">@@@@@@@@@@@@@@@@@@@@P&#x60;</text><text x="50.41" y="318.55" font-weight="bold">      &#x60;~@@@@@@@@@@@@@@@@@@@@@@@@@@@@@F&#x60;</text><text x="75.61" y="337.55" font-weight="bold">         ~~4@@@@@@@@@@@@@@@@@@@@@P~~</text><text x="109.22" y="356.55" font-weight="bold">             &#x60;~~=R@@@@@@@@@P=~~~</text></g></svg>